SplineFontDB: 3.0
FontName: Eater-Caps
FullName: Eater-Caps
FamilyName: Eater-Caps
Weight: Book
Copyright: Copyright (c) 2011 by Typomondo. All rights reserved.
Version: 001.001
ItalicAngle: 0
UnderlinePosition: -103
UnderlineWidth: 102
Ascent: 1638
Descent: 410
sfntRevision: 0x00010000
LayerCount: 2
Layer: 0 0 "Back"  1
Layer: 1 0 "Fore"  0
NeedsXUIDChange: 1
XUID: [1021 14 500265001 2861559]
FSType: 4
OS2Version: 3
OS2_WeightWidthSlopeOnly: 0
OS2_UseTypoMetrics: 1
CreationTime: 1319270622
ModificationTime: 1319272045
PfmFamily: 81
TTFWeight: 400
TTFWidth: 5
LineGap: 0
VLineGap: 0
Panose: 0 0 0 0 0 0 0 0 0 0
OS2TypoAscent: 1260
OS2TypoAOffset: 1
OS2TypoDescent: -509
OS2TypoDOffset: 1
OS2TypoLinegap: 0
OS2WinAscent: 0
OS2WinAOffset: 1
OS2WinDescent: 0
OS2WinDOffset: 1
HheadAscent: 0
HheadAOffset: 1
HheadDescent: 0
HheadDOffset: 1
OS2SubXSize: 1331
OS2SubYSize: 1228
OS2SubXOff: 0
OS2SubYOff: 153
OS2SupXSize: 1331
OS2SupYSize: 1228
OS2SupXOff: 0
OS2SupYOff: 716
OS2StrikeYSize: 102
OS2StrikeYPos: 1137
OS2Vendor: 'typm'
OS2CodePages: 00000001.00000000
OS2UnicodeRanges: 00000003.00000000.00000000.00000000
MarkAttachClasses: 1
DEI: 91125
TtTable: prep
PUSHW_1
 511
SCANCTRL
PUSHB_1
 4
SCANTYPE
EndTTInstrs
ShortTable: maxp 16
  1
  0
  346
  502
  8
  479
  7
  2
  0
  1
  1
  0
  64
  7
  2
  2
EndShort
LangName: 1033 "" "" "Regular" "vernon adams : Eater-Caps : 21-10-2011" "" "" "" "Eater-Caps is a trademark of Typomondo." "Typomondo" "Typomondo" "Copyright (c) 2011 by Typomondo. All rights reserved." "" "" "" "http://scripts.sil.org/OFL" "" "Eater-Caps" "Eater-Caps" 
GaspTable: 1 65535 2
Encoding: UnicodeBmp
UnicodeInterp: none
NameList: Adobe Glyph List
DisplaySize: -96
AntiAlias: 1
FitToEm: 1
WinInfo: 64 8 2
BeginPrivate: 0
EndPrivate
BeginChars: 65540 346

StartChar: exclam
Encoding: 33 33 6
Width: 657
GlyphClass: 2
Flags: HW
LayerCount: 2
Fore
SplineSet
222 276 m 1
 216 276 l 1
 214 270 l 1
 222 276 l 1
429 545 m 1
 433 524 l 1
 450.136058969 469.378812038 466.753445316 436 527 436 c 1
 525 313 l 1
 501.666666667 313 483.333333333 309.666666667 470 303 c 1
 477.333333333 291 488.666666667 276 504 258 c 1
 439 207 l 1
 415 234.333333333 398 248 388 248 c 1
 372.666666667 238.666666667 365 219.333333333 365 190 c 1
 261 193 l 1
 261 211 252 228 234 244 c 1
 185 217 l 1
 150 268 l 1
 173 291 l 2
 171.666666667 291 171 291.666666667 171 293 c 2
 177 303 l 1
 183 299 l 1
 185 303 l 1
 179 307 l 1
 192.333333333 342.333333333 200.333333333 374.333333333 203 403 c 1
 201.666666667 414.333333333 191 431.666666667 171 455 c 1
 255 541 l 1
 279.666666667 517.666666667 298 506 310 506 c 1
 307.333333333 506 306 513.333333333 306 528 c 2
 306 559 l 1
 377 559 l 1
 379 526.333333333 384.666666667 505.333333333 394 496 c 1
 382 532 l 1
 429 545 l 1
547 1522 m 1
 514.210388085 1511.07012936 490 1505.08659753 490 1475 c 1
 486 1393 476.333333333 1311 461 1229 c 0
 454.333333333 1191 445.5 1110.83333333 434.5 988.5 c 128
 423.5 866.166666667 408.666666667 773 390 709 c 1
 391.333333333 707.666666667 397.333333333 696 408 674 c 1
 367 651 l 1
 353 672 l 1
 336 659 l 1
 308 692 l 1
 332 715 l 2
 330.666666667 713.666666667 330 713.666666667 330 715 c 0
 325.381986806 726.545032984 308 748.104226892 308 762 c 1
 281 745 l 1
 257 784 l 1
 270.333333333 795.333333333 279.666666667 801 285 801 c 0
 286.333333333 801 287 800.333333333 287 799 c 2
 287 827 l 2
 287 909 266.666666667 1029.33333333 226 1188 c 1
 201 1300 l 1
 183 1323 l 1
 182.222117072 1326.88941464 179 1330.34797224 179 1333 c 1
 187 1343 l 1
 171.666666667 1387.66666667 164 1431 164 1473 c 0
 164 1490.33333333 167.166666667 1508.66666667 173.5 1528 c 128
 179.833333333 1547.33333333 183 1558.33333333 183 1561 c 0
 183 1570.33333333 168.666666667 1585.33333333 140 1606 c 1
 183 1667 l 1
 207 1646.33333333 224.666666667 1636 236 1636 c 0
 250.666666667 1636 264.333333333 1641.66666667 277 1653 c 1
 250 1667 l 1
 269 1710 l 1
 296 1698 l 1
 334 1680 357 1671 365 1671 c 0
 369.666666667 1671 381.333333333 1684.66666667 400 1712 c 1
 476 1647 l 1
 457 1624 l 2
 451.950878352 1617.50827217 446.306052555 1606.30605256 439 1599 c 1
 439 1589.01756503 463.847702116 1577 474 1577 c 0
 483.333333333 1577 501 1582.33333333 527 1593 c 1
 547 1522 l 1
EndSplineSet
EndChar

StartChar: quotedbl
Encoding: 34 34 7
Width: 871
GlyphClass: 2
Flags: HW
LayerCount: 2
Fore
SplineSet
719 1599 m 1
 719 1583.25230627 721 1476.30523778 721 1460 c 1
 723 1460 l 1
 723 1321 l 2
 723 1240.33333333 697.666666667 1164.66666667 647 1094 c 1
 624 1073 l 1
 624 1069 633 1052.66666667 651 1024 c 1
 608 991 l 1
 599.783818405 1000.38992182 582.048663051 1036 569 1036 c 1
 520 1022 l 1
 522 1238 525.333333333 1453.66666667 530 1669 c 1
 539.722426489 1669 546.1130768 1679.65606827 560 1692 c 128
 572 1702.66666667 585.333333333 1714 600 1726 c 1
 674 1698 l 1
 691.333333333 1668 700 1652.33333333 700 1651 c 0
 700 1643.771895 717.330976385 1604.00707084 719 1599 c 1
379 1599 m 1
 379 1583.25230627 381 1476.30523778 381 1460 c 1
 383 1460 l 1
 383 1321 l 2
 383 1240.33333333 357.666666667 1164.66666667 307 1094 c 1
 282.333333333 1072 273 1054 279 1040 c 0
 280.333333333 1037.33333333 279.333333333 1036 276 1036 c 2
 229 1036 l 1
 180 1022 l 1
 182 1238 185.333333333 1453.66666667 190 1669 c 1
 199.722426489 1669 206.1130768 1679.65606827 220 1692 c 128
 232 1702.66666667 245.333333333 1714 260 1726 c 1
 334 1698 l 1
 351.333333333 1668 360 1652.33333333 360 1651 c 0
 360 1643.771895 377.330976385 1604.00707084 379 1599 c 1
EndSplineSet
EndChar

StartChar: numbersign
Encoding: 35 35 8
Width: 1639
GlyphClass: 2
Flags: HW
LayerCount: 2
Fore
SplineSet
776 362 m 1
 762 362 l 1
 772 358 l 1
 776 362 l 1
934 819 m 1
 907 811 l 1
 942 805 l 2
 943.333333333 805 944 805.666666667 944 807 c 128
 944 808.333333333 940.666666667 812.333333333 934 819 c 1
614 825 m 2
 614 823.666666667 616 822.333333333 616 821 c 1
 698 821 l 2
 784 821 849.666666667 823.666666667 895 829 c 1
 898.333333333 848.333333333 906.333333333 868.333333333 919 889 c 1
 919 907 l 1
 915 907 l 1
 904.333333333 927.666666667 899 941.333333333 899 948 c 2
 899 950 l 1
 839 950 l 1
 818.924243017 947.490530377 821 927.548891478 821 901 c 1
 741 901 l 1
 741 934.814767076 744.539847304 950 721 950 c 2
 719 950 l 1
 683.666666667 925.333333333 661 906.333333333 651 893 c 1
 626 842 l 1
 624 836 l 1
 616 823 l 1
 614 825 l 2
1347 952 m 0
 1336.6720274 952 1296.15697202 954 1286 954 c 2
 1228 954 l 2
 1178.66666667 954 1137.33333333 949.333333333 1104 940 c 1
 1063 836 l 1
 1300 836 l 2
 1310 836 1324.33333333 837.333333333 1343 840 c 1
 1362.22909037 840 1361.75294402 833.204710432 1373.5 852 c 128
 1378.5 860 1384.66666667 873 1392 891 c 1
 1456 887 l 1
 1442 851.666666667 1435 829.666666667 1435 821 c 0
 1435 809 1447.33333333 803 1472 803 c 0
 1477.33333333 803 1493 805.666666667 1519 811 c 1
 1519 748 l 1
 1479 743.333333333 1455.33333333 739 1448 735 c 1
 1433 717 l 2
 1429 713 1427 709.666666667 1427 707 c 0
 1427 703 1436.66666667 688 1456 662 c 1
 1407 618 l 1
 1384.33333333 648.666666667 1371.33333333 664 1368 664 c 0
 1365.33333333 664 1361.66666667 663.333333333 1357 662 c 0
 1287 638.666666667 1209.33333333 627 1124 627 c 0
 1090.25291534 627 1025.01821256 633 993 633 c 1
 977 575 l 1
 945.666666667 468.333333333 906 383 858 319 c 1
 842.666666667 302.333333333 835 280 835 252 c 2
 835 215 l 1
 772 215 l 1
 770.666666667 259.666666667 761 293 743 315 c 1
 708 307 l 1
 702 354 l 1
 711.333333333 358 720.333333333 360 729 360 c 1
 729 362 l 2
 729 364 732.333333333 375 739 395 c 0
 744.955168615 412.865505845 820.783599072 616.761275544 825 637 c 1
 767.666666667 637 700 633.666666667 622 627 c 2
 575 623 l 1
 575 620.333333333 571.666666667 604.333333333 565 575 c 1
 538 575 l 1
 524 524 l 2
 512.409862979 484.883287554 479.801235735 399.570631318 467 358.5 c 128
 459 332.833333333 454.666666667 311 454 293 c 0
 454 284.333333333 457 263.666666667 463 231 c 1
 374 213 l 1
 368.392999885 238.632000527 347.638744974 313 321 313 c 0
 305.506758947 313 284.584285039 305 264 305 c 1
 245 365 l 1
 283.57595195 379.596306143 308.161996822 389.485990465 319 422 c 1
 317 420 l 1
 321.631332709 442.230397002 378.717307592 580.254395289 385 600 c 1
 356 600 l 2
 329.918738479 600 204.737605926 610 180 610 c 0
 176 610 169 595 159 565 c 1
 96 569 l 1
 106.666666667 605.666666667 112 626.333333333 112 631 c 2
 112 633 l 1
 109.544556014 633 104.454364042 637 102 637 c 0
 95.3333333333 637 76.3333333333 630.666666667 45 618 c 1
 16 674 l 1
 37.3431270161 682.003672631 94.0618738367 705.777590781 86.5 715.5 c 128
 81.7821946594 721.565749724 80.0663131662 729.033156583 88 733 c 1
 88 738.333333333 70 756.666666667 34 788 c 1
 92 821 l 1
 118 799 133 788 137 788 c 1
 163.666666667 798 196.333333333 803 235 803 c 2
 403 803 l 1
 406.333333333 804.333333333 418 811 438 823 c 2
 473 844 l 1
 489 887 l 2
 495.666666667 906.333333333 501.333333333 920.666666667 506 930 c 1
 502.666666667 930 500.333333333 930.666666667 499 932 c 1
 326 932 l 2
 293.389759712 932 287.931838246 906.659191231 282 877 c 1
 221 881 l 1
 221 898.065924138 225 921.66514872 225 936 c 0
 225 946.337036097 206.24435492 954 194 954 c 0
 182.666666667 954 163 948 135 936 c 1
 106 995 l 1
 148.666666667 1007 174 1020.66666667 182 1036 c 1
 190 1055 l 1
 195.333333333 1073.66666667 198 1084.33333333 198 1087 c 0
 198 1095 187.333333333 1117 166 1153 c 1
 233 1190 l 1
 257.666666667 1154.66666667 280.333333333 1137 301 1137 c 2
 561 1137 l 1
 575 1160.33333333 596.333333333 1215.66666667 625 1303 c 128
 653.666666667 1390.33333333 685 1452.33333333 719 1489 c 1
 725.666666667 1497.66666667 729 1523.66666667 729 1567 c 1
 782 1567 l 1
 783.333333333 1551.66666667 784 1535.33333333 784 1518 c 0
 784 1505.33333333 782.666666667 1499 780 1499 c 1
 800 1481 l 1
 802.666666667 1481 824.666666667 1489.66666667 866 1507 c 1
 870 1446 l 1
 825 1427 l 1
 825 1401 l 2
 825 1361 806 1291.66666667 768 1193 c 0
 766.345781053 1188.03734316 764.330244829 1182.66048966 762 1178 c 1
 762 1180 l 1
 756.615375642 1166.5384391 751.480908557 1164.44272567 747 1151 c 1
 768.53238566 1151 844.229170415 1137 866 1137 c 0
 938.666666667 1137 987 1143 1011 1155 c 1
 1118 1436 l 1
 1122 1456 1124 1468.33333333 1124 1473 c 0
 1124 1489.66666667 1118.66666667 1512.66666667 1108 1542 c 1
 1169 1565 l 1
 1187 1515 1204.66666667 1484.33333333 1222 1473 c 1
 1243 1464 l 1
 1254.67873044 1467.89291015 1271.44351691 1480.72175846 1284 1487 c 1
 1308 1448 l 1
 1278 1428 1263 1417.66666667 1263 1417 c 0
 1249 1392.33333333 1235 1348.33333333 1221 1285 c 128
 1207 1221.66666667 1196.66666667 1179.66666667 1190 1159 c 1
 1204.69304982 1159 1252.32044947 1153 1267 1153 c 0
 1363.53324788 1153 1415.90359601 1160.04460143 1441 1225 c 1
 1540 1188 l 1
 1533.26548328 1170.68267129 1528.99024938 1151.9463716 1526 1135.5 c 128
 1525.33333333 1131.83333333 1523.66666667 1129.33333333 1521 1128 c 1
 1535.66666667 1128 1556.33333333 1133 1583 1143 c 1
 1587 1083 l 1
 1564 1075 l 1
 1566 1073 l 1
 1558 1065 l 1
 1562 1012 l 1
 1525 1049 l 1
 1519 1032 l 1
 1519 1023.33333333 1532.66666667 1007 1560 983 c 1
 1509 934 l 1
 1486.33333333 960 1470.66666667 973 1462 973 c 0
 1439.37822052 973 1370.27227376 952 1347 952 c 0
EndSplineSet
EndChar

StartChar: dollar
Encoding: 36 36 9
Width: 1190
GlyphClass: 2
Flags: HW
LayerCount: 2
Fore
SplineSet
566 274 m 1
 560 274 l 2
 558 274 554.666666667 270 550 262 c 1
 562 242 l 1
 566 274 l 1
546 1458 m 2
 546 1468.79866116 548 1511.21429816 548 1522 c 2
 548 1573 l 1
 468 1556 l 2
 454.977969738 1552.74449243 383.91504366 1457.74513098 380 1446 c 0
 378.666666667 1442 378 1428.33333333 378 1405 c 2
 378 1391 l 1
 376 1360 l 1
 386 1329 l 1
 384 1331 l 1
 390 1311 l 1
 390 1315 l 1
 408.666666667 1247.66666667 459.333333333 1195.66666667 542 1159 c 1
 542 1180 l 2
 542 1208.93399629 548 1297.49657034 548 1327 c 0
 548 1334.04949793 546 1352.95536181 546 1360 c 2
 546 1458 l 2
666 362 m 2
 666 360 667.666666667 347.333333333 671 324 c 1
 750.742702512 347.453736033 751.471595826 350.072858234 810 406 c 1
 810 403 l 1
 845 438 l 1
 845 436 l 1
 857 475 l 1
 862.917490713 498.669962853 868.664961651 533.759956173 882 549 c 1
 871.668260553 618.222654298 869.98993058 663.013665641 842 701 c 128
 818.313809961 733.145543624 807.284992197 730.482661858 769 758 c 128
 747.666666667 773.333333333 725.666666667 792.333333333 703 815 c 1
 705 815 l 1
 695 818.333333333 686.333333333 821 679 823 c 1
 673 784 l 1
 668.333333333 760.666666667 666 741.666666667 666 727 c 2
 666 362 l 2
546 479 m 0
 546 513.140701964 544 627.73993669 544 662 c 2
 544 848 l 1
 542.666666667 864.666666667 510.333333333 886.333333333 447 913 c 0
 311.225873611 970.851584288 177 1127.80940226 177 1313 c 0
 177 1335.66666667 188 1374.66666667 210 1430 c 1
 208 1427 l 2
 208.922332969 1428.84466594 224 1471.10911939 224 1475 c 0
 224 1483.66666667 209.666666667 1497.33333333 181 1516 c 1
 226 1579 l 1
 252 1559.66666667 267.666666667 1550 273 1550 c 0
 283 1550 300.833333333 1561.5 326.5 1584.5 c 128
 352.166666667 1607.5 365 1626.66666667 365 1642 c 0
 365 1651.33333333 358.333333333 1668 345 1692 c 1
 415 1729 l 1
 429.336487646 1702.01367031 437.004680755 1677 462 1677 c 0
 464.666666667 1677 467.333333333 1677.66666667 470 1679 c 2
 537 1690 l 1
 537 1727.16310388 509.247222283 1735.32261902 482 1747 c 1
 486 1812 l 1
 520 1798.66666667 542.666666667 1792 554 1792 c 0
 559.333333333 1792 564 1794 568 1798 c 1
 566 1798 l 1
 581.670576022 1818.14788346 585.658015756 1841.74047269 587 1882 c 1
 648 1882 l 1
 648 1839 l 2
 648 1818.33333333 652 1803.33333333 660 1794 c 1
 658 1794 l 1
 661.333333333 1788.66666667 667 1786 675 1786 c 0
 679.666666667 1786 697.333333333 1790.66666667 728 1800 c 1
 750 1739 l 1
 711.33678616 1726.11226205 693 1723.2569209 693 1686 c 2
 693 1679 l 1
 752.333333333 1661.66666667 818 1628.33333333 890 1579 c 1
 904 1603.66666667 918.833333333 1626.5 934.5 1647.5 c 128
 950.166666667 1668.5 961.333333333 1679 968 1679 c 0
 996.24885442 1679 1013 1608.12660986 1013 1581 c 0
 1013 1472.9454879 1004.118617 1330.50531908 973.5 1247 c 128
 962.5 1217 949.666666667 1202 935 1202 c 0
 911.666666667 1202 880.333333333 1254 841 1358 c 1
 820.333333333 1409.33333333 800.833333333 1449 782.5 1477 c 128
 744.005592523 1535.79145869 736.830489159 1536.37552776 673 1569 c 1
 673 1251 l 2
 673 1200.33333333 677.666666667 1154 687 1112 c 1
 850.320138255 1073.1142528 972.78551593 958.505058112 1026.5 813 c 128
 1052.83333333 741.666666667 1066 663.333333333 1066 578 c 0
 1066 441.202888671 947.943798991 329.741936123 851 277.5 c 128
 791 245.166666667 731.666666667 226.333333333 673 221 c 1
 675.666666667 199.666666667 677 187.333333333 677 184 c 0
 677 173.333333333 672.166666667 160.666666667 662.5 146 c 128
 652.833333333 131.333333333 648 121.666666667 648 117 c 0
 648 107 651.333333333 85 658 51 c 1
 601 49 l 1
 587.937722687 98.2347375645 594.643604656 101.730366724 570 115 c 1
 564 115 540.333333333 103.333333333 499 80 c 1
 494 145 l 1
 522 159.666666667 537.333333333 168.666666667 540 172 c 1
 540 182 l 2
 540 183.406583554 542 193.802854549 542 195 c 0
 542 197.776861678 540 205.925023676 540 209 c 2
 540 213 l 1
 511 223 l 1
 513 231 l 1
 437 235.666666667 356.333333333 257 271 295 c 1
 267 295 l 2
 260.333333333 295 253 296.333333333 245 299 c 1
 237 296.333333333 224 285.333333333 206 266 c 1
 152 317 l 1
 170 333 181 346 185 356 c 1
 181 373 l 1
 144 365 l 1
 132 408 l 1
 149.333333333 416 161 420 167 420 c 2
 169 420 l 1
 181.170915316 471.726390092 193.522347858 567.19623531 215 657.5 c 128
 229.666666667 719.166666667 238.333333333 778 241 834 c 1
 302 834 l 1
 296.666666667 808 294 791.333333333 294 784 c 0
 291.947551625 755.265722746 300.526658509 726.313390437 304 702 c 2
 318 621 l 2
 329.611008133 551.333951201 351.301461489 480.126548166 367 452 c 0
 398.333333333 397.333333333 457.333333333 355.333333333 544 326 c 1
 544 387 l 2
 544 404.591986459 546 461.592298633 546 479 c 0
EndSplineSet
EndChar

StartChar: percent
Encoding: 37 37 10
Width: 1495
GlyphClass: 2
Flags: HW
LayerCount: 2
Fore
SplineSet
1311 487 m 1
 1312.08134837 490.244045117 1320.09274164 508.370966578 1321 512 c 1
 1318.33333333 514.666666667 1317 518.666666667 1317 524 c 1
 1306.70166602 572.917086395 1274.78112473 626.143908671 1267 636 c 0
 1248.33333333 658 1215.66666667 678.666666667 1169 698 c 1
 1128 698 l 1
 1114 676 l 1
 1083 694 l 1
 1065 679.333333333 1044.66666667 668.666666667 1022 662 c 1
 997.384183968 628.153252956 952.594077112 539.534848232 948 489 c 1
 963 436 l 1
 978.620865741 422.114786008 993.56904804 405.43095196 1008 391 c 1
 1006 391 l 1
 1034 360 l 1
 1063 348 l 1
 1067 348 l 1
 1067 367 l 1
 1112 367 l 1
 1112 336 l 1
 1117.33333333 333.333333333 1122.66666667 332 1128 332 c 1
 1168.49087888 350.151083635 1203.90443495 352.882787682 1237.5 374 c 128
 1249.16666667 381.333333333 1265.33333333 393.333333333 1286 410 c 1
 1295.33333333 439.333333333 1304.33333333 465.666666667 1313 489 c 1
 1311 487 l 1
416 1253 m 1
 330 1253 l 1
 282 1229 254 1216 246 1214 c 1
 221.175699121 1181.62047711 186 1094.97809075 186 1040 c 0
 186 980.460353063 241.264244994 939.735755006 272 909 c 1
 305 895 l 2
 332.333333333 883 359 877 385 877 c 0
 410.364077702 877 502.443260233 934.79229741 514 948 c 1
 524.747298612 957.770271466 559 1033.84148831 559 1055 c 0
 559 1099 535.666666667 1154.33333333 489 1221 c 1
 416 1253 l 1
1130 1319 m 0
 1133 1319 1136 1319 1139 1319 c 0
 1155.66666667 1319 1183 1326.33333333 1221 1341 c 1
 1225 1274 l 1
 1183 1260 1154.33333333 1241 1139 1217 c 0
 1042.48152458 1072.22228688 760.912478748 720.407420377 646 571.5 c 128
 566 467.833333333 526 409.666666667 526 397 c 0
 526 374.958245313 499.342981906 350.836241255 487.5 336.5 c 128
 459.051737754 302.062629912 422.055078087 269.055078087 391 238 c 1
 424 219 l 1
 422 217 l 1
 430 213 l 1
 406 176 l 1
 406 174 l 1
 402.666666667 175.333333333 400.333333333 176.666666667 399 178 c 1
 408 195 l 1
 397 180 l 1
 355.666666667 204.666666667 323 217 299 217 c 0
 285.666666667 217 268 213 246 205 c 1
 217 307 l 1
 243.666666667 312.333333333 265 318.666666667 281 326 c 1
 252 350 l 1
 287 414 l 1
 311 394.666666667 328 385 338 385 c 1
 322 369 l 1
 352 369 l 1
 338 385 l 1
 340.666666667 385 345.333333333 388.333333333 352 395 c 0
 557.761459821 591.91150456 748.120707921 920.938814109 936 1137 c 1
 1061 1292 l 2
 1066.33333333 1297.33333333 1069 1301.66666667 1069 1305 c 0
 1069 1317.66666667 1064.33333333 1340 1055 1372 c 1
 1112 1376 l 1
 1114.37036602 1367.30865791 1123.82363497 1319 1130 1319 c 0
1438 494 m 0
 1438 391.710908845 1341.40735572 296.25896185 1271 251.5 c 128
 1224.33333333 221.833333333 1181 207 1141 207 c 0
 1058.33333333 207 984.333333333 235.666666667 919 293 c 128
 853.666666667 350.333333333 821 420.666666667 821 504 c 0
 821 510 831.333333333 547.333333333 852 616 c 1
 882.666666667 692 918.5 746.5 959.5 779.5 c 128
 1000.5 812.5 1061 829 1141 829 c 0
 1263.66982936 829 1357.69884135 737.885045754 1400.5 650 c 128
 1425.5 598.666666667 1438 546.666666667 1438 494 c 0
436 1364 m 1
 578.201530348 1325.21776445 674 1231.30378923 674 1047 c 0
 674 945.022259206 584.270333955 851.831321485 515 806.5 c 128
 469.666666667 776.833333333 426.333333333 762 385 762 c 0
 208.44422077 762 68 877.489704011 68 1055 c 0
 68 1193.73970571 137.732876261 1294.74782044 233 1343 c 1
 258.086123526 1357.11094448 281 1369.30050577 281 1407 c 0
 281 1407.62313395 279 1434.5699223 279 1438 c 1
 371 1442 l 1
 376.430457561 1391.76826756 395.377701154 1375.31946839 438 1362 c 1
 436 1364 l 1
EndSplineSet
EndChar

StartChar: ampersand
Encoding: 38 38 11
Width: 1065
GlyphClass: 2
Flags: HW
LayerCount: 2
Fore
SplineSet
431 187 m 1
 431 189.23925531 417.515421793 218.39204745 417 222 c 1
 449 244 l 1
 449 296 l 1
 451 322 l 1
 446.618936103 330.762127794 447.881097937 347 435 347 c 0
 429.666666667 347 414 344.333333333 388 339 c 1
 386 410 l 1
 414.666666667 413.333333333 431.666666667 417.666666667 437 423 c 1
 437 466 l 2
 437 474.518881727 439 500.28241311 439 509 c 0
 439 519 437.666666667 536.666666667 435 562 c 1
 419 580 l 1
 368.932462581 580 218.855349551 576 169 576 c 1
 169 564 l 1
 152 564 l 1
 124 533 l 1
 72 560 l 1
 98.6666666667 596 113.666666667 620 117 632 c 1
 108.333333333 674 86 708 50 734 c 1
 109 818 l 1
 119.666666667 808.666666667 135.333333333 798.333333333 156 787 c 1
 156 822 l 1
 226 824 l 1
 228 797.333333333 231.333333333 780.333333333 236 773 c 1
 234 773 l 1
 238 767.666666667 266 765 318 765 c 0
 365.525782954 765 396.618973205 772.066562487 415.5 798.5 c 128
 420.5 805.5 423 809.333333333 423 810 c 2
 423 808 l 1
 435 830 l 1
 433.666666667 831.333333333 433 832.666666667 433 834 c 0
 431 859.333333333 430 886.333333333 430 915 c 1
 424 930 l 1
 422 944 l 1
 421 956 l 1
 388 979 l 1
 427.333333333 1033.66666667 448.333333333 1093 451 1157 c 1
 548 1157 l 1
 548 1133.73045048 550.585447652 1040 570 1040 c 0
 579.333333333 1040 597 1045.66666667 623 1057 c 1
 644 983 l 1
 608.921632769 970.332811833 591 967.795012202 591 934 c 2
 588 777 l 1
 610.539398743 777 695.965874418 781 718 781 c 0
 723.452233847 781 742.142431613 779 748 779 c 2
 781 779 l 2
 843 779 895.666666667 796.666666667 939 832 c 1
 1000 750 l 1
 966.666666667 724 942.666666667 690.666666667 928 650 c 1
 939.333333333 630.666666667 951.666666667 614.333333333 965 601 c 1
 926 545 l 1
 906.016267075 560.542903386 884.788756786 591 853 591 c 0
 821.029721612 591 767.66215546 582 728 582 c 2
 687 582 l 2
 680.277570446 582 651.182201653 584 644 584 c 0
 618 584 598.666666667 583.333333333 586 582 c 1
 586 562.013230942 584 491.966250136 584 472 c 2
 584 429 l 2
 584 381.666666667 579.333333333 342 570 310 c 1
 570 314 l 1
 568.666666667 312.666666667 568 309.333333333 568 304 c 0
 568 296 571.333333333 287 578 277 c 1
 575 196 l 1
 573 196 570.333333333 186 567 166 c 1
 437 163 l 1
 437 177 435 185 431 187 c 1
EndSplineSet
EndChar

StartChar: quotesingle
Encoding: 39 39 12
Width: 532
GlyphClass: 2
Flags: HW
LayerCount: 2
Fore
SplineSet
380 1599 m 1
 380 1583.25230627 382 1476.30523778 382 1460 c 1
 384 1460 l 1
 384 1321 l 2
 384 1240.33333333 358.666666667 1164.66666667 308 1094 c 1
 285 1073 l 1
 285 1069 294 1052.66666667 312 1024 c 1
 269 991 l 1
 260.783818405 1000.38992182 243.048663051 1036 230 1036 c 1
 181 1022 l 1
 183 1238 186.333333333 1453.66666667 191 1669 c 1
 200.722426489 1669 207.1130768 1679.65606827 221 1692 c 128
 233 1702.66666667 246.333333333 1714 261 1726 c 1
 335 1698 l 1
 352.333333333 1668 361 1652.33333333 361 1651 c 0
 361 1643.771895 378.330976385 1604.00707084 380 1599 c 1
EndSplineSet
EndChar

StartChar: parenleft
Encoding: 40 40 13
Width: 626
GlyphClass: 2
Flags: HW
LayerCount: 2
Fore
SplineSet
136 698 m 2
 136 973.582433503 241.343323611 1236.19793782 355 1423 c 1
 353 1425 l 1
 361 1434 l 1
 361 1432 l 1
 398 1491 l 1
 396.666666667 1492.33333333 394.666666667 1493.66666667 392 1495 c 2
 364 1520 l 1
 425 1591 l 1
 441 1575 452.666666667 1562 460 1552 c 1
 495.333333333 1580.66666667 532.666666667 1595 572 1595 c 2
 581 1595 l 1
 615 1620 l 1
 644 1583 l 1
 636.792802853 1577.23424228 617.982519767 1556 611 1556 c 1
 607.666666667 1539.33333333 596.333333333 1516.66666667 577 1488 c 128
 528.877514543 1416.64596984 478.280642317 1359.58284005 427 1278 c 128
 341.545230784 1142.04923079 261 979.167372372 261 758 c 0
 261 373.553018648 330.421569285 153.977033866 515 -66 c 0
 521 -74 527.333333333 -78 534 -78 c 0
 542 -78 558.333333333 -73 583 -63 c 1
 609 -129 l 1
 577.807447197 -141.996897001 554 -146.975771664 554 -174 c 2
 554 -184 l 2
 554 -200.666666667 567.666666667 -232.333333333 595 -279 c 1
 531 -283 l 1
 515.666666667 -255.666666667 504.333333333 -237.5 497 -228.5 c 128
 489.666666667 -219.5 483.333333333 -215 478 -215 c 0
 473.333333333 -215 459 -226 435 -248 c 1
 382 -195 l 1
 406.666666667 -173.666666667 419 -159.333333333 419 -152 c 0
 419 -147.620007254 413.249973142 -140.374959714 411 -137 c 0
 373.112976355 -61.2259527108 264.665836126 118.720554457 224 192.5 c 128
 177.8011154 276.317976346 130 426.677565567 130 559 c 2
 130 604 l 2
 130 606.666666667 123.333333333 621 110 647 c 1
 136 653 l 1
 136 698 l 2
EndSplineSet
EndChar

StartChar: parenright
Encoding: 41 41 14
Width: 639
GlyphClass: 2
Flags: HW
LayerCount: 2
Fore
SplineSet
254 1493 m 1
 373.348407117 1311.68222765 491 1141.24427009 491 844 c 2
 491 633 l 2
 491 626.035008623 416.107166794 310.321500383 413 301 c 0
 345.240302477 143.45870326 290.733793138 13.0928117087 183 -105 c 128
 148.333333333 -143 109 -178.333333333 65 -211 c 1
 71 -240 l 1
 26 -254 l 1
 26 -250 l 2
 26 -252.809425874 21.3389989184 -261.991501622 20 -264 c 1
 -21 -254 l 1
 -17 -231 l 1
 -13 -215 l 1
 -66 -236 l 1
 -68 -180 l 1
 -49.3333333333 -172 -35.6666666667 -168 -27 -168 c 2
 -23 -168 l 1
 -39 -157.333333333 -58.6666666667 -146.333333333 -82 -135 c 1
 -45 -76 l 1
 -17 -85.3333333333 0 -90 6 -90 c 0
 15.3333333333 -90 27.6666666667 -84 43 -72 c 0
 148.116254506 12.9569728201 229.550185279 201.135496873 270.5 359 c 128
 307.677119306 502.320488917 342 672.702505228 342 831 c 1
 345.058135733 873.81390026 328.890576586 930.203657557 325 973 c 2
 319 1026 l 2
 315.553689521 1063.90941527 300.694119204 1125.49414568 303 1167 c 1
 277.033955668 1200.95559643 246.155518387 1261.40746935 223 1300 c 2
 198 1341 l 2
 167.619376566 1390.0763917 120.203234429 1444.10056378 99 1500 c 128
 91.6666666667 1519.33333333 88 1538 88 1556 c 1
 90 1581 l 2
 90 1585.66666667 83 1604 69 1636 c 1
 110 1657 l 1
 122 1637 132 1622.33333333 140 1613 c 128
 148 1603.66666667 152.5 1599 153.5 1599 c 128
 155 1599 155 1599 161 1599 c 0
 167 1599 180.666666667 1610.66666667 202 1634 c 1
 258 1593 l 1
 233.333333333 1567.66666667 221 1552 221 1546 c 0
 221 1542.66666667 223 1538 227 1532 c 2
 254 1491 l 1
 254 1493 l 1
EndSplineSet
EndChar

StartChar: asterisk
Encoding: 42 42 15
Width: 1052
GlyphClass: 2
Flags: HW
LayerCount: 2
Fore
SplineSet
585 1126 m 1
 585 1095.8653835 601 1005.71442683 601 973 c 0
 601 929.127985918 590.310572594 888.621145189 575 858 c 1
 575 860 l 1
 572.333333333 852 571 844.666666667 571 838 c 0
 571 826 577 800.666666667 589 762 c 1
 532 758 l 1
 518.666666667 794.666666667 505.666666667 818.333333333 493 829 c 1
 495.666666667 791.666666667 497 766.666666667 497 754 c 1
 465.666666667 785.333333333 449.333333333 802.333333333 448 805 c 0
 445.333333333 810.333333333 443.333333333 813.666666667 442 815 c 1
 427 801 l 1
 397 844 l 1
 392 938 l 1
 433.077835216 939.521401304 439.759173398 975.183467969 442 1020 c 1
 444 1020 l 1
 446 1042 454.666666667 1079.66666667 470 1133 c 1
 468 1135 466 1138.33333333 464 1143 c 1
 401 1094 l 2
 350.333333333 1054.66666667 298.333333333 1025.33333333 245 1006 c 0
 239.666666667 1003.33333333 233 984 225 948 c 1
 165 950 l 1
 176.333333333 988.666666667 182 1011.33333333 182 1018 c 2
 182 1022 l 1
 179 1022 l 2
 177.666666667 1022 176.333333333 1023.33333333 175 1026 c 1
 165 1026 l 1
 147.666666667 1023.33333333 129.333333333 1022 110 1022 c 1
 108 1077 l 1
 126.739985978 1080.40727018 146.909904299 1080.9699681 163.5 1086.5 c 128
 164.5 1086.83333333 165.333333333 1087 166 1087 c 2
 167 1087 l 1
 188 1124 l 2
 198.666666667 1141.33333333 204 1153 204 1159 c 0
 204 1167 193.666666667 1186.33333333 173 1217 c 1
 251 1260 l 1
 269 1228 288.333333333 1212 309 1212 c 0
 363.474956325 1212 380.582794835 1222.38494548 411 1249 c 1
 405.666666667 1253 399.333333333 1259.33333333 392 1268 c 1
 335 1290 l 1
 337 1290 l 1
 300.333333333 1304 276.666666667 1311 266 1311 c 0
 252.666666667 1311 232.666666667 1301.33333333 206 1282 c 1
 143 1356 l 1
 170.333333333 1377.33333333 184 1395.66666667 184 1411 c 0
 184 1422.33333333 162 1434.66666667 118 1448 c 1
 147 1530 l 1
 169 1520.66666667 188 1516 204 1516 c 1
 204 1569 l 1
 276 1569 l 1
 276 1534 l 1
 294 1509 l 1
 288 1503 l 1
 304 1489 l 1
 304 1491 l 1
 354.666666667 1464.33333333 409.333333333 1420 468 1358 c 1
 470.666666667 1382 472 1404.33333333 472 1425 c 0
 472 1430.65863029 470 1456.17936286 470 1462 c 2
 470 1518 l 2
 470 1523.61055326 472 1542.39484646 472 1548 c 0
 472 1554 455 1563.66666667 421 1577 c 1
 446 1640 l 1
 470.666666667 1629.33333333 488.333333333 1624 499 1624 c 0
 503.666666667 1624 507 1626 509 1630 c 1
 532 1655 l 1
 526 1663 l 1
 526 1661 l 1
 513 1683 l 1
 552 1710 l 1
 560 1696 l 1
 573 1716 l 1
 614 1694 l 1
 595 1655 l 1
 605 1636 l 2
 625.666666667 1597.33333333 636 1566.66666667 636 1544 c 0
 636 1488 627.333333333 1419 610 1337 c 1
 626.666666667 1346.33333333 656.166666667 1367.83333333 698.5 1401.5 c 128
 740.833333333 1435.16666667 777.333333333 1458 808 1470 c 0
 814 1473.33333333 821.666666667 1493.33333333 831 1530 c 1
 890 1528 l 1
 881.333333333 1486.66666667 878 1464 880 1460 c 1
 877.333333333 1460 875.333333333 1460.66666667 874 1462 c 2
 890 1446 l 2
 892.666666667 1443.33333333 899 1442 909 1442 c 0
 921 1442 940.666666667 1444 968 1448 c 1
 970 1389 l 1
 929.333333333 1382.33333333 906.666666667 1375.33333333 902 1368 c 1
 904 1368 l 1
 869.610630449 1301.13178143 810.776468063 1276.48449129 732 1255 c 1
 732 1257 l 1
 698.483274172 1245.82775806 663.972761578 1234.31517439 638 1217 c 1
 673.333333333 1195.66666667 714.333333333 1178.33333333 761 1165 c 1
 759 1167 l 1
 767.775090818 1165.04997982 798.486826265 1151.50439124 806 1149 c 1
 816 1149 l 2
 821.333333333 1149 834.333333333 1161.33333333 855 1186 c 1
 913 1155 l 1
 887 1123.66666667 874 1105.33333333 874 1100 c 0
 874 1098.66666667 876 1094.33333333 880 1087 c 1
 884 1073 l 1
 882 1083 l 1
 886.666666667 1076.33333333 908.333333333 1071 947 1067 c 1
 945 1006 l 1
 904 1006 l 2
 879.3367619 1006 872 993.041842297 872 969 c 0
 872 960.333333333 876 940.333333333 884 909 c 1
 810 905 l 1
 802.043208909 950.467377662 795.4050133 972.620285512 767 991 c 0
 744.333333333 1006.33333333 692.666666667 1045.33333333 612 1108 c 1
 612 1106 l 1
 585 1126 l 1
EndSplineSet
EndChar

StartChar: plus
Encoding: 43 43 16
Width: 960
GlyphClass: 2
Flags: HW
LayerCount: 2
Fore
SplineSet
68 817 m 1
 92.10121946 790.970682983 103.134972432 774 138 774 c 0
 151.204365002 774 194.903538754 780 209 780 c 0
 236.841543624 780 333.186534902 774 361 774 c 1
 377 805 l 2
 379.179970565 809.359941129 390.159465312 828.840534688 392 827 c 1
 392 918 l 2
 392 939.333333333 369.333333333 954.333333333 324 963 c 1
 338 1044 l 1
 343.333333333 1042.66666667 350.333333333 1042 359 1042 c 0
 414.631960964 1042 420 1070.9517326 420 1135 c 1
 484 1135 l 1
 484 1105.22057934 481.4971461 1088.0019026 492 1081 c 1
 488 1075 l 1
 492 1054.33333333 498.666666667 1039.33333333 508 1030 c 1
 516 1014 l 1
 524 1004 529 999 531 999 c 1
 529 1001 l 1
 529 1003 549.333333333 1010.66666667 590 1024 c 1
 594 963 l 1
 571.271357423 955.187029114 547 951.456236392 547 940 c 2
 547 776 l 1
 684 776 l 2
 698 776 708.333333333 776.666666667 715 778 c 1
 693 793 l 1
 719 831 l 1
 775 795.666666667 818 778 848 778 c 0
 862.666666667 778 880.666666667 783 902 793 c 1
 951 694 l 1
 921 678.666666667 901 662.333333333 891 645 c 1
 895.666666667 634.333333333 908.666666667 619.333333333 930 600 c 1
 879 547 l 1
 851.666666667 574.333333333 827.666666667 588 807 588 c 0
 785.690871797 588 667.689997719 575 648 575 c 0
 604 575 570.333333333 576.666666667 547 580 c 1
 547 575 l 2
 547 547.712896232 549 478.269824676 549 451 c 2
 549 422 l 2
 549 358 566 303.333333333 600 258 c 1
 529 205 l 1
 508.333333333 230.333333333 482.333333333 250.666666667 451 266 c 1
 443 262 427.333333333 251 404 233 c 1
 357 281 l 1
 371.666666667 295.666666667 381 306.333333333 385 313 c 1
 390 336 l 1
 398 334 l 1
 400.666666667 339.333333333 402 347.333333333 402 358 c 0
 402 361.61088985 400 379.579436196 400 383 c 2
 402 561 l 1
 386.301445184 565.485301376 361.274469404 584 336 584 c 2
 187 584 l 2
 180.561743733 584 158.649059252 590.139084125 151 588.5 c 128
 146.333333333 587.5 138.666666667 582.5 128 573.5 c 128
 117.333333333 564.5 104.666666667 550.666666667 90 532 c 1
 37 563 l 1
 59 597 70 619 70 629 c 0
 70 629.910887971 68 636.091271916 68 637 c 0
 67.3236093807 638.352781239 65 643.861397564 65 645.5 c 128
 65 650.353352944 53.7235378284 651 48 651 c 130
 4 651 l 1
 4 709 l 1
 34 711 50 712.333333333 52 713 c 1
 46 730.333333333 34.3333333333 748 17 766 c 1
 68 817 l 1
EndSplineSet
EndChar

StartChar: comma
Encoding: 44 44 17
Width: 725
GlyphClass: 2
Flags: HW
LayerCount: 2
Fore
SplineSet
361 242 m 1
 318.778795069 240.436251669 304.064505645 223.524181492 281 197 c 1
 189 272 l 1
 207.666666667 290 220.666666667 308 228 326 c 1
 211.333333333 334.666666667 192.666666667 340 172 342 c 1
 174 438 l 1
 183 438 l 2
 204.333333333 438 221.333333333 443.666666667 234 455 c 1
 207 492 l 1
 254 535 l 1
 275 512 l 1
 275 514.666666667 275.666666667 516.666666667 277 518 c 1
 320 500 l 1
 316 494 l 1
 319.333333333 494 328 496.666666667 342 502 c 0
 346.666666667 504 349.666666667 523 351 559 c 1
 412 559 l 1
 412 529.655581177 408.51075811 500.372310473 418 498 c 0
 433.916848307 493.578653248 490.1265162 459 508 459 c 0
 521.333333333 459 538.666666667 466.333333333 560 481 c 1
 607 414 l 1
 578.333333333 392.666666667 564 374.666666667 564 360 c 0
 564 353.333333333 566 346 570 338 c 1
 570 326 l 1
 572.666666667 316 574 307.666666667 574 301 c 0
 574 189.773238064 497.546196229 63.9623860999 435 8 c 0
 360.279834168 -57.8550614116 339.14892444 -71.8125214824 232 -92 c 1
 222 -92 215 -92.6666666667 211 -94 c 1
 211 -98 l 2
 211 -110.666666667 209 -127 205 -147 c 1
 148 -145 l 1
 153.333333333 -110.333333333 156 -91.3333333333 156 -88 c 2
 156 -86 l 1
 158 -84 l 1
 156.408649995 -84 151.99542103 -82 150 -82 c 0
 146 -82 122 -86.6666666667 78 -96 c 1
 76 -39 l 1
 117.333333333 -29.6666666667 139.333333333 -23.3333333333 142 -20 c 0
 162.285491676 12.4567866822 197.830295801 31.3194758721 230 52 c 128
 316.942500073 107.89160719 327.281003576 114.581288469 381 211 c 1
 381 213 l 1
 377.666666667 221.666666667 371 231.333333333 361 242 c 1
EndSplineSet
EndChar

StartChar: hyphen
Encoding: 45 45 18
Width: 906
GlyphClass: 2
Flags: HW
LayerCount: 2
Fore
SplineSet
212 577 m 1
 203.90354503 567.554135868 194.81634124 557.6848236 187 549 c 1
 152 575 l 1
 168 599 168 599 174 608 c 0
 174.666666667 608.666666667 175 609.333333333 175 610 c 2
 173 616 l 1
 157 616 l 1
 157 659 l 1
 153.666666667 655 147.333333333 653 138 653 c 2
 130 653 l 1
 130 700 l 1
 144 700 l 2
 150 700 154.333333333 697.333333333 157 692 c 1
 157 705 l 2
 157 719.195722449 129.792802607 728.832684224 105 743 c 1
 132 793 l 1
 163.333333333 774.333333333 179 764 179 762 c 2
 179 760 l 1
 215.666666667 780.666666667 239.666666667 791 251 791 c 0
 287.322289073 791 405.081099123 784 441 784 c 2
 527 784 l 2
 586.081083139 784 614.618298001 807.236596003 636 850 c 1
 726 803 l 1
 716.666666667 785.666666667 712 772.666666667 712 764 c 1
 744 776 l 1
 744 717 l 1
 716 709 l 1
 719.333333333 700.333333333 725.333333333 689.333333333 734 676 c 1
 699 651 l 1
 742 627 l 1
 738 563 l 1
 679 590 l 1
 679 582 l 2
 679 570 682.333333333 555 689 537 c 1
 617 518 l 1
 605.168422733 563.354379524 577.998329602 592 523 592 c 128
 512.507882782 592 477.814665676 590 468 590 c 0
 417.811882316 590 259.057957146 582 208 582 c 1
 209.333333333 580.666666667 210 579.333333333 210 578 c 128
 210 576.666666667 210.666666667 576.333333333 212 577 c 1
EndSplineSet
EndChar

StartChar: period
Encoding: 46 46 19
Width: 616
GlyphClass: 2
Flags: HW
LayerCount: 2
Fore
SplineSet
416 403 m 1
 420.377474947 412.84931863 431.311723704 445.623447409 436 455 c 1
 479 438 l 1
 459 388 449 351.333333333 449 328 c 0
 449 313.333333333 460.333333333 296 483 276 c 1
 402 193 l 1
 384.666666667 209 369.666666667 219.666666667 357 225 c 1
 353.666666667 218.333333333 352 203.333333333 352 180 c 1
 277 180 l 1
 277 204.666666667 275.666666667 220.333333333 273 227 c 1
 259 223.666666667 246 213.666666667 234 197 c 1
 156 262 l 1
 168 276.666666667 175.333333333 287 178 293 c 1
 170 294.333333333 155 295 133 295 c 1
 131 381 l 1
 155.666666667 381 176.333333333 387 193 399 c 1
 191 415.666666667 182 434.333333333 166 455 c 1
 238 516 l 1
 260.666666667 491.333333333 281 479 299 479 c 1
 311.666666667 491.666666667 321.333333333 511 328 537 c 1
 397 520 l 1
 389 496 385 477.666666667 385 465 c 0
 385 450.333333333 390.666666667 436.666666667 402 424 c 1
 416 403 l 1
EndSplineSet
EndChar

StartChar: slash
Encoding: 47 47 20
Width: 765
GlyphClass: 2
Flags: HW
LayerCount: 2
Fore
SplineSet
-24 -190 m 1
 -24 -180.352872428 -22 -159.415365425 -22 -152 c 0
 -22 -136.610903662 -41.7386009396 -122.420466353 -44.5 -121.5 c 128
 -49.5 -119.833333333 -69.3333333333 -119 -104 -119 c 1
 -104 -59 l 1
 -61.3333333333 -59 -39 -56.3333333333 -37 -51 c 1
 -8.33333333333 -8.33333333333 24.5 61.1666666667 61.5 157.5 c 128
 98.5 253.833333333 135.166666667 353 171.5 455 c 128
 207.833333333 557 236 628 256 668 c 1
 262.666666667 703.333333333 316.666666667 830.333333333 418 1049 c 128
 519.333333333 1267.66666667 578.666666667 1410.33333333 596 1477 c 1
 596 1486.33333333 582.333333333 1499.33333333 555 1516 c 1
 580 1577 l 1
 610.666666667 1560.33333333 627.666666667 1552 631 1552 c 0
 633.666666667 1552 635 1552.66666667 635 1554 c 2
 637 1552 l 1
 639.666666667 1557.33333333 641 1566.33333333 641 1579 c 0
 641 1587.52783135 639 1618.41537497 639 1628 c 1
 699 1628 l 1
 702.754950517 1569.79826699 702.017974266 1534 746 1534 c 0
 763.333333333 1534 783.666666667 1538 807 1546 c 1
 811 1475 l 1
 772.333333333 1466.33333333 752 1456 750 1444 c 1
 719.359514523 1331.65155325 672.605950885 1248.21190177 622.5 1148 c 128
 593 1089 593 1089 588 1079 c 0
 489.011686787 881.023373574 376.524377436 610.736729156 278 344 c 128
 212.584432374 166.899316915 162.81220099 32.5729665518 60 -106 c 1
 74 -113 l 1
 60 -156 l 1
 29 -145 l 1
 23 -193 l 1
 -24 -190 l 1
EndSplineSet
EndChar

StartChar: zero
Encoding: 48 48 21
Width: 1189
GlyphClass: 2
Flags: HW
LayerCount: 2
Fore
SplineSet
296 1149 m 1
 284.491642594 1149 277 1135.98579804 277 1124 c 2
 277 1034 l 2
 277 1018 288 988.666666667 310 946 c 128
 342.376337919 883.20952646 410.011358982 765.155375943 415 687 c 0
 415 681.666666667 416.333333333 677 419 673 c 2
 441 644 l 2
 451 629.333333333 462 622 474 622 c 0
 489.333333333 622 509 629.333333333 533 644 c 1
 552 617 l 1
 516.666666667 596.333333333 499 578 499 562 c 0
 499 538.387191144 512.677315736 503 539 503 c 2
 552 503 l 2
 566.666666667 503 579 498.833333333 589 490.5 c 128
 599 482.166666667 605 478 607 478 c 2
 662 478 l 2
 668 478 671.666666667 478.666666667 673 480 c 2
 705 497 l 2
 706.333333333 497.666666667 711.666666667 507.5 721 526.5 c 128
 736.955481213 558.980801041 769.574037279 624.556669269 791 650 c 0
 795 653.333333333 797.833333333 665 799.5 685 c 128
 801.166666667 705 805.333333333 717.333333333 812 722 c 1
 822.442837964 742.885675929 829.631652383 811.489980222 843 830 c 0
 847 836 849 841 849 845 c 2
 859 942 l 1
 859 1025.33333333 837 1067 793 1067 c 0
 778.333333333 1067 766 1066.33333333 756 1065 c 1
 752 1090 l 1
 798.030725214 1096.85563993 824.268659991 1099.55226991 828 1135 c 1
 823.32276879 1146.69307802 803 1163.25195945 803 1184 c 0
 803 1187.10836955 805 1208.74959438 805 1212 c 0
 805 1218 803 1223 799 1227 c 0
 770.589415663 1257.68343108 712.245621345 1383.21344176 685 1415 c 1
 670.333333333 1407 661.333333333 1384.66666667 658 1348 c 1
 615 1352 l 1
 616.333333333 1358.66666667 617 1369.33333333 617 1384 c 0
 617 1426.66666667 590.333333333 1448 537 1448 c 0
 529.471461575 1448 443.941889341 1413.94188934 441 1411 c 0
 440.333333333 1409.66666667 437 1403.66666667 431 1393 c 128
 422 1377 422 1377 417.5 1369 c 128
 412.684474639 1360.43906602 404 1337.93174418 404 1325 c 0
 404 1317.66666667 408.166666667 1310.16666667 416.5 1302.5 c 128
 424.833333333 1294.83333333 440.333333333 1284.66666667 463 1272 c 1
 453 1255 l 1
 419.666666667 1273 398.666666667 1282 390 1282 c 0
 364.576104614 1282 348.685424259 1244.05627278 341.5 1222.5 c 128
 333.482401343 1198.44720403 316.975051831 1157.98930793 296 1149 c 1
127 1024 m 0
 127 1157.27135439 86.5655601807 1266.78237784 12 1317 c 1
 38 1358 l 1
 60 1340.66666667 92.6666666667 1332 136 1332 c 0
 164 1332 187.666666667 1344.66666667 207 1370 c 1
 210.639633794 1497.3871828 369.104843347 1485.18513566 455 1530 c 1
 505.666666667 1552 542.666666667 1563 566 1563 c 0
 692.279941431 1563 853.702064223 1494.97633347 908 1423 c 1
 931.664169896 1334.25936289 1010 1307.84080189 1010 1194 c 0
 1010 1158.78518297 1032.1845005 1106 1067 1106 c 0
 1085.66666667 1106 1105.66666667 1110 1127 1118 c 1
 1135 1094 l 1
 1094.89360215 1080.63120072 1063 1073.94233847 1063 1038 c 0
 1063 1021.97361685 1072 973.012883861 1072 957 c 0
 1072 913.666666667 1057.16666667 855.166666667 1027.5 781.5 c 128
 997.833333333 707.833333333 980.666666667 656 976 626 c 0
 974.666666667 622 974 617 974 611 c 0
 974 578.925617674 1005.60431832 567.413391546 1039 552 c 1
 1029 531 l 1
 998.333333333 545 975.666666667 552 961 552 c 0
 950.333333333 552 941 546.666666667 933 536 c 1
 892.271786329 469.353832175 828.552472521 364.594744378 785 304 c 1
 774.333333333 296 769 286.333333333 769 275 c 0
 769 261 774.333333333 239.333333333 785 210 c 1
 765 202 l 1
 749.182018308 247.593006053 744.584219856 275 703 275 c 2
 697 275 l 2
 645.966765928 275 636.248786401 248.70245572 619 200 c 1
 589 212 l 1
 598.333333333 239.333333333 603 259.666666667 603 273 c 0
 603 313.5323837 565.633023175 328.404619091 528 331 c 128
 482.430821517 334.142701964 436.445419702 357.109160595 419 392 c 0
 413.417099792 403.165800417 393.540135517 456.403463887 386 466 c 0
 361.045544387 498.084300074 343.639439268 511.146478745 295 513.5 c 128
 274.333333333 514.5 258.666666667 516.333333333 248 519 c 1
 252 531 l 1
 292 529 l 1
 313.310990532 529 335 547.203702116 335 568 c 0
 335 595.769256898 271.783812957 665 245 665 c 0
 237.666666667 665 215 658 177 644 c 1
 169 660 l 1
 196.333333333 672.666666667 214.833333333 682.666666667 224.5 690 c 128
 234.166666667 697.333333333 239.666666667 705.333333333 241 714 c 1
 239 719.333333333 234 726 226 734 c 1
 189.333333333 762 169.666666667 810 167 878 c 0
 167 883.333333333 165 888.666666667 161 894 c 0
 138.333333333 916.666666667 127 960 127 1024 c 0
EndSplineSet
EndChar

StartChar: one
Encoding: 49 49 22
Width: 804
GlyphClass: 2
Flags: HW
LayerCount: 2
Fore
SplineSet
473 236 m 1
 434.182176304 236 314.201405061 211 274 211 c 0
 255.333333333 211 241.666666667 211.666666667 233 213 c 0
 227 213 217.666666667 195.333333333 205 160 c 1
 147 188 l 1
 157 210 162 226 162 236 c 0
 162 240 161.333333333 242 160 242 c 2
 145 252 l 1
 110 240 l 1
 96 285 l 1
 125 295 l 1
 127 293 l 1
 128.960082328 294.470061746 158 313 158 313 c 1
 205.482184617 346.237529232 206.919299957 347.339219347 262 358 c 1
 289.333333333 414.666666667 303 482.333333333 303 561 c 0
 303 593.666666667 301.666666667 640 299 700 c 1
 293.25118741 705.74881259 259.735690625 706.652861875 248 709 c 1
 250 772 l 1
 266.385657256 768.927689265 283.969088577 762.015455712 295 756.5 c 128
 298.333333333 754.833333333 300.333333333 754 301 754 c 2
 303 756 l 1
 295 791 l 1
 288.333333333 811 285 826.666666667 285 838 c 0
 285 888.666666667 288.333333333 950 295 1022 c 1
 254.60947133 1048.92701911 221.021984858 1076.66300252 162 1086.5 c 128
 144 1089.5 122 1092 96 1094 c 1
 96 1155 l 1
 165.133389763 1155 225 1151.13652726 225 1204 c 0
 225 1218 224.333333333 1230.33333333 223 1241 c 1
 299 1245 l 1
 299.985668059 1208.53028182 300.411173803 1187.64720655 323 1182 c 2
 364 1171 l 1
 362 1174 l 1
 401.333333333 1162.66666667 428.666666667 1157 444 1157 c 0
 474 1157 506.333333333 1160.33333333 541 1167 c 0
 557.910090358 1171.22752259 557.82537255 1191.67711111 563 1221 c 1
 631 1217 l 1
 626.333333333 1190.33333333 624 1174.33333333 624 1169 c 0
 624 1146.52507967 638.469751866 1143 663 1143 c 0
 675.666666667 1143 697.666666667 1145 729 1149 c 1
 731 1087 l 1
 687.288960448 1082.34988941 638.07821411 1073.96787926 620 1052.5 c 128
 606.505634967 1036.47544152 583.237461579 1024.51799385 555 1020 c 1
 531.666666667 937.333333333 520 828.666666667 520 694 c 0
 520 653.261053812 508 514.510978227 508 475 c 0
 508 466.333333333 509.333333333 448.666666667 512 422 c 1
 518 393 l 1
 518 399.666666667 520 403 524 403 c 0
 532.217156441 403 541.689006527 400.462198695 549 399 c 1
 545 362 l 1
 563.649701373 352.675149314 580.873803758 329.687927229 601 322.5 c 128
 623.889831469 314.32506019 648.703960787 307.882673202 678 303 c 1
 676 256 l 1
 646.666666667 256 625.333333333 253.333333333 612 248 c 1
 612 245.333333333 615.333333333 225.333333333 622 188 c 1
 563 186 l 1
 559.448034039 209.975770234 557.354760925 248.451586975 533.5 240.5 c 128
 528.5 238.833333333 525.333333333 238 524 238 c 1
 516 211 l 1
 471 223 l 1
 473 236 l 1
EndSplineSet
EndChar

StartChar: two
Encoding: 50 50 23
Width: 1109
GlyphClass: 2
Flags: HW
LayerCount: 2
Fore
SplineSet
973 420 m 1
 973 405.627693997 948 351.209679859 948 340 c 0
 948 328 959.666666667 311 983 289 c 1
 911 207 l 1
 892.333333333 221 876.666666667 229.666666667 864 233 c 1
 864 223.666666667 866 211 870 195 c 1
 799 178 l 1
 793.946547121 198.213811515 792.606109083 233 768 233 c 2
 711 233 l 2
 653.666666667 233 611.333333333 234 584 236 c 1
 358 236 l 1
 264 231 l 1
 251.333333333 218.333333333 244 200 242 176 c 1
 145 180 l 1
 145 193 l 2
 145 232.646836916 139.446228493 246 100 246 c 0
 92.2473957759 246 67.1499423353 244 59 244 c 1
 57 305 l 1
 102 311 l 1
 106 319 l 1
 115 315 l 1
 129 317.666666667 144 324.666666667 160 336 c 1
 160 334 l 1
 253.143649503 407.004482043 381.760344433 459.019363146 484.5 524 c 128
 557.294597084 570.041027215 614.535083188 611.109880036 654.5 684.5 c 128
 672.833333333 718.166666667 682 753.666666667 682 791 c 0
 682 802.333333333 678 818 670 838 c 1
 670 836 l 1
 657 879 l 1
 594 942 l 1
 508 948 l 2
 464 950.666666667 440.666666667 952.666666667 438 954 c 1
 418 936 l 1
 380 903.333333333 354 882.666666667 340 874 c 1
 308.295456743 802.664777672 252 737.041455968 252 637 c 1
 174 637 l 1
 174 640 174 640 174 645 c 0
 174 691.390529112 173.573744638 735 127 735 c 2
 98 735 l 1
 96 813 l 1
 143.326327721 818.116359754 159.627376514 830.068441285 174 866 c 0
 248.666666667 1058.66666667 386 1155 586 1155 c 0
 638.666666667 1155 697.666666667 1128.16666667 763 1074.5 c 128
 828.333333333 1020.83333333 865.333333333 973.333333333 874 932 c 1
 874 928 l 1
 874 928 874 928 873 928 c 1
 882.266893476 907.149489679 902.67069613 905 936 905 c 1
 936 834 l 1
 905.752719057 834 883.108123312 835.432493247 879 819 c 0
 867.666666667 780.333333333 861.333333333 751.666666667 860 733 c 1
 863.333333333 733 874.333333333 730.333333333 893 725 c 1
 883 678 l 1
 859.666666667 682.666666667 848 685.333333333 848 686 c 1
 798.605675759 618.644103307 743.525749118 581.440532706 674 532 c 1
 602 483 l 1
 712.666666667 480.333333333 789.666666667 475 833 467 c 1
 867.666666667 483.666666667 898 502.666666667 924 524 c 1
 876 578 l 1
 911 610 l 1
 931 584 948 566.333333333 962 557 c 128
 976 547.666666667 991.333333333 543 1008 543 c 0
 1013.33333333 543 1025.33333333 544.333333333 1044 547 c 1
 1057 455 l 1
 1015.46784652 449.808480814 984.878260057 447.150308703 973 420 c 1
EndSplineSet
EndChar

StartChar: three
Encoding: 51 51 24
Width: 816
GlyphClass: 2
Flags: HW
LayerCount: 2
Fore
SplineSet
448 567 m 2
 448 562.379093209 446 556.158508095 446 553 c 0
 446 551.666666667 446.666666667 549.666666667 448 547 c 1
 526.217761783 491.130170155 612 378.871765867 612 254 c 0
 612 204.666666667 586.5 133.5 535.5 40.5 c 128
 484.5 -52.5 437.333333333 -111.666666667 394 -137 c 0
 376 -147.666666667 361.333333333 -149.666666667 350 -143 c 1
 116 -50 l 1
 146 22 l 1
 338 -44 l 1
 393 21 l 1
 409 37 421.833333333 64.6666666667 431.5 104 c 128
 441.166666667 143.333333333 450 171 458 187 c 1
 407.766340315 322.630881149 357.86631306 397.01064158 213 430 c 1
 194.333333333 430 162.666666667 422 118 406 c 1
 116 463 l 1
 166.666666667 478.333333333 192 490 192 498 c 0
 192 499.333333333 184 516.333333333 168 549 c 1
 223 578 l 1
 237 551.333333333 246 536.333333333 250 533 c 1
 273.473427497 573.426458468 293.164822585 591.647884076 328 618.5 c 128
 344 630.833333333 357.333333333 642.333333333 368 653 c 1
 365.333333333 650.333333333 363.333333333 649 362 649 c 0
 358.666666667 649 353.333333333 652 346 658 c 1
 372 698 l 1
 397 680 l 1
 397 682 l 1
 447.666666667 734 477 813.333333333 485 920 c 1
 481.666666667 924.666666667 478.333333333 934 475 948 c 1
 448 1006 l 1
 433.205994684 1011.91760213 367.341903784 1041.79742886 350 1047 c 1
 331.333333333 1039.66666667 312.333333333 1034 293 1030 c 1
 293 998 l 1
 245 998 l 1
 245 1002 l 1
 190.429280753 967.893300471 142.164245568 937.733783875 102 887 c 1
 51 918 l 1
 95.6666666667 975.333333333 118 1018.33333333 118 1047 c 0
 118 1059 103.666666667 1074 75 1092 c 1
 112 1159 l 1
 137.333333333 1141.66666667 156 1133 168 1133 c 0
 173.333333333 1133 178 1135 182 1139 c 0
 242 1191 291 1217 329 1217 c 2
 465 1217 l 2
 504.333333333 1217 551.333333333 1188.33333333 606 1131 c 0
 612 1125 618 1122 624 1122 c 128
 630 1122 647.333333333 1128.33333333 676 1141 c 1
 710 1071 l 1
 680 1055 665 1041.33333333 665 1030 c 0
 665 1017.03556867 674 976.24170382 674 963 c 0
 674 823.584011518 607.296823918 735.770782991 536.5 666 c 128
 513.5 643.333333333 484 617.333333333 448 588 c 1
 448 567 l 2
EndSplineSet
EndChar

StartChar: four
Encoding: 52 52 25
Width: 1171
GlyphClass: 2
Flags: HW
LayerCount: 2
Fore
SplineSet
520 584 m 0
 520 628 509 692 487 776 c 1
 451.282544154 730.883213668 334.734220732 600.330012927 295 550 c 128
 265 512 245.666666667 481.666666667 237 459 c 1
 260 434 l 1
 456 434 l 1
 491 453 l 1
 504 502 l 1
 514.666666667 548 520 575.333333333 520 584 c 0
1140 287 m 1
 1144.06015784 287 1157.1875895 285 1161 285 c 0
 1161.91088797 285 1168.09127192 287 1169 287 c 2
 1149 260 l 1
 1137.66666667 267.333333333 1132 271.333333333 1132 272 c 2
 1112 236 l 1
 1114 236 l 1
 1101.33333333 209.333333333 1095 177.666666667 1095 141 c 2
 1095 121 l 1
 1032 121 l 1
 1028.66666667 174.333333333 1020.33333333 212.666666667 1007 236 c 1
 1007 233 l 1
 1003 240 l 1
 712 240 l 1
 708 236 l 1
 708 -76 l 2
 708 -133.719019383 706.533909325 -180.094082123 733 -214.5 c 128
 743 -227.5 756 -240 772 -252 c 1
 731 -307 l 1
 698.333333333 -281 670.333333333 -268 647 -268 c 2
 639 -268 l 1
 633.666666667 -269.333333333 622.666666667 -270 606 -270 c 1
 575 -272 l 2
 567.666666667 -272 551.333333333 -290 526 -326 c 1
 483 -285 l 1
 503.666666667 -254.333333333 514 -235.666666667 514 -229 c 1
 495 -174 l 1
 495 -194.787228129 492.107096762 -193 469 -193 c 1
 471 -145 l 1
 456 -141 l 1
 459 -72 l 1
 478.333333333 -77.3333333333 492.666666667 -80 502 -80 c 128
 511.333333333 -80 516 -36.3333333333 516 51 c 2
 516 115 l 2
 516 131.555077742 514 179.193824834 514 195 c 0
 514 202.290867982 516 225.509030389 516 233 c 1
 502 242 l 1
 178 242 l 2
 159.269885821 242 79.9696384137 266 59 266 c 0
 39.6666666667 266 15.6666666667 262 -13 254 c 1
 -33 315 l 1
 13.6666666667 327.666666667 46.3333333333 347 65 373 c 2
 108 434 l 1
 218 592.666666667 290.333333333 686.333333333 325 715 c 1
 323 715 l 1
 334.333333333 739.666666667 373.666666667 793.833333333 441 877.5 c 128
 508.333333333 961.166666667 568.666666667 1032.66666667 622 1092 c 0
 640.666666667 1111.33333333 655 1146 665 1196 c 1
 733 1192 l 1
 723.666666667 1157.33333333 719 1129.33333333 719 1108 c 0
 719 1084.43612744 739 1030.05682403 739 1008 c 0
 739 956.276251767 715 769.560078418 715 719 c 2
 715 512 l 2
 715 494.666666667 722.333333333 473.666666667 737 449 c 1
 743.795912037 449 770.322083233 451 778 451 c 0
 811.64697645 451 1087.64951541 434 1118 434 c 2
 1138 434 l 2
 1140.66666667 434.666666667 1156 443.666666667 1184 461 c 1
 1214 424 l 1
 1171.30733132 387.711231622 1159.56604635 345.698139041 1140 287 c 1
1169 287 m 1
 1177 299 l 1
 1181 291 l 1
 1181 288.333333333 1177 287 1169 287 c 1
EndSplineSet
EndChar

StartChar: five
Encoding: 53 53 26
Width: 931
GlyphClass: 2
Flags: HW
LayerCount: 2
Fore
SplineSet
524 795 m 1
 563.343589586 724.595681793 614 594.945189358 614 496 c 0
 614 468 597.833333333 421.5 565.5 356.5 c 128
 533.166666667 291.5 517 253.333333333 517 242 c 0
 517 234 532 221.666666667 562 205 c 1
 524 145 l 1
 499.333333333 160.333333333 483.333333333 168 476 168 c 0
 472 168 468.666666667 166.666666667 466 164 c 0
 367.333333333 62.6666666667 265 12 159 12 c 1
 123 17.3333333333 95.6666666667 20 77 20 c 0
 53.6666666667 20 34.6666666667 19.3333333333 20 18 c 1
 18 76 l 1
 163.533612703 85.3892653357 287.490381688 200.623982872 350 307 c 128
 388 371.666666667 407 436 407 500 c 0
 407 587.756332921 316.902470391 677.076250421 262 720 c 128
 225.333333333 748.666666667 185 776.333333333 141 803 c 1
 141 801 l 1
 127.666666667 809 110.333333333 813 89 813 c 0
 73.6666666667 813 54.6666666667 811 32 807 c 1
 30 874 l 1
 92.6666666667 883.333333333 132.333333333 904.666666667 149 938 c 1
 163 956 l 1
 203.33408819 1004.40090583 321.271719842 1073.57926205 373 1113.5 c 128
 403.666666667 1137.16666667 419 1160 419 1182 c 0
 419 1198 417.666666667 1212.33333333 415 1225 c 1
 485 1243 l 1
 493.761563229 1204.05971898 497.692637414 1178.54863002 526 1171 c 1
 599.333333333 1147 664 1135 720 1135 c 2
 743 1135 l 1
 755 1147 l 1
 757.481766148 1151.9635323 775.186820329 1160.89524429 780.5 1165.5 c 128
 796.813540093 1179.63840141 806.384956567 1218.11726112 812 1249 c 1
 859 1245 l 1
 857.666666667 1227.66666667 857 1215.33333333 857 1208 c 1
 859 1204 l 1
 864.018618843 1204 887.68398787 1206 894 1206 c 1
 896 1159 l 1
 868 1155 l 2
 863.333333333 1155 861 1156.33333333 861 1159 c 2
 829 1071 l 2
 826.333333333 1063 825 1058.33333333 825 1057 c 0
 825 1043.66666667 838.666666667 1028.66666667 866 1012 c 1
 818 948 l 1
 796.666666667 960.666666667 781.666666667 967 773 967 c 0
 767 967 759 962.666666667 749 954 c 1
 749 956 l 1
 729.666666667 937.333333333 718.666666667 926 716 922 c 1
 732 889 l 1
 692 868 l 1
 688.666666667 870 687 872 687 874 c 1
 653 874 l 1
 653 888.957128968 655.433245348 897 669 897 c 1
 628.333333333 903.666666667 533.333333333 926.333333333 384 965 c 1
 360 946 l 1
 388 922 l 2
 407.333333333 906.666666667 423.666666667 894.166666667 437 884.5 c 128
 450.333333333 874.833333333 459.333333333 870 464 870 c 0
 470.666666667 870 487 881 513 903 c 1
 556 846 l 1
 534.666666667 827.333333333 524 813 524 803 c 0
 524 799 524.666666667 796.333333333 526 795 c 1
 524 795 l 1
EndSplineSet
EndChar

StartChar: six
Encoding: 54 54 27
Width: 1100
GlyphClass: 2
Flags: HW
LayerCount: 2
Fore
SplineSet
648 784 m 1
 602.593613145 869.767619616 567.418224719 926.598241841 486 977 c 1
 472 969 445.333333333 960 406 950 c 1
 372 899.333333333 342.666666667 858.333333333 318 827 c 1
 312 770 l 2
 310.131010944 758.786065664 310.044011676 735.220058382 308 725 c 1
 310 725 l 1
 300 680 l 1
 302.664992306 619.593507723 331.508455067 476.049154493 382 471 c 1
 376 424 l 1
 415.333333333 390.666666667 451.333333333 364.666666667 484 346 c 1
 536 360 571.666666667 375.5 591 392.5 c 128
 610.333333333 409.5 632.666666667 443.333333333 658 494 c 1
 658 504 l 2
 658 551.788906547 668.167142699 693.460356471 677 731 c 1
 648 786 l 1
 648 784 l 1
464 1067 m 1
 732.835335437 1059.05412802 900 928.211071732 900 651 c 0
 900 516.732011025 800.962632175 363.99924342 720 303 c 0
 677.239392706 271.325476078 649.11190031 259.9507175 586.5 252 c 128
 565.5 249.333333333 547.666666667 246.666666667 533 244 c 1
 550.729327395 244 548 239.01972242 548 217 c 1
 500 217 l 1
 500 218.761370558 498 225.546828346 498 227 c 0
 498 235 500.333333333 240 505 242 c 1
 488 240 l 1
 492 236 l 1
 457 203 l 1
 433 231 l 1
 209.122760216 272.172825707 85 447.811791295 85 707 c 0
 85 956.940105939 258.527384998 1176.00207827 415 1295.5 c 128
 512.333333333 1369.83333333 612.333333333 1416.66666667 715 1436 c 1
 703 1448 l 1
 738 1477 l 1
 761 1454 l 1
 830.823355408 1477.2744518 913.308910362 1480.62309896 926 1561 c 1
 1037 1542 l 1
 1035.66666667 1536.66666667 1035 1528.66666667 1035 1518 c 0
 1035 1453.91108088 1070.94646573 1452.63533574 1137 1448 c 1
 1137 1386 l 1
 1113 1386 l 2
 1070.33333333 1386 1036.66666667 1380.66666667 1012 1370 c 1
 881.951908215 1306.2028229 722.086094486 1267.15464567 596 1199 c 128
 546.666666667 1172.33333333 503.333333333 1142.66666667 466 1110 c 1
 466 1101.61716873 464 1081.37797152 464 1073 c 2
 464 1067 l 1
EndSplineSet
EndChar

StartChar: seven
Encoding: 55 55 28
Width: 996
GlyphClass: 2
Flags: HW
LayerCount: 2
Fore
SplineSet
344 -121 m 0
 344 -128.035020214 346 -151.623686582 346 -160 c 1
 293 -160 l 1
 289 -120 285.666666667 -98.6666666667 283 -96 c 1
 297 -100 l 1
 281 -94 l 1
 277 -94 l 2
 265.666666667 -94 242.333333333 -99.6666666667 207 -111 c 1
 205 -51 l 1
 243.666666667 -42.3333333333 264 -33.6666666667 266 -25 c 1
 301.272900129 52.7310206545 618.563869125 783.387644768 649 866 c 1
 642.508129943 874.655826742 614.484159262 906.354454318 608 915 c 1
 385 915 l 1
 385 913 l 2
 385 910.333333333 379 899.666666667 367 881 c 1
 328 903 l 1
 338 922 l 1
 242 924 l 1
 186.666666667 924 132.666666667 907.333333333 80 874 c 1
 80 872 l 2
 80 863.043301916 77.096339156 848.96339156 76 838 c 1
 29 844 l 1
 30.3996998387 852.398199032 33 865.75175297 33 874 c 1
 24.2316607013 874 13.272475926 871.324639418 4 870 c 1
 -6 918 l 1
 14.6666666667 922 26.3333333333 924 29 924 c 1
 51 1000.66666667 87.6666666667 1068.66666667 139 1128 c 0
 151.666666667 1142.66666667 158 1158.66666667 158 1176 c 0
 158 1191.33333333 155.333333333 1208.33333333 150 1227 c 1
 227 1245 l 1
 239.666666667 1201 258.333333333 1175.66666667 283 1169 c 1
 281 1169 l 2
 281.975730086 1168.02426991 321.290882474 1151 324 1151 c 1
 324 1153 l 1
 361.333333333 1157 402.333333333 1159 447 1159 c 0
 486.485095508 1159 615.551622564 1155 655 1155 c 0
 692.333333333 1155 720.333333333 1155.66666667 739 1157 c 1
 739 1171 l 1
 815 1171 878.666666667 1188.33333333 930 1223 c 1
 977 1149 l 1
 901.964435503 1098.97629034 865.359262068 1020.24052982 826 923 c 128
 769.535134816 783.498568369 757.388490611 778.089996672 691 626 c 128
 654.333333333 542 624.666666667 480 602 440 c 1
 604 440 l 1
 561 362 l 1
 561 365 l 1
 538.333333333 323 513.666666667 263.5 487 186.5 c 128
 460.333333333 109.5 444.666666667 65.6666666667 440 55 c 1
 440 57 l 1
 434 37 l 1
 404.950938013 -33.5477219683 399.539496539 -44.7554615055 348 -92 c 1
 348 -90 l 1
 345.333333333 -92.6666666667 344 -103 344 -121 c 0
EndSplineSet
EndChar

StartChar: eight
Encoding: 56 56 29
Width: 1093
GlyphClass: 2
Flags: HW
LayerCount: 2
Fore
SplineSet
467 774 m 1
 439 784 l 1
 406.333333333 734.666666667 381 665 363 575 c 1
 380.504407215 509.358472943 384.697182105 487.549498317 417.5 443.5 c 128
 429.166666667 427.833333333 440.333333333 411.666666667 451 395 c 1
 463 391 l 1
 461 393 l 1
 525 375.666666667 561.333333333 367 570 367 c 0
 588 367 606.333333333 376.333333333 625 395 c 1
 623 395 l 1
 663 437 689.333333333 470.666666667 702 496 c 128
 714.666666667 521.333333333 721 558.666666667 721 608 c 0
 721 687.065838563 655.120175024 736.311871649 608.5 770.5 c 128
 593.5 781.5 573 795.666666667 547 813 c 1
 549 813 l 1
 532.333333333 821.666666667 516 832.666666667 500 846 c 1
 495.161083056 842.77405537 469.599837314 826.833197762 465 823 c 1
 482 817 l 1
 467 774 l 1
392 1298 m 1
 418 1194 l 1
 416 1196 l 1
 447.46198239 1146.03096915 536.260992956 1032.51112264 603 1026 c 1
 619 1044 l 1
 668.941373535 1101.82685357 673.311768628 1103.81777303 712.5 1163 c 128
 741.50803704 1206.80805594 756 1246.96888532 756 1313 c 0
 756 1348.33333333 750.666666667 1378.33333333 740 1403 c 1
 727.333333333 1403 715.666666667 1403.66666667 705 1405 c 1
 709 1448 l 1
 659 1505.33333333 608.333333333 1534 557 1534 c 0
 485.244018092 1534 433.364830701 1454.70953985 412.5 1398 c 128
 399.5 1362.66666667 392.666666667 1329.33333333 392 1298 c 1
670 1647 m 2
 710.425571016 1647 847.704994833 1553.971955 875 1534 c 1
 904 1548 l 1
 924 1505 l 1
 934.666666667 1507 949.666666667 1512 969 1520 c 1
 994 1454 l 1
 962.666666667 1439.33333333 947 1422.33333333 947 1403 c 1
 952.333333333 1367 955 1335 955 1307 c 0
 955 1178.04982992 873.078265018 1096.79859671 801 1038.5 c 128
 778.333333333 1020.16666667 749 998.333333333 713 973 c 1
 714.333333333 973 716.333333333 970.333333333 719 965 c 1
 756 924 l 2
 809.333333333 865.333333333 844 824.333333333 860 801 c 0
 898 743 916.666666667 680.666666667 916 614 c 0
 916 574.666666667 909.666666667 534 897 492 c 1
 899 492 l 2
 904.066057722 492 917.064458737 480.290360842 922 477 c 1
 895 442 l 1
 881 451 l 1
 839.761326163 342.12990107 775.560002364 273.56505777 648.5 257.5 c 128
 619.5 253.833333333 582.333333333 252 537 252 c 2
 445 252 l 2
 346.495189087 252 248.902190565 362.365716236 205.5 432 c 128
 175.166666667 480.666666667 160 523 160 559 c 0
 160 695.210738437 185.80672758 777.084036548 266.5 825.5 c 128
 306.229552723 849.337731634 376.528353757 887.105340369 412 918 c 1
 408 920 l 1
 408 918 l 1
 291.855395031 1020.7433044 172 1115.09933066 172 1331 c 0
 172 1493.95481521 297.825898733 1585.47047145 423.5 1625.5 c 128
 468.5 1639.83333333 513 1647 557 1647 c 2
 670 1647 l 2
EndSplineSet
EndChar

StartChar: nine
Encoding: 57 57 30
Width: 1113
GlyphClass: 2
Flags: HW
LayerCount: 2
Fore
SplineSet
449 965 m 1
 449 967 l 1
 414.333333333 913 395 855 391 793 c 1
 391.666666667 793 400 784.666666667 416 768 c 1
 397 750 l 1
 410 686 l 1
 419.041293408 658.876119777 419.924701083 616.169422563 430 593.5 c 128
 444.109019248 561.754706693 453.727006563 528.067057041 471.5 502 c 128
 483.057026167 485.049694955 495.906133287 465.442844499 510 449 c 1
 602 418 l 1
 625 426 l 1
 623 424 l 1
 670 444 l 1
 703.487711393 472.868716719 748 599.724406897 748 662 c 2
 748 788 l 2
 748 819.333333333 732.666666667 863 702 919 c 128
 671.333333333 975 643 1006.66666667 617 1014 c 1
 541 1040 l 1
 512.950573399 1040 485.056568711 1019.13535767 473.5 1003.5 c 128
 467.833333333 995.833333333 459.666666667 983 449 965 c 1
211 -131 m 1
 121.903960789 -131 96.7233001802 -125.973911621 84 -188 c 1
 -18 -166 l 1
 -15.3333333333 -140.666666667 -14 -127 -14 -125 c 0
 -14 -110.333333333 -21 -99.3333333333 -35 -92 c 1
 -39 -86 l 1
 -37.1198760546 -91.6403718363 -75.6042940793 -92 -110 -92 c 1
 12.9694265499 -14.9495365289 122.777380525 29.6802346931 251.5 72 c 128
 316.543221396 93.3840727877 371.172088866 113.186525659 435 144 c 128
 514.130702093 182.201028597 579.314845242 238.111163271 623 313 c 1
 598 313 l 2
 554 313 517.333333333 316 488 322 c 1
 482.666666667 317.333333333 477.666666667 309 473 297 c 1
 430 317 l 1
 435.176286102 329.078000905 441.328638251 326 465 326 c 1
 378.519951957 351.518702701 310.024345528 373.385676928 272.5 439.5 c 128
 265.5 451.833333333 255.333333333 472 242 500 c 1
 242 498 l 2
 241.333333333 498 230.333333333 517.666666667 209 557 c 1
 211 557 l 1
 208.333333333 559.666666667 205.666666667 561 203 561 c 0
 194.333333333 561 179.333333333 558.333333333 158 553 c 1
 129 612 l 1
 146 616 l 1
 129 647 l 1
 155 662.333333333 168 670.666666667 168 672 c 0
 180 706 186 744 186 786 c 2
 186 834 l 2
 186 914.436814591 208.809360179 949.852168233 252 1006 c 0
 260 1016 264 1025.33333333 264 1034 c 0
 264 1045.33333333 257.333333333 1062.33333333 244 1085 c 1
 313 1130 l 1
 331.666666667 1103.33333333 347.666666667 1090 361 1090 c 0
 365 1090 371 1091.33333333 379 1094 c 0
 420.11856951 1105.74816272 521.747986008 1142.65060075 566 1155 c 128
 594.666666667 1163 617.666666667 1167 635 1167 c 0
 677.734986537 1167 742.469196129 1136.77670924 782 1130 c 1
 778 1116 l 1
 896.981595872 1047.67393504 991 937.386695508 991 762 c 0
 991 514.982546692 925.65324267 314.07641488 789 199 c 1
 647.617881404 81.5616272956 412.833619659 -76.2760951088 211 -119 c 1
 211 -131 l 1
EndSplineSet
EndChar

StartChar: colon
Encoding: 58 58 31
Width: 640
GlyphClass: 2
Flags: HW
LayerCount: 2
Fore
SplineSet
395 428 m 1
 405.814138468 410.427024989 415.652984559 403 444 403 c 128
 458 403 469.666666667 404 479 406 c 1
 481 334 l 1
 470.333333333 331.333333333 463.666666667 330 461 330 c 1
 475 295 l 1
 427 277 395.5 260 380.5 244 c 128
 365.5 228 358 206 358 178 c 1
 233 174 l 1
 231 202.666666667 223 223.333333333 209 236 c 1
 199.666666667 233.333333333 186 223 168 205 c 1
 117 258 l 1
 139.666666667 281.333333333 151 300.333333333 151 315 c 0
 151 322.333333333 150.333333333 328 149 332 c 1
 151 330 l 1
 149 334 l 1
 137 322 l 1
 106 358 l 1
 128.666666667 376.666666667 144 391.333333333 152 402 c 128
 160 412.666666667 164 426 164 442 c 0
 164 456 155 475.333333333 137 500 c 1
 196 543 l 1
 210.666666667 524.333333333 221.833333333 511.833333333 229.5 505.5 c 128
 237.166666667 499.166666667 245.333333333 496 254 496 c 0
 259.897539222 496 285.389139178 502 291 502 c 0
 294.366331957 502 305.636907873 500 309 500 c 1
 323.14092086 514.14092086 333.907718738 526.338507791 348 551 c 1
 405 522 l 1
 390.333333333 498 383 477.666666667 383 461 c 0
 383 447.666666667 387 436 395 426 c 1
 395 428 l 1
389 825 m 0
 389 822.401503003 391 811.84020462 391 809 c 1
 293 805 l 1
 289 833 275.333333333 854.666666667 252 870 c 1
 242 865.333333333 227.666666667 852.333333333 209 831 c 1
 153 883 l 1
 175 904.333333333 186 922.666666667 186 938 c 0
 186 940.666666667 184.666666667 946 182 954 c 1
 184 954 l 1
 176 963 l 1
 112 932 l 1
 94 975 l 1
 334 1098 l 1
 280 1085 l 1
 272 1130 l 1
 288.666666667 1134.66666667 297.666666667 1157.33333333 299 1198 c 1
 385 1198 l 1
 385 1185.33333333 386.333333333 1172.33333333 389 1159 c 1
 398.382787093 1166.03709032 407.263048176 1175.26304818 416 1184 c 1
 438 1167 l 1
 445.193993242 1174.19399324 453.065847572 1186.39508543 455 1198 c 1
 502 1159 l 1
 473 1137 l 1
 481 1130 l 1
 459 1101.33333333 448 1081.66666667 448 1071 c 2
 448 1067 l 1
 457.333333333 1056.33333333 474 1051 498 1051 c 2
 510 1051 l 1
 512 958 l 1
 496.666666667 958 481 955.333333333 465 950 c 1
 472.333333333 935.333333333 483.333333333 922.333333333 498 911 c 1
 438 840 l 1
 422.666666667 851.333333333 408.333333333 859.333333333 395 864 c 1
 391 852 389 839 389 825 c 0
EndSplineSet
EndChar

StartChar: semicolon
Encoding: 59 59 32
Width: 627
GlyphClass: 2
Flags: HW
LayerCount: 2
Fore
SplineSet
335 207 m 1
 325.6949469 221.38053661 300.244522842 258 280 258 c 0
 266.666666667 258 249 245.666666667 227 221 c 1
 171 274 l 1
 188 291 l 1
 145 309 l 1
 164.333333333 354.333333333 174 388 174 410 c 0
 174 428 163.666666667 448.333333333 143 471 c 1
 231 549 l 1
 253 523.666666667 274 510 294 508 c 1
 301.333333333 516 309 535 317 565 c 1
 391 551 l 1
 386.333333333 529 384 514.666666667 384 508 c 0
 384 488.666666667 391.666666667 473.666666667 407 463 c 1
 405 463 l 1
 471.666666667 409.666666667 505 345.333333333 505 270 c 0
 505 245.333333333 503 223 499 203 c 1
 499 159.666666667 476.166666667 105.166666667 430.5 39.5 c 128
 384.833333333 -26.1666666667 341.666666667 -68 301 -86 c 1
 270.333333333 -94.6666666667 247 -100 231 -102 c 2
 200 -106 l 1
 183.333333333 -114.666666667 167.666666667 -124.333333333 153 -135 c 1
 128 -94 l 1
 133 -90 l 1
 126 -76 l 1
 149 -66 l 1
 147 -66 l 1
 226.073667368 -31.1539770922 318.7781217 107.173056617 335 207 c 1
366 823 m 0
 366 820.401503003 368 809.84020462 368 807 c 1
 251 795 l 1
 251 818.333333333 246.333333333 836.666666667 237 850 c 1
 226.333333333 839.333333333 216.666666667 827.666666667 208 815 c 1
 147 858 l 1
 165 884 174 902.333333333 174 913 c 1
 167 934 l 2
 167 932.666666667 165.666666667 932 163 932 c 0
 161 932 149.333333333 934 128 938 c 1
 137 985 l 1
 161 979 l 1
 157.03258293 1006.77191949 134.251936591 1016.93230048 106 1032 c 1
 141 1098 l 1
 167 1084 186.666666667 1077 200 1077 c 0
 204.666666667 1077 212.333333333 1079.66666667 223 1085 c 1
 221 1085 l 1
 223 1087 l 1
 180 1098 l 1
 192 1145 l 1
 241.333333333 1131 277.666666667 1124 301 1124 c 0
 321.666666667 1124 344 1137 368 1163 c 1
 458 1085 l 1
 434.666666667 1061.66666667 423 1042 423 1026 c 1
 435 1023.33333333 451.666666667 1022 473 1022 c 1
 473 948 l 1
 458 948 l 1
 464 932 l 1
 426.666666667 911.333333333 401 893.333333333 387 878 c 128
 373 862.666666667 366 844.333333333 366 823 c 0
188 291 m 1
 198.666666667 303.666666667 204 314.666666667 204 324 c 2
 204 330 l 1
 188 291 l 1
EndSplineSet
EndChar

StartChar: less
Encoding: 60 60 33
Width: 953
GlyphClass: 2
Flags: HW
LayerCount: 2
Fore
SplineSet
916 178 m 2
 916.251889122 178 954.74052362 180 955 180 c 2
 957 117 l 1
 911.666666667 112.333333333 884.333333333 104 875 92 c 2
 843 53 l 1
 843 49 l 1
 838.333333333 34.3333333333 828 27 812 27 c 0
 782.666666667 27 664.166666667 109.166666667 456.5 273.5 c 128
 248.833333333 437.833333333 111.333333333 553.666666667 44 621 c 1
 21 604 l 1
 -9 639 l 1
 -17 641 l 1
 -15 686 l 1
 -3 686 l 2
 10.3333333333 686 17 682.666666667 17 676 c 1
 21 686 l 1
 17.6666666667 686 5.66666666667 693.666666667 -15 709 c 1
 -11 774 l 1
 52 725 l 1
 52 726.333333333 52.6666666667 727.666666667 54 729 c 0
 86 752.333333333 138.666666667 796.333333333 212 861 c 128
 285.333333333 925.666666667 341.333333333 971 380 997 c 1
 404 1012 l 1
 558 1116 667.333333333 1195.66666667 732 1251 c 1
 732 1253 l 2
 732 1259 726.666666667 1280.33333333 716 1317 c 1
 777 1321 l 1
 787.666666667 1289 796 1272 802 1270 c 1
 820 1273.33333333 849.333333333 1285.66666667 890 1307 c 1
 892 1249 l 1
 856.666666667 1227.66666667 837.333333333 1214.66666667 834 1210 c 2
 814 1174 l 1
 806.666666667 1164 764.833333333 1130 688.5 1072 c 128
 612.166666667 1014 530.666666667 952.833333333 444 888.5 c 128
 357.333333333 824.166666667 305.333333333 784.666666667 288 770 c 1
 271 754 l 1
 259.149056261 745.111792196 245.104439017 724.034813006 230 719 c 1
 530 479 742.333333333 303.666666667 867 193 c 0
 879 183 892 178 906 178 c 2
 916 178 l 2
EndSplineSet
EndChar

StartChar: equal
Encoding: 61 61 34
Width: 925
GlyphClass: 2
Flags: HW
LayerCount: 2
Fore
SplineSet
696 639 m 1
 693.333333333 640.333333333 692 641.666666667 692 643 c 2
 692 629 l 1
 696 639 l 1
739 559 m 1
 723 547 l 1
 725 545 l 1
 739 559 l 1
534 735 m 2
 500.970348478 735 380.994013394 739 348 739 c 0
 320.666666667 739 297.333333333 734.333333333 278 725 c 1
 293.111685573 677.775982583 315.292952517 655.619790002 377.5 662 c 128
 390.5 663.333333333 399.666666667 664 405 664 c 2
 546 664 l 2
 588.666666667 664 620.333333333 679 641 709 c 1
 626.333333333 726.333333333 609 735 589 735 c 2
 534 735 l 2
174 475 m 1
 179.384637795 484.871835958 192 497.02868063 192 506 c 1
 176 543 l 1
 176 582 l 2
 176 588 170.333333333 594 159 600 c 1
 137 600 l 1
 144.333333333 603.333333333 148.333333333 606 149 608 c 1
 122 623 l 1
 151 678 l 1
 181 659.333333333 199.333333333 649 206 647 c 1
 214.666666667 653 219 658 219 662 c 0
 219 668.666666667 217.666666667 676 215 684 c 1
 135 741 l 1
 143.666666667 751.666666667 151 764.666666667 157 780 c 1
 149 786 l 1
 161 801 l 1
 159 821 148.333333333 851 129 891 c 1
 153 940 l 1
 189.666666667 919.333333333 209 909 211 909 c 0
 212.333333333 909 215.666666667 912 221 918 c 1
 223 918 l 2
 224.333333333 918 225 918.666666667 225 920 c 0
 225 926 220.333333333 946.333333333 211 981 c 1
 274 985 l 1
 280.340237496 959.639050016 282.728257614 938 299 938 c 2
 491 938 l 2
 518.489089958 938 607.356243833 930 634 930 c 2
 651 930 l 1
 652.333333333 932.666666667 660.333333333 947 675 973 c 1
 737 971 l 1
 704 911 l 1
 712.46714954 915.23357477 745.592055008 923.657871542 755 928 c 1
 759 870 l 1
 729 858.666666667 714 852.666666667 714 852 c 0
 714 841.507274615 718 830.763043966 718 817 c 1
 716 805 l 1
 721 805 l 2
 727 805 741.333333333 801.666666667 764 795 c 1
 761 745 l 1
 740.637578803 749.791157929 723.133730763 752.433134619 708 760 c 1
 710 758 l 1
 708 758 l 1
 710.666666667 745.333333333 717.666666667 729 729 709 c 1
 710 700 l 1
 745 684 l 1
 727 647 l 1
 759 655 l 1
 764 594 l 1
 737 590 l 1
 749 567 l 1
 747 565 l 1
 751 561 l 1
 733 543 l 1
 761 530 l 1
 757 467 l 1
 739.904935599 474.770483819 717.439875798 483.186708067 700 489 c 1
 700 485.666666667 703.333333333 470 710 442 c 1
 645 418 l 1
 633.053572152 459.812497469 603.532461557 489 552 489 c 128
 542.848229181 489 509.507470163 487 501 487 c 2
 450 487 l 2
 416.711108765 487 273.416097874 481 239 481 c 2
 233 481 l 1
 233 479 l 2
 233 475.666666667 226.333333333 465.666666667 213 449 c 1
 174 475 l 1
EndSplineSet
EndChar

StartChar: greater
Encoding: 62 62 35
Width: 963
GlyphClass: 2
Flags: HW
LayerCount: 2
Fore
SplineSet
140 1266 m 1
 135.466837248 1277.33290688 115.798958343 1312.57366069 110 1325 c 1
 157 1368 l 1
 159 1358 165.666666667 1343 177 1323 c 1
 188 1323 l 1
 188 1307 l 1
 198 1291 206.666666667 1280.66666667 214 1276 c 1
 222 1294 l 1
 265 1278 l 1
 253 1247 l 1
 269.666666667 1233.66666667 345.833333333 1177.83333333 481.5 1079.5 c 128
 617.166666667 981.166666667 731.5 893.833333333 824.5 817.5 c 128
 917.5 741.166666667 964 690.666666667 964 666 c 128
 964 641.333333333 928.5 599.833333333 857.5 541.5 c 128
 786.5 483.166666667 697.5 415.5 590.5 338.5 c 128
 483.5 261.5 411.333333333 206.666666667 374 174 c 1
 374 131 l 1
 366 166 l 1
 352 155.333333333 341 145 333 135 c 1
 345 115 l 1
 271.786791474 77.3474927578 228.800005989 49.8000359334 216 -27 c 1
 97 -6 l 1
 97 23 l 2
 97 25.0329986233 99 34.9702412066 99 37 c 0
 99 73.3576023747 95.4853159489 92.5158628515 63 98.5 c 128
 50.3333333333 100.833333333 33 102 11 102 c 1
 11 172 l 1
 63.5064589586 174.28288952 93.4699783038 176.469978304 118 201 c 0
 190.666666667 271.666666667 302.5 365 453.5 481 c 128
 604.5 597 703.666666667 675.666666667 751 717 c 1
 717 751 570 862.333333333 310 1051 c 1
 274 1079 l 2
 242 1103.66666667 214 1117.33333333 190 1120 c 1
 177.333333333 1120 160 1113.33333333 138 1100 c 1
 85 1198 l 1
 119.666666667 1216.66666667 138 1239.33333333 140 1266 c 1
EndSplineSet
EndChar

StartChar: question
Encoding: 63 63 36
Width: 746
GlyphClass: 2
Flags: HW
LayerCount: 2
Fore
SplineSet
469 342 m 1
 459 336 l 1
 473 336 l 1
 473 337.333333333 471.666666667 339.333333333 469 342 c 1
269 528 m 1
 275 524 l 1
 275 500 l 1
 285 522 l 1
 309 511.333333333 333.666666667 504.666666667 359 502 c 1
 372.333333333 502 390 513 412 535 c 1
 492 455 l 1
 470 431 459 411 459 395 c 1
 472.333333333 393.666666667 490 392.333333333 512 391 c 1
 510 319 l 1
 475 319 l 2
 467 319 461 318.333333333 457 317 c 1
 469 295 l 1
 435.666666667 278.333333333 413 264.5 401 253.5 c 128
 389 242.5 383 231 383 219 c 0
 383 216.333333333 388.666666667 204.666666667 400 184 c 1
 271 172 l 1
 265.666666667 205.333333333 260.666666667 224.333333333 256 229 c 1
 248 224.333333333 235 212.333333333 217 193 c 1
 168 242 l 1
 193 272 l 1
 193 275.333333333 195 279 199 283 c 1
 199 281 l 1
 201.666666667 289 203 295.666666667 203 301 c 2
 203 313 l 1
 193 344 l 1
 193 342 l 2
 192.333333333 342 184 351.666666667 168 371 c 1
 203 401 l 1
 211 391 l 1
 211 403 l 2
 211 412.333333333 196 431 166 459 c 1
 217 514 l 1
 235 496.666666667 250 485.666666667 262 481 c 1
 269 528 l 1
283 596 m 2
 283 598.244221304 285 605.757938582 285 608 c 0
 285 626.666666667 281 653.333333333 273 688 c 1
 242.333333333 763.333333333 225 880 221 1038 c 1
 215 1053 l 1
 229.379472765 1062.58631518 285 1078.68838198 285 1098 c 0
 285 1102 281 1118.33333333 273 1147 c 1
 348 1165 l 1
 354.539643923 1137.75148365 358.957376354 1110 387 1110 c 1
 419 1111.33333333 465.666666667 1118 527 1130 c 1
 543 1147 l 1
 549 1155.66666667 561.333333333 1171.33333333 580 1194 c 1
 558.848262393 1288.0077227 503.378398921 1338.65921774 418 1366.5 c 128
 389.058995307 1375.93728414 325.173682216 1396.43486917 297 1407 c 1
 314 1376 l 1
 271 1354 l 1
 250.333333333 1390.66666667 230.666666667 1416.16666667 212 1430.5 c 128
 193.333333333 1444.83333333 170.666666667 1452 144 1452 c 1
 144 1567 l 1
 178.666666667 1567 203.666666667 1575.66666667 219 1593 c 1
 215 1601 203.666666667 1618.33333333 185 1645 c 1
 248 1688 l 1
 263.333333333 1664.66666667 277 1649.33333333 289 1642 c 1
 322 1649 l 2
 326 1650.33333333 333.333333333 1651 344 1651 c 1
 348.407694194 1655.40769419 397.759662283 1632.22623962 408.5 1628.5 c 128
 424.833333333 1622.83333333 437 1620 445 1620 c 0
 452.333333333 1620 466 1633.66666667 486 1661 c 1
 551 1614 l 1
 530.333333333 1589.33333333 520 1573.66666667 520 1567 c 0
 520 1559.29267732 528.953958335 1552.138125 531 1546 c 1
 590 1473 l 2
 602 1457.66666667 610.333333333 1450 615 1450 c 0
 623.666666667 1450 640 1456.66666667 664 1470 c 1
 697 1393 l 1
 666.333333333 1380.33333333 651 1368.66666667 651 1358 c 0
 652.272949165 1343.99755918 671.224621384 1249.28295094 672 1233 c 2
 676 1163 l 2
 676 1154.86041948 607.871873197 1011.04179394 606 1008 c 0
 570 952 544.5 918 529.5 906 c 128
 514.5 894 485.666666667 885.666666667 443 881 c 2
 410 877 l 1
 398 854 l 2
 395.109030713 848.218061426 376.804202514 814.072270019 373 809 c 1
 373 778.115828572 366.370854608 760.057397952 393.5 748 c 128
 402.5 744 414.666666667 740.333333333 430 737 c 1
 426 672 l 1
 402.666666667 676 385 678 373 678 c 0
 356.333333333 678 346.666666667 639 344 561 c 1
 283 561 l 1
 283 596 l 2
EndSplineSet
EndChar

StartChar: at
Encoding: 64 64 37
Width: 1568
GlyphClass: 2
Flags: HW
LayerCount: 2
Fore
SplineSet
606 678 m 1
 607.333333333 676.666666667 609.333333333 676 612 676 c 1
 614 707 l 1
 606 678 l 1
377 662 m 1
 397 616 l 1
 407 625.333333333 412 631 412 633 c 0
 412 637 411 641 409 645 c 1
 407 662 l 1
 407 657 l 1
 403.666666667 660.333333333 397.666666667 662 389 662 c 2
 377 662 l 1
637 715 m 1
 637 686 l 1
 641 682 l 1
 667 689.333333333 687.333333333 697 702 705 c 1
 730.666666667 716.333333333 782 769.166666667 856 863.5 c 128
 930 957.833333333 967 1019 967 1047 c 0
 967 1062.33333333 962.666666667 1091 954 1133 c 1
 954 1143 l 1
 913 1133 l 1
 792.559791821 1052.30506052 653.69169353 878.439364829 620 717 c 1
 637 715 l 1
1003 705 m 1
 1191.71187364 739.661364546 1309 867.899939762 1309 1087 c 0
 1309 1151 1274 1230.33333333 1204 1325 c 1
 1198.66666667 1307 1196 1295.33333333 1196 1290 c 0
 1196 1283.22844784 1212 1230.58682778 1212 1227 c 0
 1212 1186.33333333 1198.16666667 1134.66666667 1170.5 1072 c 128
 1142.83333333 1009.33333333 1110.83333333 942.833333333 1074.5 872.5 c 128
 1038.16666667 802.166666667 1014.33333333 747 1003 707 c 1
 1003 705 l 1
1007 1272 m 0
 1096.20883304 1272 1125.35592524 1303.31692338 1145 1376 c 1
 1167 1368 l 1
 1103.66666667 1438.66666667 1040.33333333 1488 977 1516 c 1
 977 1510.66666667 970 1497 956 1475 c 1
 897 1479 l 1
 907.341460713 1498.2055699 921.041599722 1517.56239958 932 1534 c 1
 926.666666667 1531.33333333 917.666666667 1530 905 1530 c 0
 729.259104024 1530 582.841777199 1419.19958445 499 1313 c 128
 415.100127222 1206.72682781 334 1046.36878853 334 872 c 0
 334 817.333333333 340.666666667 767.666666667 354 723 c 1
 403 725 l 1
 433.512345924 908.074075542 621.49315836 1094.22542793 765 1185.5 c 128
 855.666666667 1243.16666667 936.333333333 1272 1007 1272 c 0
1311 418 m 1
 1303.93839982 415.646133273 1292.88253772 410 1286 410 c 0
 1283.33333333 410 1282 414 1282 422 c 1
 1275.11348287 351.413199368 1174.89170613 292.101470255 1113 263.5 c 128
 1050.66622718 234.694241346 956.660866857 193 883 193 c 0
 604.65379762 193 396.927202883 292.395775281 260 439.5 c 128
 168.055062671 538.278682672 102 689.254705158 102 874 c 0
 102 1036.66666667 136.166666667 1172.83333333 204.5 1282.5 c 128
 272.833333333 1392.16666667 379.333333333 1483.33333333 524 1556 c 1
 652 1622 742 1655 794 1655 c 2
 997 1655 l 2
 1093.41780206 1655 1179.94956755 1601.52046933 1237.5 1551.5 c 128
 1303.97998297 1493.71833256 1364.80389165 1423.56108847 1409 1348 c 1
 1419 1360 l 1
 1452 1329 l 1
 1442 1319 l 1
 1444 1319 l 1
 1431 1305 l 1
 1443.66666667 1305 1464.33333333 1309.66666667 1493 1319 c 1
 1495 1262 l 1
 1448 1249 l 1
 1450 1207 1458 1157.33333333 1472 1100 c 1
 1475.9666073 1078.18365986 1500.82299021 1077.92571078 1536 1077 c 1
 1534 1004 l 1
 1497 1004 l 2
 1478.33333333 1004 1468 998.333333333 1466 987 c 1
 1466 985 l 1
 1429.33333333 901.666666667 1374.5 827.833333333 1301.5 763.5 c 128
 1228.5 699.166666667 1141.33333333 638 1040 580 c 1
 1007.33333333 560 991 541.333333333 991 524 c 0
 991 517.333333333 993.666666667 504.333333333 999 485 c 1
 903 471 l 1
 897 502.333333333 886 521.333333333 870 528 c 1
 835.333333333 528 798.666666667 516.666666667 760 494 c 1
 719 565 l 1
 763 590.333333333 797 628.666666667 821 680 c 1
 753.140816742 620.243405788 639.682763007 539 528 539 c 0
 523.527692604 539 463.71232084 573 457 573 c 0
 452.333333333 573 443.333333333 568.333333333 430 559 c 1
 512.381991645 437.715401189 652.804073911 326 842 326 c 0
 974.11506432 326 1041.17654689 361.038639899 1134 406 c 1
 1239 455 l 1
 1249 457 l 1
 1238.33333333 457 1233 459 1233 463 c 1
 1243 487 l 1
 1288 473 l 1
 1284 459 l 1
 1298 463 l 1
 1311 418 l 1
EndSplineSet
EndChar

StartChar: A
Encoding: 65 65 38
Width: 1144
GlyphClass: 2
Flags: HW
LayerCount: 2
Fore
SplineSet
514 952 m 128
 508.41570219 952 459.838117381 963 455 963 c 0
 437.124209961 963 415.967030398 937.954883703 406.5 925 c 128
 393.234853391 906.847694114 383 874.514500301 383 842 c 0
 383 830.666666667 383.666666667 822.333333333 385 817 c 1
 430 801 l 1
 483.807079199 801 510.634939114 806.301276863 548 820.5 c 128
 564.666666667 826.833333333 580 831.333333333 594 834 c 1
 627 844 l 1
 607.666666667 884.666666667 598 912 598 926 c 0
 598 974.977779227 538.985243686 1256.8472202 528 1292 c 1
 440 1092 l 1
 440 1071 l 1
 443.333333333 1067.66666667 446.333333333 1054 449 1030 c 1
 449 1022 l 1
 452.848612808 996.984016748 469.093017413 989.962104017 496 979 c 1
 513.333333333 969.666666667 522 962 522 956 c 0
 522 953.333333333 519.333333333 952 514 952 c 128
641 283 m 0
 643.244221304 283 650.757938582 285 653 285 c 2
 684 289 l 1
 741 352 l 1
 729 532 l 1
 686.88667678 563.284182964 657 640.317840972 657 711 c 0
 657 713.244221304 660 720.757938582 660 723 c 1
 629 680 l 2
 623.666666667 672.666666667 621 663.666666667 621 653 c 0
 621 652.333333333 624 644.833333333 630 630.5 c 128
 636 616.166666667 639 603.333333333 639 592 c 0
 639 582 637 575 633 571 c 1
 613.666666667 603 599.5 623 590.5 631 c 128
 581.5 639 570.333333333 643 557 643 c 2
 334 643 l 1
 348 588 l 2
 350 579.333333333 363.166666667 566.166666667 387.5 548.5 c 128
 411.833333333 530.833333333 424.666666667 516.666666667 426 506 c 1
 396.666666667 516.666666667 373.333333333 522 356 522 c 0
 348 522 338.666666667 518 328 510 c 1
 309 483 l 1
 309 289 l 1
 385 293 l 2
 397.049851029 293 435.270445298 283 447 283 c 0
 449.666666667 283 458.5 286.333333333 473.5 293 c 128
 488.5 299.666666667 502.666666667 303 516 303 c 0
 521.333333333 303 525.333333333 302.333333333 528 301 c 1
 502 285 484.833333333 272.833333333 476.5 264.5 c 128
 468.166666667 256.166666667 463 247.333333333 461 238 c 1
 461 215 l 2
 461 213.877889348 459 210.121030709 459 209 c 0
 459 191.495260596 488.96845005 192.672749967 501.5 184.5 c 128
 509.166666667 179.5 515.333333333 172 520 162 c 1
 490 171.333333333 470.333333333 176 461 176 c 0
 453 176 449 170.666666667 449 160 c 1
 451 144.666666667 466 119.333333333 494 84 c 1
 542.016180882 137.351312092 535.447265329 143.86095358 570.5 208 c 128
 586.166666667 236.666666667 594 255.333333333 594 264 c 0
 594 266 589.166666667 275.5 579.5 292.5 c 128
 569.833333333 309.5 565 322.666666667 565 332 c 0
 565 336.666666667 568 341.333333333 574 346 c 1
 602 304 624.333333333 283 641 283 c 0
1120 -16 m 0
 1083.5486115 -16 1026.6313883 73.0758464332 1010 102 c 1
 961 74 l 1
 939.448386022 64.2038118284 933.308861921 -81.0062971698 932 -117 c 0
 932 -131 925.666666667 -140.333333333 913 -145 c 1
 913 -45.9578708564 838.631350138 57.4412879831 780.5 104.5 c 128
 745.5 132.833333333 715.333333333 147 690 147 c 0
 676.666666667 147 646.666666667 145.666666667 600 143 c 1
 567 129 l 2
 566.333333333 129 553.5 118.833333333 528.5 98.5 c 128
 503.5 78.1666666667 486.333333333 68 477 68 c 1
 485 76 l 1
 483 76 l 2
 480.333333333 76 467.666666667 85.8333333333 445 105.5 c 128
 422.333333333 125.166666667 407 135 399 135 c 2
 254 127 l 1
 233.333333333 109.666666667 202.666666667 97.3333333333 162 90 c 1
 138.015673566 48.4271675138 43.3059482188 39.8985616628 -21 30.5 c 128
 -64.3333333333 24.1666666667 -96.3333333333 15.3333333333 -117 4 c 0
 -122.333333333 1.33333333333 -127.666666667 0 -133 0 c 0
 -137 0 -140.333333333 0.666666666667 -143 2 c 1
 -103.666666667 25.3333333333 -75.6666666667 46.6666666667 -59 66 c 1
 -22 119 l 2
 -16.6666666667 126.333333333 -12 144.666666667 -8 174 c 1
 -8 182 -6 188.333333333 -2 193 c 1
 -4.66666666667 168.333333333 -6 146.333333333 -6 127 c 0
 -6 121.666666667 -4.66666666667 117.666666667 -2 115 c 1
 -2 135 l 2
 -2 177.666666667 13 199.666666667 43 201 c 1
 43 249 69.6666666667 281 123 297 c 1
 100 463 l 2
 98 475 80.3333333333 490.666666667 47 510 c 1
 53 541 l 1
 73.6666666667 533.666666667 85.3333333333 530 88 530 c 0
 100.666666667 530 117.5 547.5 138.5 582.5 c 128
 159.5 617.5 176 639 188 647 c 1
 186.666666667 661 186 680.333333333 186 705 c 0
 186 730.876871944 197 813.675423444 197 840 c 0
 197 846 187.166666667 856 167.5 870 c 128
 147.833333333 884 137.666666667 895.666666667 137 905 c 2
 137 909 l 1
 165 897 186.333333333 891 201 891 c 0
 226.680627986 891 262 980.325839765 262 1006 c 0
 262 1012.66666667 254.166666667 1023.33333333 238.5 1038 c 128
 222.833333333 1052.66666667 214.333333333 1064.33333333 213 1073 c 0
 213 1077 213.666666667 1080.33333333 215 1083 c 1
 248.333333333 1063 270.333333333 1053 281 1053 c 0
 287.666666667 1053 295.666666667 1057.66666667 305 1067 c 1
 303.666666667 1072.33333333 303 1080.66666667 303 1092 c 0
 303 1124 314.666666667 1169.66666667 338 1229 c 128
 361.333333333 1288.33333333 373 1334.66666667 373 1368 c 0
 373 1373.1310326 371 1387.62268936 371 1393 c 0
 371 1397 360 1407.66666667 338 1425 c 1
 348 1454 l 1
 368 1444.66666667 379 1440 381 1440 c 0
 396.333333333 1440 417.833333333 1452.16666667 445.5 1476.5 c 128
 473.166666667 1500.83333333 503.333333333 1530.16666667 536 1564.5 c 128
 568.666666667 1598.83333333 592 1621.33333333 606 1632 c 1
 606 1645.33333333 611 1665.33333333 621 1692 c 1
 645 1692 l 1
 643.666666667 1684 643 1666.66666667 643 1640 c 0
 643 1630.66666667 644.333333333 1624 647 1620 c 1
 708.420399326 1429.59676209 842.348527451 1286.6254551 873 1069 c 0
 883.075907349 993.430694881 911.011920834 949.253183493 945 903.5 c 128
 963.640745764 878.406688395 975 844.382019431 975 799 c 1
 976.432960386 783.237435754 971 735.67642961 971 719 c 2
 971 655 l 1
 1011.66666667 599 1038.33333333 529.333333333 1051 446 c 0
 1055 426 1070.66666667 403 1098 377 c 0
 1106 369 1110 360 1110 350 c 1
 1112 344 l 1
 1085.33333333 366.666666667 1065.33333333 381.5 1052 388.5 c 128
 1038.66666667 395.5 1026 399 1014 399 c 2
 997 399 l 1
 1008 297 l 1
 1039.44542474 283.523389396 1066.34278154 255.643046157 1078 226.5 c 128
 1087.50816786 202.729580352 1109.04219939 182 1143 182 c 0
 1144.33333333 182 1164.66666667 197.333333333 1204 228 c 128
 1243.33333333 258.666666667 1269.33333333 274 1282 274 c 1
 1265.14476607 252.547884085 1218.29396079 207.301309808 1198 186.5 c 128
 1184.66666667 172.833333333 1178 164.666666667 1178 162 c 0
 1178 158.666666667 1179.33333333 153.666666667 1182 147 c 1
 1182 145 l 1
 1189.36100294 133.958495589 1231.30202569 126.371042725 1249 123 c 2
 1270 119 l 1
 1270 113.980742603 1207.5619714 107.5619714 1201 101 c 128
 1185.7388155 85.7388154989 1164.40759353 79.0995421699 1152.5 61 c 128
 1137.91157407 38.8255925911 1140.88410524 21.1378288686 1133 -3.5 c 128
 1130.33333333 -11.8333333333 1126 -16 1120 -16 c 0
EndSplineSet
EndChar

StartChar: B
Encoding: 66 66 39
Width: 1456
GlyphClass: 2
Flags: HW
LayerCount: 2
Fore
SplineSet
775 393 m 0
 790.265427064 393 805 426.0000441 805 442 c 0
 805 456.666666667 790 480 760 512 c 1
 775 526 l 1
 805.666666667 494.666666667 828 479 842 479 c 0
 938.07526511 479 949 622.379224093 949 719 c 0
 949 735.666666667 922.166666667 768.833333333 868.5 818.5 c 128
 814.833333333 868.166666667 780.666666667 893 766 893 c 2
 752 893 l 2
 740 893 731.666666667 886.666666667 727 874 c 2
 707 825 l 1
 695 840 l 1
 707.666666667 820.666666667 720.666666667 811 734 811 c 0
 744.666666667 811 766.333333333 817 799 829 c 1
 805 811 l 1
 773.666666667 799 754 789.666666667 746 783 c 128
 738 776.333333333 734 767.333333333 734 756 c 2
 734 639 l 2
 734 595.34396211 767.713074706 591.437011496 809 582 c 1
 803 557 l 1
 783 561 766.666666667 563 754 563 c 0
 714.287164692 563 707 534.582157803 707 492 c 2
 707 440 l 2
 707 420.259296099 754.550142326 393 775 393 c 0
1063 1278 m 1
 1063 1295.20307167 1034.83659692 1309 1018 1309 c 0
 1001.33333333 1309 978.333333333 1292.66666667 949 1260 c 1
 928 1278 l 1
 955.333333333 1307.33333333 969 1330.66666667 969 1348 c 0
 969 1355.33333333 965.666666667 1364.66666667 959 1376 c 2
 930 1430 l 1
 911.799006115 1442.54765488 844.747619605 1491.13305306 818 1499 c 1
 804 1499 794.333333333 1494.33333333 789 1485 c 1
 738 1255 l 1
 738 1171.10191974 729.843130231 1131.68626046 715 1102 c 1
 723.575926576 1084.84814685 739.619980884 1042 764 1042 c 2
 777 1042 l 2
 779 1042 804.5 1054.33333333 853.5 1079 c 128
 902.5 1103.66666667 932.333333333 1116 943 1116 c 0
 944.333333333 1116 946.333333333 1114.66666667 949 1112 c 1
 949 1124.66666667 944.833333333 1135.83333333 936.5 1145.5 c 128
 928.166666667 1155.16666667 909 1168.66666667 879 1186 c 1
 889 1202 l 1
 925.666666667 1181.33333333 950.333333333 1171 963 1171 c 0
 966.333333333 1171 974.666666667 1174 988 1180 c 2
 1008 1190 l 1
 1008 1190 1033.63028031 1233.94542046 1063 1278 c 1
579 115 m 0
 548.917289326 115 523 168.693007713 523 197 c 2
 523 229 l 2
 523 242.333333333 517 252.666666667 505 260 c 1
 503 260 489.333333333 265.333333333 464 276 c 1
 472 301 l 1
 505.333333333 289 523 283 525 283 c 0
 552.682134679 283 597 357.865553116 597 385 c 0
 597 412.886732805 564 487.325674512 564 516 c 0
 564 527.333333333 560.666666667 536.333333333 554 543 c 0
 504.666666667 587 480 720.666666667 480 944 c 2
 480 1024 l 2
 480 1051.81667534 442.155943061 1137.66521352 437 1157 c 0
 429 1191.66666667 425 1225 425 1257 c 0
 425 1288.43263444 431 1391.22752881 431 1423 c 1
 428.333333333 1441 421 1450 409 1450 c 0
 400.902804713 1450 375.563484752 1442 370 1442 c 0
 346.666666667 1442 314.333333333 1452.16666667 273 1472.5 c 128
 231.666666667 1492.83333333 199.666666667 1503 177 1503 c 0
 170.333333333 1503 163 1501.66666667 155 1499 c 1
 204 1440 l 1
 151 1495 l 1
 139 1490.33333333 124.666666667 1476 108 1452 c 1
 75 1475 l 1
 92.3333333333 1499 101 1520.66666667 101 1540 c 1
 55.6666666667 1576.66666667 17 1602.66666667 -15 1618 c 1
 3 1659 l 1
 66.627429457 1627.18628527 192.354252021 1602 284 1602 c 0
 344.209301984 1602 524.493173939 1661 585 1661 c 0
 620.434685022 1661 707.71952079 1616 744 1616 c 0
 764.815313811 1616 785 1633.01919498 785 1653 c 0
 785 1664.33333333 776.666666667 1688 760 1724 c 1
 773 1731 l 1
 787.666666667 1700.33333333 798.833333333 1681 806.5 1673 c 128
 814.166666667 1665 822.666666667 1661 832 1661 c 2
 838 1661 l 2
 888.645890469 1661 894.755656887 1686.18552296 910 1737 c 1
 938 1729 l 1
 932.666666667 1707 930 1689 930 1675 c 128
 930 1647.39078499 953.235296196 1618 981 1618 c 0
 997.35022865 1618 1002 1629.23941598 1002 1647 c 0
 1002 1664.33333333 996.666666667 1690 986 1724 c 1
 1002 1729 l 1
 1021.91047096 1662.63176346 1053.08429834 1604 1138 1604 c 130
 1176 1604 l 2
 1186.66666667 1604 1199 1608 1213 1616 c 1
 1252 1651 l 1
 1264 1628 l 1
 1244.09293435 1610.58131756 1222.24331335 1593.9732534 1215 1565 c 1
 1219 1551.66666667 1227 1544 1239 1542 c 1
 1297.61516285 1513.44389502 1317 1294.64530775 1317 1202 c 0
 1317 1146 1287.66666667 1088.66666667 1229 1030 c 0
 1225.66666667 1026 1222.66666667 1020.66666667 1220 1014 c 1
 1211.0018835 969.00941748 1148.55148428 969.195269043 1114 950 c 128
 1102 943.333333333 1096 934.666666667 1096 924 c 1
 1100.84475701 894.931457967 1108.75178775 837.246782043 1120 817 c 1
 1144.66666667 792.333333333 1157 752 1157 696 c 0
 1157 654.666666667 1148.66666667 593.166666667 1132 511.5 c 128
 1115.33333333 429.833333333 1095 385 1071 377 c 1
 1066.33333333 377 1051.5 347 1026.5 287 c 128
 1001.5 227 985 197 977 197 c 0
 966.455120529 197 930.75230079 201 920 201 c 0
 912 201 903.833333333 197 895.5 189 c 128
 887.166666667 181 875 164.333333333 859 139 c 1
 844 147 l 1
 867.333333333 181 879 205 879 219 c 0
 879 264.323590088 809.404426318 272 764 272 c 0
 734.984095311 272 712.464881408 262.155508799 709 240.5 c 128
 705.712740833 219.954630204 692.377234578 201.839023969 673 195 c 1
 650.468989394 185.14268286 640.044777326 149.336888372 624 131 c 128
 614.666666667 120.333333333 599.666666667 115 579 115 c 0
EndSplineSet
EndChar

StartChar: C
Encoding: 67 67 40
Width: 1176
GlyphClass: 2
Flags: HW
LayerCount: 2
Fore
SplineSet
557 98 m 2
 557 112.484300339 543.509802536 127 529 127 c 2
 459 129 l 2
 448.333333333 129 428.666666667 108.666666667 400 68 c 1
 391 74 l 1
 417 110.666666667 430 133 430 141 c 1
 426 145 421.333333333 147 416 147 c 0
 404 147 394.333333333 140.333333333 387 127 c 1
 367.695637589 99.9738926247 368.091662677 82.6747965233 367 27 c 1
 355 27 l 1
 355 51 l 2
 355 94.0402477564 354.097170542 110.902829458 336 129 c 0
 328 137 319.666666667 141 311 141 c 0
 289.666666667 141 267.333333333 135 244 123 c 1
 240 139 l 1
 279.408876722 152.957310506 314 159.391048793 314 190 c 1
 316 223 l 2
 316 228.375943407 309.189408248 236.715887628 307 240 c 0
 146.211522279 426.932945643 70 738.903367119 70 1085 c 0
 70 1094.67655051 72 1133.33532887 72 1143 c 2
 78 1243 l 1
 78 1282.59685179 42.2362849012 1290.21072298 6 1303 c 1
 15 1321 l 1
 47 1310.33333333 67.3333333333 1305 76 1305 c 0
 98.2354422416 1305 316.737869351 1541.45908686 332 1548 c 0
 357.350163149 1560.67508157 365.12270353 1596.86417378 373 1634 c 1
 385 1632 l 1
 378.333333333 1595.33333333 375 1573 375 1565 c 0
 375 1534.33333333 396 1517 438 1513 c 1
 444 1523.66666667 447 1531.33333333 447 1536 c 0
 447 1552 434.666666667 1578 410 1614 c 1
 426 1624 l 1
 445.333333333 1595.33333333 460 1576.83333333 470 1568.5 c 128
 480 1560.16666667 491.333333333 1556 504 1556 c 2
 672 1556 l 2
 714.350526459 1556 718.812615989 1583.65454556 733 1630 c 1
 758 1622 l 1
 748.666666667 1594.66666667 744 1574.33333333 744 1561 c 0
 744 1528.64768024 807.798815634 1491 840 1491 c 0
 855.497040672 1491 869 1507.99396713 869 1524 c 2
 869 1532 l 2
 869 1542.66666667 865.333333333 1554.16666667 858 1566.5 c 128
 850.666666667 1578.83333333 835 1597.33333333 811 1622 c 1
 821 1632 l 1
 846.333333333 1608 865 1592.5 877 1585.5 c 128
 889 1578.5 900.666666667 1575 912 1575 c 2
 959 1575 l 2
 998.539177803 1575 1013.48555616 1503.12134564 1020 1464.5 c 128
 1031.27003389 1397.68479905 1041.91797774 1413.08725358 1063 1350.5 c 128
 1079.67990565 1300.98153009 1079.93191978 1295.71205348 1106.5 1278 c 128
 1116.52595808 1271.31602795 1126.53702745 1270 1143 1270 c 0
 1153.66666667 1270 1172 1272 1198 1276 c 1
 1200 1255 l 1
 1134.80836363 1246.72169697 1098 1239.01066181 1098 1180 c 0
 1098 1158.66666667 1114.33333333 1133.33333333 1147 1104 c 1
 1131 1090 l 1
 1097.66666667 1122.66666667 1072.33333333 1139 1055 1139 c 0
 1048.33333333 1139 1043.66666667 1138.33333333 1041 1137 c 1
 1039 1137 l 1
 1016.17835115 1129.39278372 1016 1112.72381402 1016 1079 c 0
 1016 1071.66666667 1017.33333333 1052 1020 1020 c 1
 1012 1020 l 1
 1008.66666667 1056.66666667 1004.33333333 1085.16666667 999 1105.5 c 128
 989.376779228 1142.18852919 984.893619836 1136.47517355 969.5 1157 c 128
 964.5 1163.66666667 961 1173.33333333 959 1186 c 0
 959 1190 947.166666667 1202.83333333 923.5 1224.5 c 128
 889.232753342 1255.871423 810.505501507 1323.95180503 789 1362 c 0
 783.666666667 1371.33333333 775.333333333 1376 764 1376 c 2
 545 1376 l 2
 512.958058339 1376 501.804709328 1317.16094187 471 1311 c 1
 456.333333333 1307 443.166666667 1291.16666667 431.5 1263.5 c 128
 411.941187561 1217.11767336 382.110212439 1117.59878679 355 1081 c 1
 356.861367252 1059.59427661 360.242785759 792.614595044 365 772 c 1
 382.333333333 753.333333333 397.666666667 726.333333333 411 691 c 128
 444.164336459 603.114508383 487.885409004 504.114590996 552 440 c 128
 568.637773955 423.362226045 588.90908284 389 619 389 c 128
 631.527476591 389 642.371597458 399.371597458 649 406 c 2
 617 375 l 1
 685 375 736.666666667 368 772 354 c 1
 778 354 783 356 787 360 c 2
 862 416 l 1
 869.763111632 423.763111632 895.400889418 474.556543798 903 483 c 0
 952.333333333 535 992 571.333333333 1022 592 c 1
 1029.51263496 622.050539834 1052.46306543 673.288550086 1065.5 697.5 c 128
 1072.5 710.5 1076.33333333 717 1077 717 c 1
 1075.66666667 714.333333333 1075 710.333333333 1075 705 c 2
 1075 612 l 1
 1079 612 l 2
 1088.33333333 612 1098.66666667 608.666666667 1110 602 c 1
 1075 553 l 1
 1075 442 l 2
 1075 384.94366763 1032.93290583 331.798717476 1018 287 c 1
 1018 270.333333333 1033.66666667 249 1065 223 c 1
 1049 205 l 1
 1021 231 999.666666667 244 985 244 c 0
 977.666666667 244 969.666666667 240.333333333 961 233 c 1
 959 233 l 2
 952.66096026 233 950.019084899 216.047712248 948 211 c 1
 948 -16 l 1
 922 -16 l 1
 922 39 l 2
 922 126.039207392 892.342069626 162 807 162 c 2
 785 162 l 1
 592 133 l 1
 579.950128137 126.975064068 572 122.081777144 572 104 c 2
 574 27 l 1
 559 25 l 1
 557 98 l 2
EndSplineSet
EndChar

StartChar: D
Encoding: 68 68 41
Width: 1377
GlyphClass: 2
Flags: HW
LayerCount: 2
Fore
SplineSet
489 459 m 0
 489 455.613802853 475 391.924966451 475 389 c 0
 475 360.333333333 479.666666667 346 489 346 c 1
 496 350 l 1
 543.58030063 350 543 387.665245761 543 444 c 1
 565 444 l 1
 567.666666667 398.666666667 576.666666667 372.333333333 592 365 c 1
 607.6305723 365 643.866048725 391 661 391 c 0
 668.519109729 391 702.048911902 383 709 383 c 0
 721 383 730.333333333 389.666666667 737 403 c 128
 762.683180195 454.36636039 839.756955344 479.605469049 879.5 517.5 c 128
 893.833333333 531.166666667 901 544.333333333 901 557 c 128
 901 569.666666667 887.333333333 589.333333333 860 616 c 1
 881 639 l 1
 906.333333333 613 926 600 940 600 c 0
 948.666666667 600 959 605.333333333 971 616 c 2
 989 633 l 2
 992.333333333 636.333333333 995 641 997 647 c 1
 999.629443315 665.406103206 1003.50086603 698.500866031 1013.5 708.5 c 128
 1025.3295351 720.329535099 1034.69773173 726.344629721 1053 733 c 1
 1060.33333333 737 1065 744 1067 754 c 2
 1079 817 l 1
 1079 823.666666667 1078.33333333 829.333333333 1077 834 c 1
 1060.32622014 862.583622622 1059.93127965 981 1020 981 c 0
 1007.02237516 981 997.33026804 974.44342268 981 969 c 128
 969 965 956.666666667 961.333333333 944 958 c 1
 926 1028 l 1
 962.889284017 1035.3778568 988.860551352 1042.62813694 1001 1075 c 1
 1001 1077 l 1
 942.691931673 1191.53370564 789.685094648 1362 631 1362 c 0
 613 1362 604 1355.66666667 604 1343 c 1
 608 1315 l 1
 608 1298.33333333 595 1234.66666667 569 1124 c 0
 567.666666667 1121.33333333 567 1117.33333333 567 1112 c 0
 567 1104.66666667 571.166666667 1097 579.5 1089 c 128
 587.833333333 1081 604.333333333 1071 629 1059 c 1
 618 1042 l 1
 588 1058.66666667 566.333333333 1067 553 1067 c 0
 528.800501042 1067 508 1024.93008146 508 1001 c 0
 508 970.629007604 522.722724254 956 555 956 c 0
 571.666666667 956 586.666666667 956.666666667 600 958 c 1
 602 946 l 1
 558.016947474 940.925032401 526.12353209 942.741192538 522 918 c 1
 481 741 l 2
 481 739.877889348 479 736.121030709 479 735 c 0
 479 729.017884609 496 686.483415083 496 678 c 0
 496 658.774026121 477 602.857445651 477 584 c 0
 477 558.846202242 489 484.652198744 489 459 c 0
491 221 m 0
 365.518280515 221 209 158.295302748 209 43 c 1
 186 51 l 1
 203 117 l 1
 203 138.707389845 231 210.063033995 231 231 c 0
 231 239 227 246.833333333 219 254.5 c 128
 211 262.166666667 195.333333333 272.333333333 172 285 c 1
 184 303 l 1
 213.333333333 287 234.666666667 279 248 279 c 0
 254.666666667 279 262.666666667 283.666666667 272 293 c 1
 293 322 l 2
 295.666666667 324.666666667 297 329.333333333 297 336 c 0
 297 341.333333333 296.333333333 345.333333333 295 348 c 0
 267.666666667 411.333333333 254 502.333333333 254 621 c 0
 254 635.291416013 244 677.418425625 244 692 c 0
 244 693.716164602 246 707.288695143 246 709 c 0
 246 713 244.666666667 717.666666667 242 723 c 0
 221.333333333 754.333333333 211 792.666666667 211 838 c 0
 211 926.820251692 242.816121305 997.968515546 260 1071 c 1
 260 1079 259.333333333 1085.33333333 258 1090 c 1
 248 1108 l 2
 238.666666667 1124.66666667 223 1133 201 1133 c 0
 186.733751231 1133 167.95379745 1129.99339964 154 1128 c 1
 151 1151 l 1
 200.88718331 1158.12674047 225.78749952 1160.99249818 235 1196 c 1
 242.333333333 1232.66666667 246 1266.66666667 246 1298 c 128
 246 1346.28663554 222.337283041 1460 176 1460 c 0
 170.666666667 1460 166.666666667 1459.33333333 164 1458 c 2
 76 1421 l 2
 52.6666666667 1411 22.6666666667 1385 -14 1343 c 1
 -23 1352 l 1
 17 1394 39.6666666667 1426.66666667 45 1450 c 1
 51.6666666667 1471.33333333 71 1498.83333333 103 1532.5 c 128
 135 1566.16666667 151 1589.33333333 151 1602 c 0
 151 1616 146.333333333 1638.33333333 137 1669 c 1
 156 1675 l 1
 171.819199742 1629.4034831 176.960818507 1601.00412437 215 1597 c 0
 272.972489335 1592.16895922 333.94143271 1586.6861891 381 1571 c 1
 591.646748755 1514.57676373 829.600490764 1467.82717205 1009 1385.5 c 128
 1057.66666667 1363.16666667 1105 1337.66666667 1151 1309 c 0
 1157 1305 1163.66666667 1303 1171 1303 c 0
 1187 1303 1211 1313.66666667 1243 1335 c 1
 1253 1319 l 1
 1227.66666667 1302.33333333 1210.83333333 1290 1202.5 1282 c 128
 1194.16666667 1274 1190 1265.66666667 1190 1257 c 0
 1190 1247 1201.16666667 1232.5 1223.5 1213.5 c 128
 1245.83333333 1194.5 1259.33333333 1179.66666667 1264 1169 c 1
 1273.11056623 1140.14987359 1337.86712078 1114 1378 1114 c 0
 1391.33333333 1114 1412.66666667 1116 1442 1120 c 1
 1444 1108 l 1
 1387.94311426 1100.81321978 1361.79475835 1095.79475835 1333 1067 c 0
 1327.66666667 1061.66666667 1325 1055 1325 1047 c 0
 1325 1041 1326.33333333 1035.33333333 1329 1030 c 0
 1361.66666667 971.333333333 1378 888 1378 780 c 0
 1378 672.145398424 1327.95293071 571.974131496 1278 507.5 c 128
 1222.49309795 435.857370605 1147.41697626 344.693214649 1091 274.5 c 128
 1042.27633138 213.878691373 991 119.531461309 991 18 c 1
 975 20 l 1
 979 88 l 1
 979 148.951548188 980.221798305 223 932 223 c 1
 868 211 l 1
 858 207.666666667 826.166666667 202.5 772.5 195.5 c 128
 718.833333333 188.5 680.333333333 174.666666667 657 154 c 1
 651 129 l 1
 651 137 650.333333333 143 649 147 c 1
 641.769062306 142.17937487 620.127237733 119.127237733 614 113 c 1
 606 119 l 1
 624.666666667 139 637 153.333333333 643 162 c 1
 637.638430871 171.382745976 628.656742295 182.457676939 623 190 c 1
 594.388134064 186.820903785 590.848036781 147.240183903 584 113 c 1
 569 117 l 1
 574.333333333 141.666666667 577 161.333333333 577 176 c 0
 577 210.16831053 526.001919124 221 491 221 c 0
EndSplineSet
EndChar

StartChar: E
Encoding: 69 69 42
Width: 1466
GlyphClass: 2
Flags: HW
LayerCount: 2
Fore
SplineSet
700 1452 m 2
 669.837454038 1452 664 1360.76749487 664 1317 c 0
 664 1313.37837607 670 1296.285298 670 1294 c 0
 670 1292.66666667 671.333333333 1290.66666667 674 1288 c 0
 686 1270.66666667 692 1241.33333333 692 1200 c 0
 692 1177.17523837 682 1076.11175498 682 1055 c 0
 682 1015.57030913 694.96230723 913 731 913 c 0
 733 913 748.5 919.166666667 777.5 931.5 c 128
 806.5 943.833333333 831.333333333 950 852 950 c 128
 872.666666667 950 888.333333333 949.333333333 899 948 c 1
 922.333333333 948 934 959 934 981 c 2
 934 1118 l 2
 934 1137.26151926 928.560116284 1139.63863466 912.5 1150 c 128
 902.166666667 1156.66666667 886 1164.66666667 864 1174 c 1
 870 1186 l 1
 896 1169.33333333 919.333333333 1161 940 1161 c 0
 946.666666667 1161 952.666666667 1163.66666667 958 1169 c 0
 968 1177 980.333333333 1207.33333333 995 1260 c 1
 1003 1257 l 1
 991 1217 985 1190.66666667 985 1178 c 0
 985 1142.51912125 1032.37485902 1087 1067 1087 c 0
 1078.33333333 1087 1103.66666667 1096 1143 1114 c 1
 1153 1096 l 1
 1122.33333333 1078 1103 1064.33333333 1095 1055 c 128
 1087 1045.66666667 1083 1033.33333333 1083 1018 c 2
 1083 1014 l 2
 1082.33333333 1008 1091.66666667 994 1111 972 c 128
 1130.33333333 950 1139.66666667 929 1139 909 c 2
 1137 854 l 2
 1137 843.333333333 1145.66666667 833 1163 823 c 0
 1163.66666667 823 1180.66666667 816.333333333 1214 803 c 1
 1206 774 l 1
 1191.83562941 779.058703783 1171.86247077 787.557303845 1160 792.5 c 128
 1156 794.166666667 1153.66666667 795 1153 795 c 0
 1149 796.333333333 1144.33333333 797 1139 797 c 0
 1129.66666667 797 1119.33333333 791.333333333 1108 780 c 1
 1087 752 l 1
 1084.33333333 746.666666667 1083 741.666666667 1083 737 c 2
 1087 698 l 1
 1087 648.666666667 1075.66666667 612.666666667 1053 590 c 0
 1027.97685705 564.976857049 1025.10718664 538.57370523 1024 481 c 1
 1008 481 l 1
 1008 502 l 2
 1008 549.794342721 1003.91228987 569.479072447 983 592 c 0
 938.333333333 638 913.666666667 708.333333333 909 803 c 0
 909 819 902.333333333 827 889 827 c 0
 873.199264224 827 815.074965644 813 799 813 c 0
 787.542545561 813 750.017693582 817 739 817 c 0
 706.460835967 817 682 727.167672669 682 694 c 2
 682 653 l 2
 682 548.333333333 683.333333333 496 686 496 c 0
 700.666666667 496 717.666666667 498.666666667 737 504 c 1
 745 475 l 1
 694.350470441 462.844112906 670 457.503444149 670 410 c 2
 670 369 l 2
 670 350.411490331 681.385621377 338 700 338 c 2
 856 338 l 2
 903.096536707 338 907.923832486 363.682635359 920 414 c 1
 948 408 l 1
 942.666666667 387.333333333 940 370 940 356 c 0
 940 307.691700524 1058.78037596 274 1108 274 c 0
 1124.88656605 274 1139.75048177 286.756262962 1141 303 c 1
 1149 350 l 2
 1157 399.333333333 1204 428.666666667 1290 438 c 0
 1302 439.333333333 1314.33333333 443.833333333 1327 451.5 c 128
 1339.66666667 459.166666667 1359.33333333 474.666666667 1386 498 c 1
 1397 487 l 1
 1370.33333333 463.666666667 1352.5 446 1343.5 434 c 128
 1334.5 422 1329 409.666666667 1327 397 c 0
 1314.84707633 345.350074424 1280.67746838 140.939449078 1266 90 c 0
 1264.66666667 86 1264 80 1264 72 c 0
 1264 59.2328392975 1271.2309715 48.614828378 1278 30 c 128
 1283.33333333 15.3333333333 1288 2 1292 -10 c 1
 1270 -16 l 1
 1247.33333333 42.6666666667 1237.66666667 70.3333333333 1241 67 c 1
 1227.11242207 86.4426091022 1196.59442003 102 1165 102 c 0
 1143.66666667 102 1125.33333333 83 1110 45 c 1
 1092 53 l 1
 1100.01384949 73.4798375931 1108 98.1895541276 1108 119 c 128
 1108 123 1108.66666667 125 1110 125 c 0
 1110.66666667 125 1111.33333333 124.666666667 1112 124 c 0
 1113.33333333 124 1114.66666667 123.666666667 1116 123 c 1
 1079.22528052 140.238149757 973.472428824 168.068341701 940 186 c 0
 937.333333333 187.333333333 933.333333333 188 928 188 c 2
 471 188 l 2
 405 188 368 171.666666667 360 139 c 1
 322 53 l 1
 289 68 l 1
 332 158 l 1
 338.666666667 187.333333333 342 220.666666667 342 258 c 0
 342 312.666666667 331 460.5 309 701.5 c 128
 287 942.5 275.333333333 1127 274 1255 c 1
 270.049513911 1294.50486089 245.127177365 1299.62427421 199 1315 c 1
 205 1335 l 1
 245 1324.33333333 266 1319 268 1319 c 0
 288.263801049 1319 294.328952981 1321.99014421 301 1337 c 1
 326 1368 l 1
 336 1395 l 2
 336 1395.91088797 338 1402.09127192 338 1403 c 128
 338 1404.59135001 336 1409.00457897 336 1411 c 2
 330 1434 l 1
 323.162816901 1453.14411268 227.475588782 1475 201 1475 c 0
 183.666666667 1475 164.333333333 1454.33333333 143 1413 c 1
 121 1425 l 1
 134.333333333 1454.33333333 141 1475 141 1487 c 0
 141 1495.66666667 135 1506.66666667 123 1520 c 1
 72 1563 l 1
 57.3333333333 1573.66666667 45 1579 35 1579 c 0
 33.6666666667 1579 11 1573.66666667 -33 1563 c 1
 -41 1583 l 1
 11.084674657 1601.32608923 45 1613.13716112 45 1665 c 2
 45 1688 l 2
 45 1694.66666667 42 1702.33333333 36 1711 c 128
 30 1719.66666667 14.6666666667 1735.66666667 -10 1759 c 1
 -4 1765 l 1
 32.6666666667 1728.33333333 56.6666666667 1710 68 1710 c 2
 72 1710 l 2
 86.750204193 1710 88.5109194306 1716.8799168 97 1731.5 c 128
 103 1741.83333333 111 1758 121 1780 c 1
 129 1776 l 1
 112.333333333 1740 104 1716.66666667 104 1706 c 0
 104 1696.27680144 119.429125539 1677 129 1677 c 2
 135 1677 l 1
 161.860204988 1681.13233923 167.697940002 1714.94279001 178 1751 c 1
 199 1745 l 1
 191.666666667 1721.66666667 188 1702 188 1686 c 0
 188 1652.08904057 283.792942804 1612 317 1612 c 0
 343.28916655 1612 354.57622502 1645.35112921 369 1675 c 1
 387 1667 l 1
 370.333333333 1630.33333333 362 1608.66666667 362 1602 c 0
 362 1569.23495003 458.044320387 1532 491 1532 c 0
 520.771247288 1532 529.786436123 1562.03727827 545 1595 c 1
 565 1587 l 1
 551.666666667 1557.66666667 545 1537.33333333 545 1526 c 1
 551.936636131 1546.80990839 686.018569157 1556 717 1556 c 0
 751.960306469 1556 761.118111183 1588.35757535 776 1626 c 1
 797 1616 l 1
 783 1585.33333333 776 1562.66666667 776 1548 c 0
 776 1535.33333333 781.666666667 1526 793 1520 c 1
 801.666666667 1510 810.333333333 1505 819 1505 c 2
 1044 1505 l 2
 1045.90188867 1505 1047.89373104 1507.89373104 1049 1509 c 1
 1053 1505 l 1
 1058.33333333 1505 1063.66666667 1507.66666667 1069 1513 c 0
 1095.95398886 1539.95398886 1157.99755155 1560.85849971 1201.5 1572.5 c 128
 1261.71916632 1588.61498817 1319.62691393 1639.12395942 1352 1692 c 1
 1362 1683 l 1
 1332 1638.33333333 1317 1604.33333333 1317 1581 c 2
 1317 1229 l 2
 1317 1205 1328.66666667 1167.33333333 1352 1116 c 1
 1343 1112 l 1
 1322.33333333 1158.66666667 1302 1192 1282 1212 c 1
 1184 1296 l 1
 1178.66666667 1298.66666667 1175 1301.66666667 1173 1305 c 1
 1163.66666667 1303.66666667 1155 1298.83333333 1147 1290.5 c 128
 1139 1282.16666667 1127.33333333 1265 1112 1239 c 1
 1098 1247 l 1
 1116.66666667 1281.66666667 1126 1305.66666667 1126 1319 c 0
 1126 1338.33333333 1107.66666667 1365 1071 1399 c 1
 1083 1389 l 1
 1063.05150705 1418.48907654 1033.40472 1454 997 1454 c 2
 700 1452 l 2
EndSplineSet
EndChar

StartChar: F
Encoding: 70 70 43
Width: 1336
GlyphClass: 2
Flags: HW
LayerCount: 2
Fore
SplineSet
784 1159 m 0
 784 1160.59135001 782 1165.00457897 782 1167 c 0
 759.674611363 1226.5343697 759.627658856 1219.07005792 711 1276 c 1
 717 1282 l 1
 745.126670867 1248.66468638 773.476565179 1220.64257612 803 1198.5 c 128
 827.600983764 1180.04926218 857.21846432 1178 899 1178 c 0
 919 1178 948.333333333 1195.66666667 987 1231 c 1
 997 1219 l 1
 971.666666667 1194.33333333 955.5 1176 948.5 1164 c 128
 941.5 1152 938 1139.33333333 938 1126 c 2
 938 825 l 2
 938 803.170543374 913 729.419019893 913 709 c 0
 913 701.666666667 917 693.833333333 925 685.5 c 128
 933 677.166666667 949 664.333333333 973 647 c 1
 962 633 l 1
 930 657.666666667 907 670 893 670 c 0
 863 670 848 638.333333333 848 575 c 0
 848 533.03681033 887.203718905 518.33480995 932 504 c 1
 926 485 l 1
 895.333333333 496.333333333 870 502 850 502 c 0
 822.770630368 502 818.564525667 490.112922655 805.5 463.5 c 128
 796.5 445.166666667 787.333333333 418.333333333 778 383 c 1
 768 387 l 1
 778.666666667 425 784 452.333333333 784 469 c 0
 784 507.635102649 740.47461862 586 702 586 c 0
 688 586 667.666666667 581 641 571 c 1
 633 596 l 1
 679.11211781 612.331375058 706 619.403112012 706 664 c 2
 706 715 l 2
 706 732.757059918 694.094115005 745 676 745 c 2
 561 745 l 2
 542.941707032 745 530 732.7502143 530 715 c 2
 530 369 l 2
 530 298.157386011 594.571641612 291.214179194 643 267 c 128
 663 257 678.666666667 245 690 231 c 0
 713.411548851 201.203483281 738.257975431 196.261891025 790 178 c 1
 786 166 l 1
 742.666666667 180.666666667 712.666666667 188 696 188 c 0
 683.762394166 188 641.225186486 176 629 176 c 0
 625 176 621.333333333 176.666666667 618 178 c 2
 530 188 l 1
 436.926288512 188 343.220096844 176.172763289 271.5 149.5 c 128
 231.166666667 134.5 211 116 211 94 c 0
 211 80.6666666667 219.666666667 57.6666666667 237 25 c 1
 225 18 l 1
 205 55.3333333333 190.666666667 76 182 80 c 1
 156 72.6666666667 143 57.6666666667 143 35 c 1
 117 37 l 1
 183 127.666666667 247.666666667 191.666666667 311 229 c 1
 313.666666667 234.333333333 315 238.666666667 315 242 c 2
 315 457 l 2
 315 593.666666667 306.333333333 662 289 662 c 0
 277.666666667 662 260.333333333 659 237 653 c 1
 231 682 l 1
 271.398914498 692.099728625 301 697.673032464 301 733 c 1
 293 836 l 1
 276 1356 l 2
 276 1372.66666667 267.333333333 1382 250 1384 c 1
 194 1399 l 2
 191.333333333 1400.33333333 187.333333333 1401 182 1401 c 0
 167.333333333 1401 148.333333333 1381.66666667 125 1343 c 1
 108 1354 l 1
 127.333333333 1383.33333333 137 1405 137 1419 c 0
 137 1449 110.333333333 1464 57 1464 c 0
 47 1464 13.6666666667 1453.33333333 -43 1432 c 1
 -45 1438 l 1
 3.82424204656 1455.68994277 35 1463.3997193 35 1481 c 0
 35 1492.33333333 25.3333333333 1514 6 1546 c 1
 27 1561 l 1
 49.6666666667 1525 68 1507 82 1507 c 0
 109.710179178 1507 136.883533796 1535.16265035 154 1548 c 0
 182.123240838 1567.46993596 186.192735054 1592.64245018 201 1642 c 1
 213 1638 l 1
 203.666666667 1601.33333333 199 1576.33333333 199 1563 c 0
 199 1486.62576965 296.746447703 1500.85446269 367 1495 c 1
 680 1483 l 1
 707.697831292 1483 855.912985128 1502.18626872 868 1516 c 1
 885 1532 l 2
 895.666666667 1542.66666667 901 1553 901 1563 c 0
 901 1577 890.666666667 1598 870 1626 c 1
 893 1642 l 1
 913.666666667 1608 933.333333333 1591 952 1591 c 0
 971.572804239 1591 1002.1251787 1611.90042887 1008 1626 c 1
 950 1612 l 2
 966 1616.66666667 986 1624 1010 1634 c 1
 1010 1652.66666667 1005 1674 995 1698 c 1
 1026 1708 l 1
 1035.33333333 1680.66666667 1044.33333333 1662.33333333 1053 1653 c 1
 1110.33333333 1680.33333333 1151 1710.33333333 1175 1743 c 1
 1239 1698 l 1
 1209.17366653 1655.55483314 1184 1566.40820775 1184 1497 c 0
 1184 1483.58666906 1188 1447.64150492 1188 1434 c 2
 1188 1227 l 2
 1188 1213.66666667 1191.5 1201 1198.5 1189 c 128
 1205.5 1177 1221 1158.33333333 1245 1133 c 1
 1235 1122 l 1
 1210.33333333 1146.66666667 1191.83333333 1162.5 1179.5 1169.5 c 128
 1167.16666667 1176.5 1154.33333333 1180 1141 1180 c 2
 1085 1180 l 2
 1071 1180 1059.33333333 1176 1050 1168 c 128
 1040.66666667 1160 1028 1140.66666667 1012 1110 c 1
 993 1120 l 1
 1012.33333333 1154 1022 1178.66666667 1022 1194 c 0
 1022 1198.66666667 1019.33333333 1207 1014 1219 c 1
 915 1374 l 1
 910.333333333 1378.66666667 905 1382 899 1384 c 2
 846 1395 l 1
 571 1382 l 2
 556.418152946 1382 530 1342.79926887 530 1329 c 2
 530 1266 l 1
 531.333333333 1207.33333333 532 1153.33333333 532 1104 c 1
 535.333333333 1100 537.5 1082.83333333 538.5 1052.5 c 128
 539.707715436 1015.8659651 542.321066506 926 573 926 c 2
 706 926 l 2
 742 926 760 963.333333333 760 1038 c 2
 760 1079 l 2
 760 1083.55256602 784 1154.15981519 784 1159 c 0
950 1612 m 2
 942 1609.33333333 936.666666667 1608 934 1608 c 2
 950 1612 l 2
EndSplineSet
EndChar

StartChar: G
Encoding: 71 71 44
Width: 1545
GlyphClass: 2
Flags: HW
LayerCount: 2
Fore
SplineSet
171 1454 m 0
 171 1485.65701974 138.389540929 1494.99044577 103 1511 c 1
 111 1530 l 1
 141 1517.33333333 162.333333333 1511 175 1511 c 0
 189.666666667 1511 209.5 1527.33333333 234.5 1560 c 128
 259.5 1592.66666667 281 1624.66666667 299 1656 c 128
 317 1687.33333333 326 1704 326 1706 c 0
 326 1721.33333333 318 1745.33333333 302 1778 c 1
 320 1788 l 1
 335.333333333 1756.66666667 347.5 1736.83333333 356.5 1728.5 c 128
 365.5 1720.16666667 376.666666667 1716 390 1716 c 2
 441 1716 l 2
 462.657990195 1716 480 1737.13286562 480 1759 c 0
 480 1775 476.666666667 1794.33333333 470 1817 c 1
 490 1823 l 1
 503.939403808 1776.53532064 506.324798539 1749 547 1749 c 2
 691 1749 l 2
 740.837629202 1749 746.116463794 1777.69878277 754 1825 c 1
 789 1819 l 1
 786.333333333 1806.33333333 785 1792 785 1776 c 0
 785 1737.33333333 813 1718 869 1718 c 0
 894.938130821 1718 902.060951578 1752.57066442 914 1786 c 1
 930 1782 l 1
 919.333333333 1752.66666667 914 1730.66666667 914 1716 c 0
 914 1692.59245321 950.733858973 1681.19252657 973.5 1672.5 c 128
 1049.16976371 1643.6079084 1113.97004235 1600.05242589 1154 1530 c 1
 1160.66666667 1520.66666667 1168.66666667 1516 1178 1516 c 2
 1295 1516 l 2
 1307.66666667 1516 1318.16666667 1520 1326.5 1528 c 128
 1334.83333333 1536 1346 1555.66666667 1360 1587 c 1
 1379 1579 l 1
 1363.66666667 1545.66666667 1356 1522.33333333 1356 1509 c 0
 1356 1493.08516757 1381.84877173 1464 1401 1464 c 0
 1416.33333333 1464 1438.33333333 1469.66666667 1467 1481 c 1
 1475 1462 l 1
 1437.18330936 1447.54067711 1402.07029389 1440.91382051 1399 1401 c 1
 1393 1180 l 2
 1393 1168.66666667 1396.66666667 1157 1404 1145 c 128
 1411.33333333 1133 1426.33333333 1116 1449 1094 c 1
 1436 1081 l 1
 1412 1106.33333333 1394 1122.66666667 1382 1130 c 128
 1370 1137.33333333 1357.33333333 1141 1344 1141 c 2
 1340 1141 l 1
 1338.66666667 1138.33333333 1338 1133.33333333 1338 1126 c 0
 1338 1111.33333333 1353.66666667 1091.66666667 1385 1067 c 1
 1367 1042 l 1
 1338.33333333 1065.33333333 1317 1077 1303 1077 c 1
 1291.93269516 1045.64263628 1274.91667944 1008.45833972 1248 995 c 1
 1221 1030 l 2
 1221 1031.33333333 1219 1032.66666667 1219 1034 c 0
 1206.43316663 1062.27537508 1182 1101.58164695 1182 1141 c 0
 1182 1200.13049016 1163.18382409 1271.09750603 1125 1296 c 1
 1107.97246265 1317.28442169 1079.53764443 1342.85866035 1066 1368 c 1
 1049.33333333 1364 1019 1362 975 1362 c 0
 965 1362 947.333333333 1363.33333333 922 1366 c 1
 969 1366 l 2
 985.799737257 1366 1002 1377.01110691 1002 1393 c 0
 1002 1411 988.333333333 1432.16666667 961 1456.5 c 128
 933.666666667 1480.83333333 914 1493 902 1493 c 2
 748 1505 l 1
 671.558335545 1505 631.223749642 1462.88984353 585 1434 c 128
 569 1424 554.333333333 1417.66666667 541 1415 c 0
 531.666666667 1413 525 1407.66666667 521 1399 c 0
 506.231594268 1365.24364404 455.873262948 1251.8646257 439.5 1214.5 c 128
 426.5 1184.83333333 420 1169 420 1167 c 2
 420 756 l 2
 420 589.716553281 542.639471387 510.827095053 594 393 c 1
 603.072458693 374.855082614 719.576615144 358 748 358 c 0
 758 358 767.333333333 362.5 776 371.5 c 128
 784.666666667 380.5 796.666666667 398 812 424 c 1
 832 412 l 1
 812.666666667 378 803 354.666666667 803 342 c 0
 803 325.637108513 819.021266192 307.978733808 828 299 c 1
 816 276 l 1
 847.333333333 308 882.833333333 366.833333333 922.5 452.5 c 128
 962.166666667 538.166666667 982 610 982 668 c 0
 982 697.780549551 927.659954004 705 896 705 c 0
 877.333333333 705 847.666666667 688.333333333 807 655 c 1
 797 666 l 1
 824.333333333 688.666666667 841.833333333 705.5 849.5 716.5 c 128
 857.166666667 727.5 861.666666667 738.666666667 863 750 c 1
 863 752 l 2
 863 907.848005957 850.863314214 957.50913347 791 1071 c 1
 797 1075 l 1
 840.937577678 992.983188334 887.876666817 941.07224238 977.5 915 c 128
 1019.39051628 902.813667991 1060.46623513 883.928005298 1088 854 c 1
 1098.66666667 858 1117.66666667 860 1145 860 c 0
 1169 860 1195.66666667 858.666666667 1225 856 c 0
 1335.66666667 846.666666667 1391 813.333333333 1391 756 c 0
 1391 714.025568703 1392.05883396 658.397053236 1418 644.5 c 128
 1427.33333333 639.5 1449 637 1483 637 c 1
 1483 616 l 1
 1431.16439982 616 1407.94579733 618.415710918 1399 588 c 1
 1399 578 l 2
 1399 562 1413.33333333 536 1442 500 c 1
 1430 489 l 1
 1409.33333333 517 1393.83333333 534.666666667 1383.5 542 c 128
 1373.16666667 549.333333333 1362 553 1350 553 c 2
 1260 553 l 2
 1243.10862066 553 1230.24766338 540.219623894 1229 524 c 0
 1218.54262415 407.661693642 1137.48022651 195.825821073 1082 125 c 1
 1080 133 l 1
 1080 117.666666667 1082.66666667 103.5 1088 90.5 c 128
 1093.33333333 77.5 1107 55 1129 23 c 1
 1121 16 l 1
 1079.1436422 79.4596392451 1037.30694051 125 943 125 c 2
 883 125 l 2
 875.247395776 125 850.149942335 127 842 127 c 0
 790.929061769 127 778.907534466 81.5436678388 775 20 c 1
 758 23 l 1
 759.333333333 33.6666666667 760 47 760 63 c 0
 760 86.1520388713 752.660469127 123 734 123 c 1
 676 16 l 1
 688 42 695 66.6666666667 697 90 c 1
 697 111.333333333 687.333333333 128.333333333 668 141 c 1
 660 141 l 1
 652 138.333333333 646.666666667 135 644 131 c 2
 629 111 l 2
 618.333333333 97 613 79.6666666667 613 59 c 0
 613 46.3333333333 615 27.3333333333 619 2 c 1
 603 0 l 1
 594.542144536 54.9760605131 592.400800095 79.2793599239 564 102 c 0
 530 130.666666667 493.833333333 157 455.5 181 c 128
 417.166666667 205 386.333333333 217 363 217 c 0
 342.333333333 217 319 200.666666667 293 168 c 1
 271 188 l 1
 294.333333333 216.666666667 306 240 306 258 c 0
 306 273.166104081 273.970658809 329.498800255 273 346 c 0
 273 350.666666667 262 363.666666667 240 385 c 128
 218 406.333333333 204.333333333 422 199 432 c 0
 195 440 187.666666667 444 177 444 c 0
 161.666666667 444 141 440.666666667 115 434 c 1
 111 449 l 1
 136.333333333 455.666666667 154.5 461.666666667 165.5 467 c 128
 184.549810828 476.236271916 185 473.874983496 185 496 c 0
 185 523.333333333 170.333333333 564.333333333 141 619 c 128
 111.666666667 673.666666667 97 719.333333333 97 756 c 2
 97 1049 l 2
 97 1095 109.333333333 1162.66666667 134 1252 c 128
 158.666666667 1341.33333333 171 1408.66666667 171 1454 c 0
EndSplineSet
EndChar

StartChar: H
Encoding: 72 72 45
Width: 1561
GlyphClass: 2
Flags: HW
LayerCount: 2
Fore
SplineSet
1330 1440 m 0
 1322.49050683 1440 1287 1422.85962142 1287 1407 c 0
 1287 1404.33333333 1291.66666667 1398.33333333 1301 1389 c 1
 1334.12496435 1346.06023139 1350 1203.02651453 1350 1126 c 1
 1340 668 l 1
 1333.61926454 613.763748613 1334.42383758 551.096179857 1308.5 519 c 128
 1298.02307054 506.028563528 1269 492.28892598 1269 469 c 2
 1269 324 l 2
 1269 318 1284.33333333 301.833333333 1315 275.5 c 128
 1345.66666667 249.166666667 1362.33333333 236 1365 236 c 0
 1379 231.333333333 1389.33333333 229 1396 229 c 0
 1408 229 1437.33333333 244 1484 274 c 1
 1490 262 l 1
 1458.66666667 242 1438.33333333 227.5 1429 218.5 c 128
 1419.66666667 209.5 1414 200 1412 190 c 1
 1412 186 l 1
 1409.33333333 183.333333333 1408 180.666666667 1408 178 c 0
 1408 170.666666667 1412.33333333 163 1421 155 c 128
 1429.66666667 147 1447 133.666666667 1473 115 c 1
 1465 100 l 1
 1431 124.666666667 1406.33333333 137 1391 137 c 0
 1385.66666667 137 1380.33333333 135.666666667 1375 133 c 2
 1350 115 l 2
 1342 110.333333333 1338 100 1338 84 c 0
 1338 80.3891101504 1340 62.4205638041 1340 59 c 2
 1342 -12 l 1
 1307 -12 l 1
 1307 72 l 2
 1307 94 1284.33333333 109.5 1239 118.5 c 128
 1193.66666667 127.5 1140.66666667 134 1080 138 c 128
 956.78219299 146.124251012 960.301372433 149.288832845 880 195.5 c 128
 844.666666667 215.833333333 817 229.333333333 797 236 c 1
 806 311 l 1
 823.333333333 318.333333333 853.333333333 322 896 322 c 2
 951 322 l 2
 974.333333333 322 986 332.666666667 986 354 c 0
 988.316427463 426.967465085 1018.76851367 657.360951177 1021 731 c 1
 1021 764.176454304 991.928849479 764 959 764 c 0
 914.333333333 764 877.666666667 761.333333333 849 756 c 1
 811.110159516 750.587165645 810 719.496403976 810 664 c 1
 785 664 l 1
 785 719.20105178 785.452577638 750.649631766 748 756 c 0
 725.333333333 760 686.666666667 762 632 762 c 0
 563.333333333 762 527.666666667 750.333333333 525 727 c 1
 513 410 l 1
 510.477005596 375.939575543 551.610501273 311 585 311 c 0
 606.333333333 311 617 334.333333333 617 381 c 2
 617 408 l 1
 632 408 l 1
 632.878223397 359.697713145 629.284066281 328.17898343 654 322 c 1
 677 315 l 2
 679.666666667 313.666666667 684.333333333 313 691 313 c 0
 702.333333333 313 733 323.333333333 783 344 c 1
 787 334 l 1
 737 312.666666667 705 293.333333333 691 276 c 1
 687 266 l 1
 680.333333333 257.333333333 677 248.666666667 677 240 c 1
 693 248 l 1
 689 233 l 1
 683.666666667 233 679.666666667 232.333333333 677 231 c 1
 679 214.333333333 692 191.333333333 716 162 c 1
 695 145 l 1
 665 186.333333333 641 207 623 207 c 0
 600.333333333 207 570 199 532 183 c 128
 478.508161392 160.477120586 369.085070135 100.990985816 320 84 c 1
 299.822651226 75.5927713441 296.337349371 72.0120481128 288 47 c 128
 283.333333333 33 279.666666667 13.3333333333 277 -12 c 1
 257 -10 l 1
 258.333333333 4.66666666667 259 21.6666666667 259 41 c 0
 259 62.9308288478 259.843644012 82 242 82 c 0
 223.362998886 82 208 62.4417067302 208 43 c 2
 208 16 l 2
 208 4 203.5 -11 194.5 -29 c 128
 185.5 -47 181 -75.6666666667 181 -115 c 2
 181 -150 l 1
 175 -150 l 1
 171.609074224 -83.3117930759 171.099048739 -71.2377169747 156 -35 c 1
 150.666666667 -29.6666666667 144 -27 136 -27 c 0
 120.666666667 -27 96.6666666667 -30.3333333333 64 -37 c 1
 62 -27 l 1
 94.5940243045 -19.0717238178 140.372869793 -13.389911447 144 12 c 1
 144 20.2210258221 182.874797167 121.250405666 181 125 c 2
 144 188 l 1
 128.052951397 219.894097205 97.3145825273 221.295687276 42 231 c 1
 44 250 l 1
 70 244.666666667 91.6666666667 242 109 242 c 0
 133 242 156.833333333 251.166666667 180.5 269.5 c 128
 204.166666667 287.833333333 216 301.666666667 216 311 c 2
 216 653 l 2
 216 672.003017858 183 742.60958439 183 762 c 2
 183 1073 l 2
 183 1078.33333333 162.666666667 1092 122 1114 c 1
 140 1155 l 1
 149.276291054 1152.68092724 162.474233448 1145 171 1145 c 0
 195.62206552 1145 216 1165.69737223 216 1190 c 1
 202 1366 l 2
 202 1369.33333333 198.333333333 1374.66666667 191 1382 c 2
 113 1452 l 2
 99 1464 77.3333333333 1470 48 1470 c 0
 27.3333333333 1470 9.66666666667 1469.33333333 -5 1468 c 1
 -5 1489 l 1
 55.3535360412 1493.38934808 81.6227135962 1496.99738697 107 1526 c 1
 152 1587 l 2
 168.666666667 1610.33333333 178.333333333 1650.66666667 181 1708 c 1
 193 1708 l 1
 191.666666667 1696 191 1681 191 1663 c 0
 191 1623.66666667 196.666666667 1597 208 1583 c 1
 229.849689574 1565.52024834 455.913580556 1542 498 1542 c 0
 507.333333333 1542 516.166666667 1546.5 524.5 1555.5 c 128
 532.833333333 1564.5 545.333333333 1584 562 1614 c 1
 576 1606 l 1
 556 1570 546 1543.33333333 546 1526 c 0
 546 1493.33333333 587.666666667 1477 671 1477 c 0
 692.333333333 1477 730.333333333 1488.33333333 785 1511 c 1
 789 1499 l 1
 739.666666667 1478.33333333 707 1460 691 1444 c 1
 711 1448 l 1
 699 1403 l 1
 691.815403376 1403 664.995104633 1405 658 1405 c 1
 655.333333333 1402.33333333 654 1399.66666667 654 1397 c 0
 654 1382.33333333 657.333333333 1367.66666667 664 1353 c 128
 670.666666667 1338.33333333 685 1315.33333333 707 1284 c 1
 695 1276 l 1
 671.666666667 1307.33333333 654.166666667 1328 642.5 1338 c 128
 630.833333333 1348 618.333333333 1354.66666667 605 1358 c 2
 572 1368 l 1
 562 1368 l 2
 535.206734187 1368 513 1314.44694687 513 1290 c 2
 513 961 l 2
 513 937.666666667 524 926 546 926 c 2
 711 926 l 2
 735.50641042 926 797.971340099 963 822 963 c 0
 847.403241586 963 926.395363433 930 951 930 c 0
 970.527083919 930 986 946.883007339 986 967 c 2
 986 1323 l 2
 986 1348.33333333 937.666666667 1370.33333333 841 1389 c 1
 812 1462 l 1
 828.666666667 1462 843 1460 855 1456 c 1
 874.140662964 1456 886 1474.80947272 886 1495 c 0
 886 1512.33333333 882.333333333 1534.33333333 875 1561 c 1
 898 1567 l 1
 912.114710373 1517.12802335 916.502877524 1487 961 1487 c 2
 970 1487 l 2
 976.666666667 1487 990.333333333 1495.83333333 1011 1513.5 c 128
 1031.66666667 1531.16666667 1052 1540 1072 1540 c 1
 1089.59231946 1548.79615973 1090 1562.82555393 1090 1595 c 2
 1090 1636 l 1
 1107 1636 l 1
 1108.48674409 1610.72535054 1107.26220986 1579.35261525 1117 1561.5 c 128
 1125.08970201 1546.66887965 1135.36484902 1548.21171699 1154 1542 c 0
 1155.33333333 1540.66666667 1158 1540 1162 1540 c 0
 1205.64996832 1543.35768987 1295.93416308 1583.32973712 1326 1604 c 1
 1352.03570041 1619.1874919 1351.43832121 1651.16405147 1357 1704 c 1
 1371 1702 l 1
 1368.33333333 1681.33333333 1367 1660 1367 1638 c 0
 1367 1597.81763367 1375.71241576 1585 1416 1585 c 0
 1428 1585 1449 1587 1479 1591 c 1
 1484 1575 l 1
 1428.76297105 1567.96983268 1402.67072136 1567.45120226 1385 1538 c 1
 1371 1503 l 2
 1368.33333333 1495 1367 1489 1367 1485 c 0
 1367 1467 1384.66666667 1443.66666667 1420 1415 c 1
 1404 1395 l 1
 1367.33333333 1425 1342.66666667 1440 1330 1440 c 0
EndSplineSet
EndChar

StartChar: I
Encoding: 73 73 46
Width: 808
GlyphClass: 2
Flags: HW
LayerCount: 2
Fore
SplineSet
646 1393 m 1
 588.767547723 1393 570 1385.39093096 570 1329 c 0
 570 1268.01508446 584 1076.73361539 584 1016 c 0
 584 938.820531378 560 508.67174481 560 457 c 0
 560 443 563.666666667 431 571 421 c 128
 578.333333333 411 596.333333333 396.333333333 625 377 c 1
 615 360 l 1
 579.666666667 383.333333333 553.666666667 395 537 395 c 0
 515 395 504 385.666666667 504 367 c 2
 504 279 l 2
 504 254.48179354 547.417353975 240.371487967 570 234.5 c 128
 593.421341862 228.410451116 636 213.779770539 636 188 c 0
 636 187.089112029 633 180.908728084 633 180 c 0
 633 170.680337008 663.785205668 112.644382997 666 106 c 0
 673.333333333 78.6666666667 695.333333333 46.6666666667 732 10 c 1
 724 0 l 1
 698.666666667 25.3333333333 679.5 42.8333333333 666.5 52.5 c 128
 653.5 62.1666666667 640.333333333 68.6666666667 627 72 c 1
 625 72 l 2
 623.877889348 72 620.121030709 74 619 74 c 0
 585.888050153 74 578 8.97581210395 578 -25 c 1
 554 -23 l 1
 554 29.5049870048 530.97157295 85.5826489817 488 96 c 1
 468 59 l 2
 472 68.3333333333 474 76.6666666667 474 84 c 0
 474 86.0329986233 472 95.9702412066 472 98 c 1
 468 98 450.666666667 96.6666666667 420 94 c 1
 420 104 l 1
 466 109 l 1
 454.666666667 123.666666667 441.666666667 131 427 131 c 2
 316 131 l 2
 305.333333333 131 278.166666667 115.833333333 234.5 85.5 c 128
 190.833333333 55.1666666667 169 31.3333333333 169 14 c 1
 152 -45 l 1
 124 -37 l 1
 144 18 l 1
 144 70.2990460973 204.159728855 141.931060589 230 177 c 0
 249.333333333 202.333333333 259 220.333333333 259 231 c 2
 244 1425 l 2
 244 1436.33333333 234 1447 214 1457 c 128
 170.556149171 1478.72192541 193.122219985 1498.59227967 148.5 1517.5 c 128
 128.833333333 1525.83333333 114.333333333 1530 105 1530 c 0
 91 1530 70.6666666667 1513 44 1479 c 1
 27 1491 l 1
 51.6666666667 1519.66666667 64 1544.33333333 64 1565 c 0
 64 1582.33333333 30 1606.66666667 -38 1638 c 1
 -36 1642 l 1
 11.3333333333 1620.66666667 44 1610 62 1610 c 2
 142 1610 l 2
 190.842592881 1610 200.27775742 1636.65272994 220 1683 c 1
 246 1673 l 1
 234 1641.66666667 228 1619.33333333 228 1606 c 0
 228 1562.30808492 285.323344796 1538 330 1538 c 2
 480 1538 l 1
 521 1595 l 1
 535 1581 l 1
 539 1585 541 1591 541 1599 c 0
 541 1614.33333333 533 1638.33333333 517 1671 c 1
 537 1681 l 1
 552.333333333 1649.66666667 564.333333333 1630 573 1622 c 128
 581.666666667 1614 593 1610 607 1610 c 2
 646 1610 l 2
 655.691828534 1610 722 1680.24386419 722 1690 c 0
 722 1698.66666667 716.333333333 1720.33333333 705 1755 c 1
 715 1759 l 1
 727.282022742 1722.15393177 732.645180128 1688 756 1688 c 2
 762 1688 l 2
 775.333333333 1688 806.333333333 1697.33333333 855 1716 c 1
 857 1712 l 1
 809.666666667 1694.66666667 780.333333333 1681 769 1671 c 2
 742 1647 l 2
 736.666666667 1641 734 1634 734 1626 c 0
 730.77785457 1542.22421883 683.669848353 1547.1230516 615.5 1526 c 128
 591.833333333 1518.66666667 575.333333333 1513.66666667 566 1511 c 1
 572 1473 l 2
 576.898097212 1440.34601858 601.50884151 1440 646 1440 c 1
 646 1393 l 1
EndSplineSet
EndChar

StartChar: J
Encoding: 74 74 47
Width: 1205
GlyphClass: 2
Flags: HW
LayerCount: 2
Fore
SplineSet
48 1677 m 0
 62.4347842849 1677 70 1678.38474359 70 1692 c 1
 80 1710.66666667 85 1723 85 1729 c 0
 85 1742.33333333 74.6666666667 1766.66666667 54 1802 c 1
 70 1810 l 1
 87.3333333333 1780.66666667 100.833333333 1762.16666667 110.5 1754.5 c 128
 120.166666667 1746.83333333 131.333333333 1743 144 1743 c 2
 330 1743 l 2
 380.292488355 1743 387.587362748 1767.28067811 400 1819 c 1
 433 1810 l 1
 426.333333333 1790 423 1771.66666667 423 1755 c 0
 423 1704.15382175 497.58573917 1685.6175336 550 1688 c 2
 634 1692 l 1
 646 1694.66666667 652 1697.33333333 652 1700 c 1
 686 1744.66666667 797.333333333 1767 986 1767 c 2
 1232 1767 l 2
 1253.33333333 1767 1290 1781.33333333 1342 1810 c 1
 1348 1798 l 1
 1318 1781.33333333 1294.33333333 1765.66666667 1277 1751 c 128
 1239.99588235 1719.68882353 1242.76772289 1692.20429049 1201 1669 c 0
 1195.66666667 1666.33333333 1192.33333333 1663.66666667 1191 1661 c 2
 1178 1642 l 1
 1172.66666667 1631.33333333 1170 1622.66666667 1170 1616 c 0
 1170 1600 1181.66666667 1576 1205 1544 c 1
 1184 1532 l 1
 1158 1568.66666667 1136.33333333 1587 1119 1587 c 0
 1081.83413536 1587 1025 1562.52782358 1025 1526 c 0
 1025 1512 1027.66666667 1494.33333333 1033 1473 c 1
 1017 1468 l 1
 1010.02265978 1502.88670112 1005.88705004 1543.011295 976 1546 c 1
 974 1546 l 2
 902.666666667 1546 867 1531.66666667 867 1503 c 2
 867 1270 l 2
 867 1251.16047953 895.039109011 1229 914 1229 c 0
 926 1229 948.666666667 1235.66666667 982 1249 c 1
 990 1229 l 1
 958 1215.66666667 938 1204.83333333 930 1196.5 c 128
 922 1188.16666667 918 1177 918 1163 c 2
 918 1104 l 2
 918 1059.22303168 945.254303817 1054.67388101 994 1042 c 1
 986 1016 l 1
 964 1021.33333333 946.333333333 1024 933 1024 c 0
 850.731635002 1024 849 842.720319988 849 758 c 0
 849 697.019464253 867 452.481218622 867 397 c 0
 867 339.666666667 861 299.333333333 849 276 c 1
 842.773898447 266.660847671 832.73930844 255.492872294 824.5 250 c 128
 821.5 248 820 246.666666667 820 246 c 1
 844.666666667 246 881.666666667 259 931 285 c 1
 935 274 l 1
 853.285251412 234.776920678 848.752889668 215.160223293 809 160.5 c 128
 782.485312855 124.042305175 759.62592283 80.5876398712 749 31 c 128
 747 21.6666666667 746 12.6666666667 746 4 c 128
 746 -4.66666666667 750 -13.6666666667 758 -23 c 128
 766 -32.3333333333 782 -45 806 -61 c 1
 795 -76 l 1
 758.333333333 -50 734.666666667 -37 724 -37 c 0
 689.476043078 -37 621 -120.558025393 621 -154 c 0
 621 -165.333333333 636.666666667 -187 668 -219 c 1
 656 -233 l 1
 624 -201.666666667 601.666666667 -186 589 -186 c 0
 545.156313995 -186 517 -243.91504076 517 -287 c 0
 517 -309.666666667 533.333333333 -339 566 -375 c 1
 548 -389 l 1
 526.666666667 -365.666666667 509.333333333 -350 496 -342 c 128
 482.666666667 -334 469 -330 455 -330 c 2
 447 -330 l 2
 434.552112648 -330 391.570643038 -324 378 -324 c 1
 376.666666667 -325.333333333 375 -326 373 -326 c 2
 369 -326 l 1
 336.336736772 -332.532652646 327.804167825 -364.160205612 310 -406 c 1
 296 -399 l 1
 310.666666667 -361.666666667 318 -336.666666667 318 -324 c 0
 318 -316.666666667 311.833333333 -295.333333333 299.5 -260 c 128
 287.166666667 -224.666666667 280.333333333 -196 279 -174 c 1
 279 -153.148004203 272.570486904 -150.380324603 255.5 -139 c 128
 244.5 -131.666666667 228 -123.666666667 206 -115 c 1
 214 -98 l 1
 247.333333333 -113.333333333 270.333333333 -121 283 -121 c 0
 313.435530584 -121 353 -59.6291799765 353 -31 c 0
 353 -14.3333333333 341.333333333 11.6666666667 318 47 c 1
 335 59 l 1
 354.333333333 30.3333333333 369.333333333 12 380 4 c 128
 390.666666667 -4 402.666666667 -8 416 -8 c 2
 490 -8 l 2
 505.567813212 -8 516.520142557 2.36078406258 519 16 c 2
 527 66 l 2
 527 68.7768616776 525 76.9250236761 525 80 c 0
 525 87.1472568667 539 139.181571408 539 145 c 2
 539 207 l 2
 539 211 537.666666667 215.666666667 535 221 c 0
 517.666666667 246.333333333 509 278.333333333 509 317 c 0
 509 338.786479641 512.517246368 365.137970945 515 385 c 0
 515 389 506.166666667 406 488.5 436 c 128
 470.833333333 466 459.666666667 488.666666667 455 504 c 1
 453 517.333333333 443 524 425 524 c 0
 415.666666667 524 398.333333333 522 373 518 c 1
 371 537 l 1
 405.582168414 542.763694736 445 544.294244334 445 575 c 0
 444.333333333 591 439.333333333 670.666666667 430 814 c 128
 420.666666667 957.333333333 416 1110.66666667 416 1274 c 0
 416 1315.59818105 421 1451.89814373 421 1489 c 0
 421 1504.86973834 405.816991848 1518 390 1518 c 0
 328.118994472 1520.25021838 123.822451851 1539.75191084 62 1542 c 0
 35.3333333333 1542 -1.33333333333 1526.33333333 -48 1495 c 1
 -57 1507 l 1
 -28.3333333333 1527 -8.5 1543.16666667 2.5 1555.5 c 128
 13.5 1567.83333333 21 1580.33333333 25 1593 c 2
 36 1622 l 2
 37.3333333333 1624.66666667 38 1628.66666667 38 1634 c 0
 38 1647.33333333 17.3333333333 1663.66666667 -24 1683 c 1
 -14 1700 l 1
 16 1684.66666667 36.6666666667 1677 48 1677 c 0
EndSplineSet
EndChar

StartChar: K
Encoding: 75 75 48
Width: 1350
GlyphClass: 2
Flags: HW
LayerCount: 2
Fore
SplineSet
580 1503 m 2
 558.758726508 1503 549 1479.86171667 549 1458 c 2
 549 1196 l 2
 549 1172.41984412 561.292291519 1155 584 1155 c 0
 589.333333333 1155 596 1157 604 1161 c 1
 621 1174 l 1
 651 1206 l 1
 621 1255 l 1
 653 1206 l 1
 679 1234 703.666666667 1252 727 1260 c 1
 727 1270 l 2
 727 1293.92445966 734.21952414 1313.43904828 742 1329 c 1
 743 1333 l 1
 756 1360 l 1
 766 1427 l 2
 766 1433 763.333333333 1440 758 1448 c 1
 707 1497 l 1
 699.666666667 1501 693.333333333 1503 688 1503 c 2
 580 1503 l 2
639 1575 m 0
 649.983389569 1575 661 1596.28049435 661 1608 c 0
 661 1619.33333333 654.333333333 1641.66666667 641 1675 c 1
 661 1683 l 1
 674.333333333 1651.66666667 685.166666667 1632 693.5 1624 c 128
 701.833333333 1616 713 1612 727 1612 c 2
 762 1612 l 2
 792.067244112 1612 798.636082209 1613.53482195 810 1635 c 128
 816 1646.33333333 821 1664 825 1688 c 1
 858 1681 l 1
 855.333333333 1659.66666667 854 1646.66666667 854 1642 c 0
 854 1591.59066054 942.03709077 1575.19505456 996 1568 c 128
 1056 1560 1056 1560 1116 1552 c 128
 1171.54071072 1544.5945719 1261.67435981 1529.958457 1270 1485 c 0
 1270 1481 1271.33333333 1477.66666667 1274 1475 c 2
 1286 1454 l 1
 1300.66666667 1433.33333333 1332 1410 1380 1384 c 1
 1376 1376 l 1
 1328 1402 1291.33333333 1415 1266 1415 c 2
 1262 1415 l 2
 1244.57297231 1415 1208 1371.49731286 1208 1352 c 0
 1208 1340 1210 1320.66666667 1214 1294 c 1
 1198 1292 l 1
 1190.59164713 1340.15429369 1190.74381252 1368.04803515 1159 1374 c 2
 1112 1384 l 2
 1110.87788935 1384 1107.12103071 1386 1106 1386 c 128
 1104.87788935 1386 1101.12103071 1384 1100 1384 c 0
 1065.89652446 1372.63217482 1022.08615471 1348 979 1348 c 2
 971 1348 l 2
 961 1348 953.333333333 1345 948 1339 c 2
 766 1155 l 1
 772 1159 l 1
 825 1067 l 1
 800.333333333 1051.66666667 788 1033.33333333 788 1012 c 0
 788 990.108733316 804.606199065 954.761348474 812.5 939.5 c 128
 823.215581528 918.783209045 846.249906148 876.546173651 868 848.5 c 128
 889.785552116 820.40810385 910.75625681 791.023394936 917 752 c 1
 917 743.333333333 922 737.666666667 932 735 c 1
 965.185271261 717.685945429 983 589.603364628 983 537 c 0
 983 529.666666667 981.666666667 519.333333333 979 506 c 1
 1034.46453079 477.677686407 1139 337.677137012 1139 254 c 0
 1139 248.850380289 1104 180.701418405 1104 176 c 0
 1104 168.666666667 1115 144.666666667 1137 104 c 1
 1128 100 l 1
 1115.57746121 124.068668898 1102.22861658 168 1079 168 c 2
 1053 168 l 2
 1025.66666667 168 1002.33333333 185.666666667 983 221 c 1
 980.419633903 231.321464387 947.479701796 246.461256666 935 255 c 128
 917.266144085 267.133690889 906.494380331 273.513112562 899 291 c 0
 898.333333333 293.666666667 897.666666667 295 897 295 c 0
 885.666666667 295 874.166666667 291.166666667 862.5 283.5 c 128
 850.833333333 275.833333333 833.666666667 259 811 233 c 1
 799 244 l 1
 831.666666667 281.333333333 848 308.666666667 848 326 c 1
 844 377 l 1
 834 420 l 1
 830.666666667 428.666666667 825.666666667 434.666666667 819 438 c 0
 780.470503871 459.405275627 745 514.925463336 745 569 c 1
 747 578 l 1
 736.333333333 583.333333333 727.666666667 586 721 586 c 0
 706.333333333 586 683 574.333333333 651 551 c 1
 637 569 l 1
 676.333333333 598.333333333 696 621.666666667 696 639 c 0
 696 700.786793265 653.744015758 746.751994747 608 762 c 1
 606 764 l 1
 581.333333333 764 569 740.666666667 569 694 c 0
 569 645.07161282 608.491445068 452.022615611 647 444 c 1
 653 444 l 1
 657 442.666666667 662.666666667 442 670 442 c 0
 686.666666667 442 714 456.333333333 752 485 c 1
 762 471 l 1
 734.666666667 449 717.166666667 432.5 709.5 421.5 c 128
 701.833333333 410.5 698 398.333333333 698 385 c 2
 698 371 l 2
 698 364.333333333 701.666666667 356 709 346 c 1
 728.425420207 314.212948753 751.0145383 310.488770755 807 305 c 1
 805 285 l 1
 791 286.333333333 775.333333333 287 758 287 c 0
 730 287 710 280 698 266 c 1
 668 186 l 1
 670.909828857 153.991882568 708.17357457 148.218759673 743 139 c 1
 739 121 l 1
 714.333333333 127.666666667 693.333333333 131 676 131 c 0
 657.911940713 131 652.234963782 122.575942051 645 111 c 0
 635.666666667 95 631 60 631 6 c 1
 621 6 l 1
 618.516563016 73.8806108959 619.816227881 127 575 127 c 0
 563.666666667 127 542.666666667 123 512 115 c 1
 506 131 l 1
 549.250731745 143.110204889 580 146.453454071 580 180 c 1
 567 233 l 1
 545 242 l 1
 500 238 l 1
 500 236.666666667 485.166666667 225.166666667 455.5 203.5 c 128
 425.833333333 181.833333333 410 166.666666667 408 158 c 1
 403 96 l 2
 403 85.5410713017 381 10.5879060379 381 -4 c 128
 381 -17.3333333333 383 -43.3333333333 387 -82 c 1
 381 -82 l 1
 374.687185472 -30.2349208698 373.189940195 -6.98323365808 354 25 c 0
 348.666666667 33 341.333333333 37 332 37 c 128
 322.666666667 37 301.333333333 33 268 25 c 1
 264 39 l 1
 305.545301066 50.6326842985 338 53.8377327747 338 84 c 1
 354 246 l 1
 354 260 350.166666667 271.166666667 342.5 279.5 c 128
 334.833333333 287.833333333 315 298.333333333 283 311 c 1
 291 332 l 1
 323.666666667 318 346 311 358 311 c 0
 369.333333333 311 379 316.666666667 387 328 c 1
 410 348 l 1
 414 354 416 360.333333333 416 367 c 0
 414.864279645 415.835975285 395 592.228750322 395 643 c 0
 395 647 393.666666667 651.666666667 391 657 c 2
 377 678 l 1
 367.666666667 690 358 696 348 696 c 0
 334 696 313.666666667 690.666666667 287 680 c 1
 279 700 l 1
 315.232521441 713.802865311 346 722.13055992 346 754 c 1
 330 868 l 1
 322.666666667 872 314.333333333 874 305 874 c 0
 290.333333333 874 265.666666667 863.333333333 231 842 c 1
 219 860 l 1
 245.666666667 877.333333333 263.333333333 890.666666667 272 900 c 128
 280.666666667 909.333333333 285 919.333333333 285 930 c 0
 285 990.71624541 261.132203515 1194.12541723 260 1253 c 0
 260 1260.33333333 257.333333333 1266.66666667 252 1272 c 1
 250 1272 l 1
 238 1284 218.666666667 1290 192 1290 c 0
 173.333333333 1290 157.666666667 1289.33333333 145 1288 c 1
 143 1305 l 1
 198.940524047 1310.4843651 220.188486108 1313.91798148 242 1343 c 1
 256 1364 l 2
 258.666666667 1369.33333333 260 1374 260 1378 c 2
 260 1427 l 1
 245.333333333 1416.33333333 234.333333333 1394 227 1360 c 1
 180 1370 l 1
 182.666666667 1388.66666667 184 1401 184 1407 c 0
 184 1503.23268989 45.2425982006 1452.03552864 29 1530 c 0
 21.5726681242 1563.42299344 -18.7809678807 1556 -80 1556 c 1
 -80 1565 l 1
 -9.08717088062 1565 -1.12658301626 1562.47065549 37 1585 c 0
 56.3333333333 1595.66666667 66 1607.33333333 66 1620 c 128
 66 1632.66666667 60.3333333333 1652.33333333 49 1679 c 1
 68 1688 l 1
 85.3333333333 1645.33333333 100.333333333 1624 113 1624 c 1
 126.333333333 1631.33333333 133 1658 133 1704 c 1
 158 1704 l 1
 158 1646.2742309 168.202955284 1610 215 1610 c 0
 255.712817501 1610 387.324440543 1632 428 1632 c 0
 487.750507085 1632 577.635824823 1612.00037043 614 1587 c 0
 624.666666667 1579 633 1575 639 1575 c 0
EndSplineSet
EndChar

StartChar: L
Encoding: 76 76 49
Width: 1103
GlyphClass: 2
Flags: HW
LayerCount: 2
Fore
SplineSet
576 1741 m 1
 576 1695.01530717 572.419707018 1659 621 1659 c 0
 627 1659 633.666666667 1662.66666667 641 1670 c 128
 648.333333333 1677.33333333 661 1693.33333333 679 1718 c 1
 689 1712 l 1
 663 1676 650 1652 650 1640 c 0
 650 1630.54434403 666 1579.27969086 666 1567 c 2
 666 1550 l 2
 666 1543.33333333 669 1535.66666667 675 1527 c 128
 681 1518.33333333 696 1501.66666667 720 1477 c 1
 713 1470 l 1
 690.333333333 1496 674.833333333 1512.16666667 666.5 1518.5 c 128
 658.166666667 1524.83333333 650.666666667 1528 644 1528 c 2
 619 1530 l 2
 613.666666667 1530 607 1528.66666667 599 1526 c 1
 513 1452 l 2
 505.666666667 1446.66666667 502 1440 502 1432 c 0
 502 1374.46388972 510.289240461 1260 568 1260 c 0
 578.666666667 1260 593 1262 611 1266 c 1
 617 1231 l 1
 586.276652902 1224.01742111 548 1216.8638527 548 1182.5 c 128
 548 1180 548 1180 548 1161 c 0
 548 1118.53343143 577.37867979 1118 632 1118 c 1
 632 1096 l 1
 581.166831283 1096 555.618102167 1097.37197059 552 1063 c 1
 549.333333333 1047.66666667 548 1024.33333333 548 993 c 0
 548 930.518232038 562 631.10824536 562 569 c 2
 562 528 l 2
 562 510.169704405 582.450679362 487 599 487 c 0
 610.333333333 487 630.666666667 492.666666667 660 504 c 1
 668 481 l 1
 636.658633708 469.749253126 601 460.092618905 601 434 c 0
 601 428.666666667 601.666666667 424.666666667 603 422 c 2
 611 387 l 2
 615 372.333333333 625.333333333 365 642 365 c 1
 744 383 l 1
 780.215439154 396.342530215 784.732704793 420.04537426 799 471 c 1
 818 467 l 1
 810 434.333333333 806 411.666666667 806 399 c 0
 806 373 816 360 836 360 c 2
 904 360 l 2
 924.666666667 360 951.666666667 389.833333333 985 449.5 c 128
 1018.33333333 509.166666667 1035 547 1035 563 c 0
 1035 575 1018.66666667 596.333333333 986 627 c 1
 998 639 l 1
 1028 609 1049.33333333 594 1062 594 c 0
 1100 594 1138.66666667 645.333333333 1178 748 c 1
 1184 745 l 1
 1165.33333333 691.666666667 1156 653.666666667 1156 631 c 2
 1156 432 l 2
 1156 401.333333333 1143 359.5 1117 306.5 c 128
 1091 253.5 1078 213.333333333 1078 186 c 0
 1078 170.666666667 1097 149.666666667 1135 123 c 1
 1123 106 l 1
 1089.66666667 130.666666667 1066.33333333 143 1053 143 c 0
 1047.66666667 143 1037.66666667 139 1023 131 c 1
 996.916125087 113.610750058 994.560395993 85.9618359684 984 37 c 1
 974 39 l 1
 980.666666667 68.3333333333 984 92.3333333333 984 111 c 0
 984 132.406743394 950.530440708 190.52461003 947 207 c 1
 920.151194466 199.10329249 916 180.0753435 916 141 c 2
 916 127 l 1
 883 127 l 1
 881.892303721 183.492510247 878.755245159 203.684796655 834 207 c 0
 810.666666667 208.333333333 776.666666667 209 732 209 c 0
 655.333333333 209 600.5 203.833333333 567.5 193.5 c 128
 534.5 183.166666667 485 159 419 121 c 1
 393.414603037 103.287032872 394.035213381 80.2993137367 388 29 c 1
 373 31 l 1
 376.333333333 47 378 65.3333333333 378 86 c 0
 378 118.644509043 364.514558865 132.242720568 343 143 c 1
 333.666666667 143 310.333333333 135.666666667 273 121 c 1
 269 131 l 1
 300.333333333 144.333333333 319.833333333 153.833333333 327.5 159.5 c 128
 335.166666667 165.166666667 339 171.333333333 339 178 c 2
 339 207 l 2
 339 227 342.333333333 248 349 270 c 0
 349 271.333333333 344.333333333 275 335 281 c 1
 351 274 l 1
 373 297 l 2
 377.666666667 301 380 306.333333333 380 313 c 1
 378.666666667 319.666666667 371 341.666666667 357 379 c 1
 367 383 l 1
 377.666666667 354.333333333 388 332.333333333 398 317 c 1
 404.666666667 322.333333333 408 329.333333333 408 338 c 0
 408 344 406 352 402 362 c 0
 384.197495166 412.864299525 399.640256997 567 332 567 c 0
 322.666666667 567 307.666666667 565 287 561 c 1
 281 592 l 1
 321.324468009 599.331721456 351 603.607692037 351 637 c 2
 351 649 l 1
 347 681.666666667 332.333333333 756 307 872 c 128
 281.666666667 988 268.333333333 1072.66666667 267 1126 c 0
 267 1127.33333333 260.833333333 1140.83333333 248.5 1166.5 c 128
 236.166666667 1192.16666667 230 1218.33333333 230 1245 c 0
 230 1259.02804031 232 1308.1808878 232 1321 c 0
 232 1386.33333333 219.666666667 1419 195 1419 c 0
 179.14359501 1419 121.019804337 1423 105 1423 c 0
 88.3333333333 1423 61 1406.66666667 23 1374 c 1
 13 1386 l 1
 39 1409.33333333 55.6666666667 1426.83333333 63 1438.5 c 128
 70.3333333333 1450.16666667 74 1462.33333333 74 1475 c 2
 74 1548 l 2
 74 1560.66666667 70.3333333333 1572.83333333 63 1584.5 c 128
 55.6666666667 1596.16666667 39.6666666667 1614 15 1638 c 1
 25 1651 l 1
 64.3333333333 1615 93.6666666667 1597 113 1597 c 0
 200.679582766 1597 464.065125909 1636.17456666 531 1655 c 1
 558.152192763 1659.79156343 560 1671.18580991 560 1708 c 2
 560 1739 l 1
 576 1741 l 1
EndSplineSet
EndChar

StartChar: M
Encoding: 77 77 50
Width: 1923
GlyphClass: 2
Flags: HW
LayerCount: 2
Fore
SplineSet
262 1485 m 2
 252 1485 l 1
 253.333333333 1483.66666667 255.333333333 1483 258 1483 c 1
 259.333333333 1484.33333333 260.666666667 1485 262 1485 c 2
701 223 m 0
 685.957660789 223 678 225.748365191 678 217 c 1
 672.666666667 211.666666667 670 206.333333333 670 201 c 0
 670 190.333333333 676 171.666666667 688 145 c 1
 676 143 l 1
 662.666666667 177.666666667 650.333333333 195 639 195 c 0
 597 195 528.166666667 184.333333333 432.5 163 c 128
 336.833333333 141.666666667 289 125 289 113 c 0
 289 95 304 70.3333333333 334 39 c 1
 328 31 l 1
 307.333333333 51 292.166666667 63.8333333333 282.5 69.5 c 128
 272.833333333 75.1666666667 262.666666667 78 252 78 c 0
 214 78 185.333333333 55.3333333333 166 10 c 1
 148 12 l 1
 191 106 l 1
 191 110 168.333333333 123 123 145 c 1
 138 174 l 1
 171.333333333 160.666666667 189 154 191 154 c 0
 204.333333333 154 211 159.333333333 211 170 c 0
 211 181.333333333 201 197 181 217 c 1
 197 231 l 1
 219 207 234 195 242 195 c 0
 247.333333333 195 254 199 262 207 c 1
 322.418700235 250.343850168 334 296.257582374 334 397 c 0
 334 417.877565395 326 487.362162663 326 508 c 0
 326 514.65890268 328 528.060300247 328 535 c 0
 328 536.333333333 326.666666667 539.666666667 324 545 c 0
 300.666666667 577.666666667 289 621.333333333 289 676 c 0
 289 702.666666667 291 727.333333333 295 750 c 1
 295 752 l 2
 295 933.847418003 286.086259487 1181.50436264 270.5 1348.5 c 128
 263.5 1423.5 254.666666667 1471.66666667 244 1493 c 1
 203 1532 l 1
 197.666666667 1534.66666667 193 1536 189 1536 c 2
 111 1536 l 2
 79.5053056233 1536 74.9537849895 1514.30973283 62 1481 c 1
 47 1485 l 1
 58.3333333333 1506.33333333 64 1524 64 1538 c 0
 64 1551.33333333 58.3333333333 1560.33333333 47 1565 c 1
 47 1570.33333333 41.6666666667 1573 31 1573 c 0
 23.6666666667 1573 6.66666666667 1567.33333333 -20 1556 c 1
 -26 1567 l 1
 8.02242640663 1580.95791853 31 1583.63366428 31 1612 c 0
 31 1618.66666667 28.3333333333 1625.66666667 23 1633 c 128
 17.6666666667 1640.33333333 4.66666666667 1654.33333333 -16 1675 c 1
 -8 1679 l 1
 22 1651.66666667 41.6666666667 1638 51 1638 c 0
 74.2914384209 1638 137.822461401 1661 160 1661 c 2
 504 1661 l 2
 539.218962058 1661 547.566617929 1688.89433885 561 1718 c 1
 576 1710 l 1
 563.333333333 1680 557 1661 557 1653 c 0
 557 1646.33333333 560.666666667 1638.66666667 568 1630 c 2
 600 1589 l 1
 604 1579.66666667 611.666666667 1575 623 1575 c 0
 633 1575 650 1579 674 1587 c 1
 680 1571 l 1
 644.72498336 1557.43268591 621 1553.50998884 621 1522 c 2
 621 1520 l 2
 621 1516.66666667 623 1513 627 1509 c 0
 716.700576207 1397.42123447 859.52058581 1139.75828949 883 971 c 1
 889 958.333333333 896.666666667 952 906 952 c 0
 910.666666667 952 927 957 955 967 c 1
 963 948 l 1
 937.629362435 938.697432893 912 931.748729365 912 909 c 0
 912 875.757771948 946.820365264 780 979 780 c 0
 991 780 1006.66666667 786.333333333 1026 799 c 1
 1041 778 l 1
 1009.66666667 762 994 748.333333333 994 737 c 1
 996 731.666666667 1001.33333333 729 1010 729 c 0
 1044.65497763 729 1052.03220207 810.128808275 1059 838 c 1
 1061 880.666666667 1072 926.333333333 1092 975 c 128
 1125.45329719 1056.40302317 1192.97866733 1179.42666894 1217 1262 c 0
 1218.33333333 1264.66666667 1219 1268.66666667 1219 1274 c 0
 1219 1286 1202.66666667 1299 1170 1313 c 1
 1176 1331 l 1
 1198 1323 1213 1319 1221 1319 c 0
 1256.50219059 1319 1311 1524.46491506 1311 1559 c 0
 1311 1572.33333333 1296.66666667 1592.66666667 1268 1620 c 1
 1280 1630 l 1
 1304.66666667 1605.33333333 1324.66666667 1593 1340 1593 c 0
 1345.33333333 1593 1350 1593.66666667 1354 1595 c 1
 1379 1597 l 1
 1395.15752298 1603.05907112 1401 1612.96810782 1401 1636 c 0
 1401 1640.73474535 1399 1660.07388715 1399 1665 c 1
 1415 1667 l 1
 1419.6628025 1629.69758 1419.28772277 1608 1448 1608 c 1
 1597.33333333 1601.33333333 1728.33333333 1575.33333333 1841 1530 c 0
 1848.33333333 1526 1858 1524 1870 1524 c 0
 1872.66666667 1524 1893.33333333 1526.66666667 1932 1532 c 1
 1934 1522 l 1
 1887.26692209 1512.16145728 1862.30206585 1501.06942113 1839 1470 c 1
 1832.33333333 1463.33333333 1829 1455.33333333 1829 1446 c 0
 1829 1430 1833 1411.66666667 1841 1391 c 1
 1827 1384 l 1
 1813.99643193 1421.15305164 1808.75096342 1445.83907927 1780 1452 c 1
 1757 1454 l 1
 1692 1448 l 2
 1686 1448 1681.33333333 1445.33333333 1678 1440 c 2
 1653 1409 l 1
 1649 1407 1647 1403.66666667 1647 1399 c 2
 1647 1237 l 2
 1647 1209.12427221 1672.37986088 1202.52817203 1704 1188 c 1
 1698 1176 l 1
 1672 1186.66666667 1653.66666667 1192 1643 1192 c 0
 1627.3242883 1192 1624 1186.2272083 1624 1171 c 2
 1626 1012 l 2
 1626 970.666666667 1616.66666667 937.666666667 1598 913 c 0
 1595.33333333 910.333333333 1594 906.333333333 1594 901 c 0
 1591.87271187 864.836101737 1571 617.450515176 1571 573 c 2
 1577 272 l 2
 1577 253.814595463 1582.77655194 249.565768005 1600 248 c 2
 1659 244 l 1
 1675.66666667 244 1699.66666667 258.333333333 1731 287 c 1
 1739 279 l 1
 1711.44011001 255.114762011 1692 242.607307978 1692 209 c 2
 1692 195 l 2
 1692 172.952495967 1725.77302494 166.602583356 1749 158 c 1
 1743 147 l 1
 1715.66666667 158.333333333 1698 164 1690 164 c 0
 1686 164 1681.33333333 162.666666667 1676 160 c 1
 1676 158 l 1
 1672.76200437 154.762004368 1669 149.456942717 1669 143 c 128
 1669 127.625685958 1682.10052122 104.897741388 1686 88 c 1
 1676 84 l 1
 1665.88751011 114.337469664 1661.27232422 143 1641 143 c 1
 1338 168 l 1
 1295 168 l 2
 1228.23973349 168 1201.67727348 143.057276776 1190 80 c 1
 1180 82 l 1
 1184 108.666666667 1186 125.666666667 1186 133 c 0
 1186 144.333333333 1182.66666667 153.333333333 1176 160 c 1
 1174 160 l 1
 1167.33333333 166.666666667 1155.66666667 170 1139 170 c 0
 1137 170 1122.66666667 168.666666667 1096 166 c 1
 1096 176 l 1
 1141.79797539 181.724746924 1162.37880314 185.568204713 1182 215 c 1
 1187.33333333 225.666666667 1190 233.333333333 1190 238 c 0
 1190 246.666666667 1182.66666667 264.333333333 1168 291 c 1
 1180 303 l 1
 1193.33333333 281 1203.5 266.666666667 1210.5 260 c 128
 1217.5 253.333333333 1225 250 1233 250 c 1
 1235.66666667 251.333333333 1237.66666667 252 1239 252 c 2
 1276 260 l 1
 1282.66666667 263.333333333 1287.66666667 269.666666667 1291 279 c 1
 1307 393 l 1
 1297.62413391 415.769960497 1299.44900536 417.886687069 1278.5 428 c 128
 1268.83333333 432.666666667 1253.66666667 437.333333333 1233 442 c 1
 1235 459 l 1
 1249 455 1264 453 1280 453 c 0
 1304.66666667 453 1317 460.333333333 1317 475 c 2
 1311 1112 l 2
 1311 1134.40607612 1298.97438474 1153 1278 1153 c 0
 1238.15975258 1153 1205 1005.89221285 1205 965 c 0
 1205 941.512179413 1231.86548326 937.673050019 1260 930 c 1
 1256 909 l 1
 1235.33333333 915 1221 918 1213 918 c 0
 1199.66666667 918 1190.66666667 911 1186 897 c 2
 1139 725 l 2
 1139 723.4765348 1137 714.285625682 1137 713 c 0
 1137 696.333333333 1154.66666667 680.666666667 1190 666 c 1
 1182 647 l 1
 1151.33333333 658.333333333 1133.66666667 664 1129 664 c 0
 1070.38755283 664 1049.18579539 536.793224763 1043.5 472.5 c 128
 1037.34708396 402.924718596 1030.14315036 262.442278154 1010 213 c 1
 1006 207 1004 200.333333333 1004 193 c 0
 1004 181.666666667 1008 159.666666667 1016 127 c 1
 1010 127 l 1
 997.467275132 164.598174605 986.867832222 183.132167778 963 207 c 128
 961.666666667 208.333333333 956 209 946 209 c 0
 931.333333333 209 912.333333333 202.666666667 889 190 c 1
 883 203 l 1
 913.722488993 218.800137196 938 226.612389168 938 256 c 2
 938 260 l 2
 938 275.333333333 930.666666667 283 916 283 c 0
 906 283 886.666666667 276 858 262 c 1
 852 276 l 1
 883.511036329 292.205675827 905.571222696 299.427336178 910 326 c 1
 903 338 l 1
 841.957517846 415.029798909 806.717741691 533.213134444 773 644 c 128
 754.333333333 705.333333333 735 755 715 793 c 0
 710.333333333 802.333333333 703.666666667 807 695 807 c 0
 682.333333333 807 666.333333333 802.333333333 647 793 c 1
 639 809 l 1
 670.333333333 821.666666667 686 834 686 846 c 0
 686 868 670.5 902.5 639.5 949.5 c 128
 608.5 996.5 590 1032.33333333 584 1057 c 1
 543.333333333 1125 520 1159 514 1159 c 0
 499.803271024 1159 492 1038.06907488 492 1018 c 0
 492 988.93275928 482.337814611 830.929411364 467 819 c 1
 490.333333333 792.333333333 502 752 502 698 c 0
 502 693.333333333 500 671 496 631 c 0
 496 625.666666667 496.666666667 621.333333333 498 618 c 0
 503.333333333 605.333333333 509.333333333 572 516 518 c 128
 521.672341733 472.054031962 536.545404081 305 566 305 c 2
 625 305 l 2
 657.195687646 305 667.082773812 327.372109981 686 358 c 1
 701 350 l 1
 683 318.666666667 674 298.333333333 674 289 c 0
 674 275.351656002 687.078522526 248.797343842 703 241.5 c 128
 711 237.833333333 728.666666667 232.333333333 756 225 c 1
 754 217 l 1
 733.333333333 221 715.666666667 223 701 223 c 0
EndSplineSet
EndChar

StartChar: N
Encoding: 78 78 51
Width: 1494
GlyphClass: 2
Flags: HW
LayerCount: 2
Fore
SplineSet
531 924 m 1
 531 948.819896121 482.076555367 959.153907439 459 963 c 1
 449 963 434.666666667 956 416 942 c 1
 414.207745243 857.764026401 410 705.346985699 410 625 c 2
 410 477 l 2
 410 414.47497557 515.339989765 428.665002559 566 416 c 0
 576.666666667 413.333333333 585.333333333 412 592 412 c 0
 614 412 644 421.333333333 682 440 c 1
 691 424 l 1
 617 388.666666667 580 351 580 311 c 2
 580 266 l 2
 580 244 595 208.666666667 625 160 c 1
 615 154 l 1
 575.021389942 212.792073614 578.055277982 217.472361009 525 244 c 0
 523.877889348 244 520.121030709 246 519 246 c 0
 503.666666667 246 485 239 463 225 c 1
 450.239305544 225 436.78861086 233 428 233 c 1
 424 229 422 224.333333333 422 219 c 0
 422 207.666666667 427.666666667 185.333333333 439 152 c 1
 428 147 l 1
 418.921172763 172.723343838 408.81291726 219 388 219 c 2
 365 219 l 1
 330 217 l 1
 330 203.666666667 333.833333333 191.166666667 341.5 179.5 c 128
 349.166666667 167.833333333 366 151 392 129 c 1
 381 115 l 1
 341.666666667 147.666666667 313.666666667 164 297 164 c 0
 294.755778696 164 287.242061418 162 285 162 c 1
 287 164 l 1
 271 160.666666667 263 149 263 129 c 0
 263 110.333333333 279.333333333 83 312 47 c 1
 297 37 l 1
 275 63 258.166666667 79.6666666667 246.5 87 c 128
 234.833333333 94.3333333333 222.333333333 98 209 98 c 2
 162 98 l 2
 152 98 141.833333333 94.6666666667 131.5 88 c 128
 121.166666667 81.3333333333 104 65.6666666667 80 41 c 1
 70 51 l 1
 94.6666666667 75 110.333333333 92.1666666667 117 102.5 c 128
 123.666666667 112.833333333 127 123 127 133 c 2
 127 170 l 2
 127 215.974061775 131.747130573 235.220946921 156 246 c 1
 181.419509914 254.473169971 197.042143443 346.121313528 202 380 c 2
 207 422 l 1
 213 424 l 1
 220.333333333 396.666666667 232.666666667 383 250 383 c 0
 264.847561277 383 277 394.22898268 277 410 c 0
 278.472657526 454.179725784 285 614.940037457 285 664 c 0
 285 746.038649018 271.985090612 793 189 793 c 1
 185 836 l 1
 244.547637076 840.670402908 263 850.362720067 263 907 c 0
 263 942.256889772 267 1060.61299079 267 1096 c 0
 267 1261.70803424 231.322142538 1362.26186479 154 1454 c 1
 148 1458 142 1460 136 1460 c 0
 117.754329729 1460 110.174278599 1447.1742786 101 1438 c 1
 93 1432 78 1404.66666667 56 1356 c 1
 52 1356 l 1
 73.3333333333 1400.66666667 84 1430.66666667 84 1446 c 0
 84 1466.79059413 37.219618532 1477.18721983 13 1485 c 1
 15 1497 l 1
 35.3345130173 1493.18727881 63.4480779796 1481 82 1481 c 0
 109.076848932 1481 132 1561.92110431 132 1589 c 0
 132 1608.33333333 114.666666667 1637.66666667 80 1677 c 1
 95 1690 l 1
 118.333333333 1663.33333333 135.333333333 1646.66666667 146 1640 c 128
 156.666666667 1633.33333333 169.666666667 1630 185 1630 c 2
 211 1630 l 2
 256.396482394 1630 261 1657.36968781 261 1706 c 1
 293 1706 l 1
 293 1664.04330661 296.07370797 1628 337.5 1628 c 130
 365 1628 l 2
 379 1628 390.833333333 1631.83333333 400.5 1639.5 c 128
 410.166666667 1647.16666667 423.666666667 1666 441 1696 c 1
 459 1686 l 1
 437 1650 426 1624.66666667 426 1610 c 1
 427.333333333 1594.66666667 429.666666667 1587 433 1587 c 1
 433.666666667 1584.33333333 441 1580.83333333 455 1576.5 c 128
 479.573041235 1568.89405867 514 1551.19679605 514 1520 c 0
 514 1518.07261272 512 1506.92360748 512 1505 c 0
 512 1501.66666667 515 1497 521 1491 c 1
 645.666666667 1318.33333333 732.333333333 1202.33333333 781 1143 c 1
 791 1133 800.333333333 1128 809 1128 c 0
 819.666666667 1128 842.333333333 1134.33333333 877 1147 c 1
 885 1126 l 1
 843.509117814 1109.76443741 813 1101.75775299 813 1063 c 2
 813 999 l 2
 813 985.913245145 823.530287171 983.469712829 830 977 c 1
 840.666666667 971.666666667 849.333333333 956 856 930 c 128
 869.12227498 878.82312758 900.100212717 832.521170273 917 812 c 128
 926.333333333 800.666666667 937 795 949 795 c 0
 983 795 1000 831.666666667 1000 905 c 0
 1000 926.667466702 992 1011.58524662 992 1030 c 0
 992 1059.17487696 1018 1156.85320157 1018 1186 c 1
 1006 1376 l 1
 994 1427 l 2
 986.666666667 1455.66666667 927.333333333 1470 816 1470 c 0
 748.290090781 1470 712.875906559 1448.58278555 664 1419 c 1
 656 1432 l 1
 706.666666667 1463.33333333 738.666666667 1492 752 1518 c 0
 754.666666667 1522.66666667 769 1541.5 795 1574.5 c 128
 821 1607.5 834 1632.33333333 834 1649 c 128
 834 1665.66666667 822.333333333 1691.33333333 799 1726 c 1
 818 1737 l 1
 834.666666667 1709 848.5 1690.66666667 859.5 1682 c 128
 870.5 1673.33333333 883 1669 897 1669 c 0
 947.354704193 1669 952.470991423 1692.35495712 963 1745 c 1
 998 1739 l 1
 994 1717.66666667 992 1702 992 1692 c 0
 992 1630.19209095 1163.21479942 1604.62516873 1231 1598.5 c 128
 1286.33333333 1593.5 1338.33333333 1591 1387 1591 c 0
 1408.33333333 1591 1443 1602 1491 1624 c 1
 1495 1614 l 1
 1391.74563803 1566.24485759 1377.30902908 1533.84785519 1318.5 1459 c 128
 1296.22684858 1430.65235273 1275.37324349 1402.29932617 1270 1362 c 1
 1308 1265 l 2
 1302 1279 1286.66666667 1286 1262 1286 c 0
 1222.46122143 1286 1172 1282.91739741 1172 1247 c 2
 1172 1194 l 130
 1172 1142.26063473 1162.74148636 1099.52605832 1145 1067 c 0
 1142.33333333 1061.66666667 1141 1057.66666667 1141 1055 c 0
 1141 972.014711078 1135 700.749779387 1135 618 c 0
 1135 592.125244121 1170.32065692 588.520772103 1207 582 c 1
 1203 565 l 1
 1167 570.333333333 1148.33333333 573 1147 573 c 0
 1124.33333333 573 1113 552.666666667 1113 512 c 0
 1113 504.11074623 1114 491.370188467 1114 484 c 1
 1115 479 l 1
 1115 430.333333333 1114.33333333 398.333333333 1113 383 c 1
 1104.33333333 375.666666667 1100 367.333333333 1100 358 c 2
 1104 309 l 1
 1104 246.333333333 1100 204 1092 182 c 0
 1089.33333333 174 1088 168 1088 164 c 0
 1088 146 1098.33333333 119.333333333 1119 84 c 1
 1106 78 l 1
 1077.10605159 103.282204858 1049.32760073 145.734479853 1008 154 c 1
 1012 154 l 1
 1008 155.333333333 1002.66666667 156 996 156 c 0
 979.333333333 156 957.333333333 138 930 102 c 1
 914 115 l 1
 940 146.333333333 953 169.333333333 953 184 c 0
 953 205.552967935 927.45517164 238 906 238 c 0
 892.666666667 238 872 231.666666667 844 219 c 1
 832 244 l 1
 862.482772857 257.547899047 895 269.579098351 895 299 c 0
 895 353.91825421 858.828651689 462.591292129 838 498 c 1
 840.666666667 492.666666667 842 488.333333333 842 485 c 0
 842 472.333333333 823 456.666666667 785 438 c 1
 768 469 l 1
 784.299233877 477.149616938 822 489.664083225 822 512 c 0
 822 517.333333333 816.833333333 528.666666667 806.5 546 c 128
 780.183139564 590.144411054 727.078490077 652.030904137 687 690 c 1
 675.666666667 702.666666667 665.333333333 709 656 709 c 0
 641.333333333 709 620 704 592 694 c 1
 586 715 l 1
 623.857597718 726.44532024 655.833837809 732.836864661 660 762 c 1
 660 766 l 1
 658.666666667 771.333333333 654 778 646 786 c 1
 602.715789967 810.416733865 539.935112078 868.900142183 531 924 c 1
1308 1265 m 2
 1308.66666667 1263.66666667 1309 1262.66666667 1309 1262 c 2
 1308 1265 l 2
EndSplineSet
EndChar

StartChar: O
Encoding: 79 79 52
Width: 1285
GlyphClass: 2
Flags: HW
LayerCount: 2
Fore
SplineSet
403 1149 m 1
 391.491642594 1149 384 1135.98579804 384 1124 c 2
 384 1034 l 2
 384 1010.66666667 395.833333333 969.666666667 419.5 911 c 128
 443.166666667 852.333333333 467.333333333 789.166666667 492 721.5 c 128
 516.666666667 653.833333333 530 599 532 557 c 0
 532 553 533.333333333 548.333333333 536 543 c 1
 558 514 l 2
 568.666666667 499.333333333 579.666666667 492 591 492 c 0
 605 492 624.666666667 499.333333333 650 514 c 1
 669 487 l 1
 633.666666667 466.333333333 616 448 616 432 c 0
 616 408.387191144 629.677315736 373 656 373 c 2
 669 373 l 2
 683.666666667 373 696 368.833333333 706 360.5 c 128
 716 352.166666667 722 348 724 348 c 2
 779 348 l 2
 785 348 788.666666667 348.666666667 790 350 c 2
 822 367 l 2
 823.333333333 367.666666667 828.666666667 377.5 838 396.5 c 128
 853.955481213 428.980801041 886.574037279 494.556669269 908 520 c 0
 912 523.333333333 914.833333333 535 916.5 555 c 128
 918.166666667 575 922.333333333 587.333333333 929 592 c 1
 939.442837964 612.885675929 946.631652383 681.489980222 960 700 c 0
 964 705.333333333 966 710.333333333 966 715 c 2
 966 942 l 2
 966 1025.33333333 944 1067 900 1067 c 0
 885.333333333 1067 873 1066.33333333 863 1065 c 1
 859 1090 l 1
 905.030725214 1096.85563993 931.268659991 1099.55226991 935 1135 c 1
 930.32276879 1146.69307802 910 1163.25195945 910 1184 c 0
 910 1187.10836955 912 1208.74959438 912 1212 c 0
 912 1218 910 1223 906 1227 c 0
 878.274603236 1258.19107136 819.891922157 1383.76104718 792 1415 c 1
 777.333333333 1407 768.333333333 1384.66666667 765 1348 c 1
 722 1352 l 1
 723.333333333 1358.66666667 724 1369.33333333 724 1384 c 0
 724 1426.66666667 697.333333333 1448 644 1448 c 0
 636.471461575 1448 550.941889341 1413.94188934 548 1411 c 0
 547.333333333 1409.66666667 544 1403.66666667 538 1393 c 128
 529 1377 529 1377 524.5 1369 c 128
 519.684474639 1360.43906602 511 1337.93174418 511 1325 c 0
 511 1317.66666667 515.166666667 1310.16666667 523.5 1302.5 c 128
 531.833333333 1294.83333333 547.333333333 1284.66666667 570 1272 c 1
 560 1255 l 1
 526.666666667 1273 505.666666667 1282 497 1282 c 0
 471.576104614 1282 455.685424259 1244.05627278 448.5 1222.5 c 128
 440.482401343 1198.44720403 423.975051831 1157.98930793 403 1149 c 1
372 438 m 0
 372 465.769256898 308.783812957 535 282 535 c 0
 271.333333333 535 248.666666667 528 214 514 c 1
 206 530 l 1
 233.333333333 542.666666667 251.833333333 552.666666667 261.5 560 c 128
 271.166666667 567.333333333 276.666666667 575.333333333 278 584 c 1
 276.666666667 588.666666667 271.666666667 595.333333333 263 604 c 1
 226.333333333 632 206.666666667 680 204 748 c 0
 204 754.666666667 202 760 198 764 c 0
 123.458866163 821.339333721 104 912.17860487 104 1044 c 0
 104 1194.66666667 69 1292.33333333 -1 1337 c 1
 85 1468 l 1
 107 1450.66666667 139.666666667 1442 183 1442 c 0
 231 1442 271.333333333 1448 304 1460 c 1
 307.639633794 1587.3871828 466.104843347 1575.18513566 552 1620 c 1
 602.666666667 1642 639.666666667 1653 663 1653 c 0
 728.333333333 1653 796 1630.5 866 1585.5 c 128
 936 1540.5 985.666666667 1486.33333333 1015 1423 c 1
 1050.8406847 1355.79871619 1133.84951069 1328.29049557 1175 1267.5 c 128
 1189.66666667 1245.83333333 1197 1221.33333333 1197 1194 c 0
 1197 1158.78518297 1219.1845005 1106 1254 1106 c 0
 1272.66666667 1106 1292.66666667 1110 1314 1118 c 1
 1322 1094 l 1
 1281.89360215 1080.63120072 1250 1073.94233847 1250 1038 c 0
 1250 996.329380172 1269 868.883911035 1269 827 c 0
 1269 783.666666667 1254.16666667 725.166666667 1224.5 651.5 c 128
 1194.83333333 577.833333333 1177.66666667 526 1173 496 c 0
 1171.66666667 491.333333333 1171 486.333333333 1171 481 c 0
 1171 449.214303533 1202.87259936 438.138990056 1236 422 c 1
 1226 401 l 1
 1195.33333333 415 1172.66666667 422 1158 422 c 0
 1148 422 1138.66666667 416.666666667 1130 406 c 1
 1051.86651128 327.866511283 982.957213637 245.432835562 902 174 c 0
 891.333333333 165.333333333 886 155.666666667 886 145 c 0
 886 131 891.333333333 109.333333333 902 80 c 1
 882 72 l 1
 870 104 860.166666667 124.166666667 852.5 132.5 c 128
 844.833333333 140.833333333 834 145 820 145 c 2
 814 145 l 2
 762.966765928 145 753.248786401 118.70245572 736 70 c 1
 706 82 l 1
 715.333333333 109.333333333 720 129.666666667 720 143 c 0
 720 183.5323837 682.633023175 198.404619091 645 201 c 128
 599.430821517 204.142701964 553.445419702 227.109160595 536 262 c 1
 527.320425289 283.698936778 509.041137535 309.821737349 503 336 c 1
 436.66753282 345.045336434 332.237408963 393.254676671 271 416 c 1
 310 403 l 2
 318 400.333333333 324.333333333 399 329 399 c 0
 351.15527863 399 372 416.686256434 372 438 c 0
271 416 m 2
 265 418 l 2
 267.666666667 418 269.666666667 417.333333333 271 416 c 2
EndSplineSet
EndChar

StartChar: P
Encoding: 80 80 53
Width: 1415
GlyphClass: 2
Flags: HW
LayerCount: 2
Fore
SplineSet
674 1069 m 2
 674 1058.61872136 645 1022.9130036 645 1012 c 0
 645 992.666666667 667.666666667 983 713 983 c 0
 767.666666667 983 807.666666667 997.333333333 833 1026 c 1
 909 1106 l 1
 917 1106 l 1
 917 1107.12211065 915 1110.87896929 915 1112 c 0
 961.666666667 1163.33333333 995.333333333 1201.66666667 1016 1227 c 1
 915 1128 l 1
 916.333333333 1136 921.333333333 1146.33333333 930 1159 c 2
 993 1260 l 2
 994.333333333 1262.66666667 995 1266.66666667 995 1272 c 0
 995 1283.98039845 970.913084163 1349.8521495 964 1354 c 0
 956 1360 933.333333333 1391.83333333 896 1449.5 c 128
 858.666666667 1507.16666667 833.666666667 1536 821 1536 c 0
 806.278008167 1536 763.976682379 1526 751 1526 c 0
 733.666666667 1526 718.666666667 1526.66666667 706 1528 c 1
 688.297062075 1528 674 1512.9970267 674 1495 c 2
 674 1069 l 2
786 57 m 0
 773.762394166 57 731.225186486 51 719 51 c 0
 700.333333333 51 678.333333333 52.3333333333 653 55 c 1
 636.00534699 55 614 30.9411730075 614 14 c 0
 614 -0.666666666667 621.666666667 -23 637 -53 c 1
 614 -61 l 1
 598.931473657 -24.6582599969 589.645355754 6 555 6 c 0
 423.107109693 6 370.195083193 -40.4233336636 330 -135 c 1
 319 -129 l 1
 338.333333333 -86.3333333333 348 -54.3333333333 348 -33 c 0
 348 -14.9440835613 340 37.2126343432 340 55 c 0
 340 97.5053986074 358.39815959 141.249233162 389 154 c 0
 405.666666667 161.333333333 414 170 414 180 c 2
 414 483 l 2
 414 517.017278138 360 603.478073139 360 637 c 0
 360 680.333333333 341 830.833333333 303 1088.5 c 128
 265 1346.16666667 241 1477 231 1481 c 1
 166 1524 l 2
 160.666666667 1526.66666667 155.666666667 1528 151 1528 c 2
 84 1528 l 2
 70.6666666667 1528 58 1524.5 46 1517.5 c 128
 34 1510.5 15.3333333333 1494.66666667 -10 1470 c 1
 -21 1481 l 1
 3.66666666667 1506.33333333 19.5 1525 26.5 1537 c 128
 33.5 1549 37 1561.66666667 37 1575 c 2
 37 1587 l 2
 37 1599.66666667 33 1610.33333333 25 1619 c 128
 17 1627.66666667 -2.33333333333 1640.33333333 -33 1657 c 1
 -25 1673 l 1
 11.6666666667 1654.33333333 36.3333333333 1645 49 1645 c 0
 66.7127183001 1645 92 1662.83977951 92 1686 c 0
 92 1698 88 1718.33333333 80 1747 c 1
 100 1753 l 1
 110.814337564 1715.14981853 116.126315935 1679.83643724 153 1677 c 1
 228.039275544 1677 291 1684.20540929 291 1747 c 0
 291 1759 290.333333333 1769.33333333 289 1778 c 1
 325 1782 l 1
 331.664693935 1725.35010155 336.208496008 1706 389 1706 c 2
 584 1706 l 2
 588 1706 603.666666667 1713.66666667 631 1729 c 128
 658.333333333 1744.33333333 679.333333333 1753 694 1755 c 0
 709.20741997 1757.17248857 710 1768.83753941 710 1788 c 0
 710 1804 709.333333333 1819 708 1833 c 1
 721 1833 l 1
 724.333333333 1785.66666667 729 1761 735 1759 c 1
 747 1759 l 2
 802.153711536 1759 813.786687925 1782.29743325 825 1835 c 1
 874 1823 l 1
 870 1806.33333333 868 1793.33333333 868 1784 c 0
 868 1635.45175228 1165.41949883 1773.83130774 1186 1638 c 1
 1186 1622.66666667 1208.16666667 1585.5 1252.5 1526.5 c 128
 1296.83333333 1467.5 1323.66666667 1438 1333 1438 c 0
 1341.66666667 1438 1364.33333333 1444 1401 1456 c 1
 1405 1444 l 1
 1372.33333333 1431.33333333 1352.16666667 1422 1344.5 1416 c 128
 1336.83333333 1410 1333 1402.33333333 1333 1393 c 2
 1333 1362 l 2
 1333 1102.62085464 1189.58828389 891.670303573 1009 799 c 0
 1003 797 999 793.333333333 997 788 c 0
 963.836154134 732.036010101 926.24809766 730.331642364 877.5 687 c 128
 856.5 668.333333333 834.333333333 643.333333333 811 612 c 1
 807 616 l 1
 841.666666667 660.666666667 862 692.333333333 868 711 c 1
 880 741 l 2
 882 743.666666667 883 748.666666667 883 756 c 0
 883 777.749166709 865.979422303 791 844 791 c 2
 829 791 l 2
 807.538402012 791 723.891121251 803 702 803 c 0
 684 803 674 792.666666667 672 772 c 0
 668.02114077 734.863980517 637 553.481692783 637 508 c 0
 637 437.790523509 649.579419725 340 710 340 c 0
 714.666666667 340 726.333333333 341.333333333 745 344 c 1
 747 328 l 1
 751 328 l 1
 747 317 l 1
 749 313 l 1
 747 313 l 1
 740.333333333 284.333333333 737 265.333333333 737 256 c 0
 737 244.666666667 741 233.666666667 749 223 c 1
 749 221 l 1
 753.666666667 211.666666667 760.666666667 207 770 207 c 128
 779.333333333 207 800.333333333 213.666666667 833 227 c 1
 842 211 l 1
 816 199 798.833333333 189.833333333 790.5 183.5 c 128
 782.166666667 177.166666667 778 170.666666667 778 164 c 0
 778 143.333333333 785.833333333 123.166666667 801.5 103.5 c 128
 817.166666667 83.8333333333 847.666666667 63 893 41 c 1
 887 25 l 1
 841 46.3333333333 807.333333333 57 786 57 c 0
EndSplineSet
EndChar

StartChar: Q
Encoding: 81 81 54
Width: 2067
GlyphClass: 2
Flags: HW
LayerCount: 2
Fore
SplineSet
742.5 -14 m 128
 768.691514741 -21.990631616 843.816959881 -36.4084799403 865 -47 c 1
 883 -47 892 -34 892 -8 c 0
 892 9.33333333333 890.666666667 25.6666666667 888 41 c 1
 910 45 l 1
 920 -11 940 -39 970 -39 c 0
 1073.33333333 -39 1149.66666667 -23.3333333333 1199 8 c 128
 1248.33333333 39.3333333333 1290.66666667 103 1326 199 c 0
 1327.33333333 203 1328 207.666666667 1328 213 c 0
 1328 225.666666667 1307.66666667 240 1267 256 c 1
 1275 276 l 1
 1306.33333333 264 1326 258 1334 258 c 0
 1389.87451024 258 1415.8008708 478.875955226 1422 545 c 128
 1428 609 1431 660.666666667 1431 700 c 0
 1431 972.526673247 1392.22455782 1248.72999596 1266 1400.5 c 128
 1238 1434.16666667 1206.66666667 1458.33333333 1172 1473 c 0
 1164 1475.66666667 1158 1477 1154 1477 c 0
 1140 1477 1118 1460.33333333 1088 1427 c 1
 1072 1442 l 1
 1099.33333333 1472.66666667 1113 1495 1113 1509 c 0
 1113 1515 1111 1522 1107 1530 c 0
 1055.30782926 1617.47905817 927.485491933 1763 802 1763 c 0
 659.411007748 1763 583.969082777 1674.04413279 524 1588.5 c 128
 481.801777643 1528.30547693 457.349007508 1473.16164491 420.5 1413 c 128
 404.166666667 1386.33333333 389.333333333 1367.33333333 376 1356 c 0
 371.333333333 1351.33333333 368 1345.66666667 366 1339 c 1
 353.333333333 1217 347 1093.66666667 347 969 c 0
 347 796.623616497 351.943014233 654.193751609 392 518 c 0
 398 498 414.166666667 470.5 440.5 435.5 c 128
 466.833333333 400.5 480 369.333333333 480 342 c 0
 480 320 494 280.333333333 522 223 c 128
 550 165.666666667 574.333333333 137 595 137 c 0
 606.333333333 137 626.666666667 145.333333333 656 162 c 1
 667 143 l 1
 627 120.333333333 607 102.666666667 607 90 c 0
 607 26.5536105625 692.257829037 1.32811995475 742.5 -14 c 128
980 -227 m 1
 948.473542269 -227 937.353172827 -261.227828642 923 -295 c 1
 904 -285 l 1
 918 -250.333333333 925 -226.333333333 925 -213 c 0
 925 -207 922 -199.333333333 916 -190 c 1
 879.296548277 -190 873.192240579 -221.423278263 859 -264 c 1
 839 -258 l 1
 848.333333333 -227.333333333 853 -206.333333333 853 -195 c 128
 853 -183.666666667 848.333333333 -173.333333333 839 -164 c 1
 770.299967221 -111.657117883 594.393748427 -8.62663775053 513 41.5 c 128
 458.333333333 75.1666666667 407.5 112.666666667 360.5 154 c 128
 313.5 195.333333333 287.333333333 231.333333333 282 262 c 0
 280 268.666666667 275.666666667 275 269 281 c 1
 185.073221606 333.938429449 119.823901678 459.878874756 96.5 572.5 c 128
 84.8333333333 628.833333333 79 684.333333333 79 739 c 2
 79 973 l 2
 79 1018.81538583 114 1161.31508871 114 1208 c 0
 114 1268.90135457 151.412704981 1385.15201207 169.5 1429 c 128
 180.5 1455.66666667 196.666666667 1494 218 1544 c 0
 220.666666667 1552 222 1558.33333333 222 1563 c 0
 222 1578.33333333 209 1603.33333333 183 1638 c 1
 198 1649 l 1
 216.666666667 1623 230.833333333 1606.16666667 240.5 1598.5 c 128
 250.166666667 1590.83333333 259.666666667 1587 269 1587 c 1
 275.864177441 1589.74567098 293.212495322 1612 304 1612 c 1
 312 1606 l 1
 347 1638 l 1
 343 1657.33333333 320.666666667 1680 280 1706 c 1
 290 1722 l 1
 327.333333333 1699.33333333 353.333333333 1688 368 1688 c 0
 380.666666667 1688 406.333333333 1698.83333333 445 1720.5 c 128
 483.666666667 1742.16666667 505 1753 509 1753 c 1
 518.333333333 1762.33333333 523 1773.33333333 523 1786 c 0
 523 1800 518.333333333 1821 509 1849 c 1
 529 1858 l 1
 541 1825.33333333 550.833333333 1804.83333333 558.5 1796.5 c 128
 566.166666667 1788.16666667 577 1784 591 1784 c 2
 734 1784 l 2
 750.666666667 1784 759 1797 759 1823 c 0
 759 1840.33333333 756.333333333 1861.33333333 751 1886 c 1
 769 1890 l 1
 780.060090633 1840.73232355 785.170446495 1813.51805144 818 1800 c 1
 862 1784 896.333333333 1776 921 1776 c 0
 933.666666667 1776 943.833333333 1780.16666667 951.5 1788.5 c 128
 959.166666667 1796.83333333 969.333333333 1814.33333333 982 1841 c 1
 994 1835 l 1
 976.666666667 1797.66666667 968 1775 968 1767 c 0
 968 1757.66666667 974 1753 986 1753 c 2
 996 1753 l 2
 1051.44180931 1753 1096.56188006 1721.71905997 1136 1702 c 0
 1142 1698 1148 1696 1154 1696 c 0
 1166.66666667 1696 1185 1713.66666667 1209 1749 c 1
 1228 1737 l 1
 1206 1707.66666667 1195 1686.33333333 1195 1673 c 128
 1195 1659.66666667 1212 1641 1246 1617 c 128
 1294.38884777 1582.84316628 1418.31889422 1511.99931857 1457 1475 c 1
 1461.66666667 1469 1467.33333333 1466 1474 1466 c 0
 1481.33333333 1466 1501 1479.66666667 1533 1507 c 1
 1545 1493 l 1
 1512.33333333 1467 1496 1448.66666667 1496 1438 c 0
 1496 1432 1498 1427 1502 1423 c 1
 1578 1313 l 1
 1600 1292 l 1
 1609.33333333 1281.33333333 1619 1276 1629 1276 c 0
 1641.66666667 1276 1664.33333333 1284 1697 1300 c 1
 1707 1280 l 1
 1681.66666667 1266 1664.66666667 1254.83333333 1656 1246.5 c 128
 1647.33333333 1238.16666667 1643 1229.66666667 1643 1221 c 0
 1643 1213.66666667 1644 1208.66666667 1646 1206 c 1
 1650.66666667 1176.66666667 1666.16666667 1126 1692.5 1054 c 128
 1718.83333333 982 1732 925.666666667 1732 885 c 2
 1732 618 l 2
 1732 613.29166987 1711 577.49481235 1711 571 c 0
 1711 567.535276696 1715 550.737481299 1715 547 c 0
 1715 517.666666667 1707 485 1691 449 c 128
 1669.48406799 400.589152985 1604.22793829 294.455876588 1584 254 c 0
 1582.66666667 251.333333333 1582 248.666666667 1582 246 c 0
 1582 238 1601 221 1639 195 c 1
 1627 178 l 1
 1595.66666667 200 1575.33333333 211 1566 211 c 0
 1541.32109167 211 1524.22794469 182.482706397 1515.5 164 c 128
 1504.89724766 141.547112686 1481.5997296 113.085675657 1453 109 c 0
 1448.33333333 109 1439.83333333 103.166666667 1427.5 91.5 c 128
 1408.98897707 73.9895729018 1371.02111164 34.010555818 1349 23 c 1
 1331 11.6666666667 1322 -1.33333333333 1322 -16 c 0
 1322 -30.9965171108 1335.64620639 -47 1351 -47 c 2
 1359 -47 l 2
 1408.29400526 -47 1412.63201841 -22.6726436094 1424 29 c 1
 1455 20 l 1
 1449.66666667 0.666666666667 1447 -16.3333333333 1447 -31 c 0
 1447 -66.4806271473 1489.30677056 -85.2030365105 1520.5 -90.5 c 128
 1544.7115888 -94.6114018714 1620.73189432 -101.228263068 1643 -106 c 1
 1750 -117 l 1
 1787.27204126 -117 1794.12627316 -87.4602843675 1807 -47 c 1
 1834 -55 l 1
 1826 -82.3333333333 1822 -101.666666667 1822 -113 c 0
 1822 -164.968887871 1910.35726246 -181.015949217 1966 -183.5 c 128
 2026.99790945 -186.223120957 2133.24433383 -193.476373651 2170 -217 c 0
 2176 -221 2181.33333333 -223 2186 -223 c 0
 2243.33333333 -215 2286.33333333 -211 2315 -211 c 0
 2401 -211 2528 -225.833333333 2696 -255.5 c 128
 2864 -285.166666667 2990.33333333 -300.333333333 3075 -301 c 0
 3081.66666667 -301 3087 -299 3091 -295 c 2
 3120 -270 l 1
 3129.33333333 -263.333333333 3134 -254.666666667 3134 -244 c 0
 3134 -229.333333333 3128.66666667 -207.333333333 3118 -178 c 1
 3136 -170 l 1
 3148.66666667 -202.666666667 3158.66666667 -223.166666667 3166 -231.5 c 128
 3173.33333333 -239.833333333 3183.33333333 -244 3196 -244 c 2
 3204 -244 l 2
 3214.66666667 -244 3225.66666667 -240.833333333 3237 -234.5 c 128
 3248.33333333 -228.166666667 3266.66666667 -213.333333333 3292 -190 c 1
 3300 -199 l 1
 3272 -224.333333333 3254.5 -242.5 3247.5 -253.5 c 128
 3240.5 -264.5 3237 -276.333333333 3237 -289 c 0
 3237 -304.333333333 3255.33333333 -328.666666667 3292 -362 c 1
 3282 -375 l 1
 3244.66666667 -341 3218.66666667 -324 3204 -324 c 0
 3173.51543622 -324 3092.28766761 -358 3063 -358 c 2
 3040 -358 l 2
 3033.05549086 -358 3024 -376.042089002 3024 -383 c 0
 3024 -395 3032.66666667 -417 3050 -449 c 1
 3034 -459 l 1
 3019.33333333 -433.666666667 3008.16666667 -416.666666667 3000.5 -408 c 128
 2992.83333333 -399.333333333 2985 -395 2977 -395 c 0
 2974.1372711 -395 2967.19422069 -397 2964 -397 c 2
 2962 -397 l 1
 2943.43893362 -402.568319914 2936 -405.713165784 2936 -430 c 0
 2936 -441.333333333 2938 -457 2942 -477 c 1
 2919 -481 l 1
 2913.93872464 -444.72752658 2912.73863283 -412 2887 -412 c 1
 2608 -440 l 1
 2387 -455 l 2
 2374.33333333 -455 2364 -459.333333333 2356 -468 c 128
 2348 -476.666666667 2337.66666667 -496.666666667 2325 -528 c 1
 2307 -522 l 1
 2317.66666667 -492.666666667 2323 -470.333333333 2323 -455 c 0
 2323 -434.333333333 2315 -424 2299 -424 c 2
 1758 -424 l 2
 1752 -424 1742.66666667 -452.666666667 1730 -510 c 1
 1693 -502 l 1
 1698.33333333 -472.666666667 1701 -454 1701 -446 c 0
 1701 -380.652587039 1564.03670202 -375.63646938 1514 -360 c 1
 1514 -361.333333333 1512 -362 1508 -362 c 0
 1497.33333333 -362 1471.33333333 -357.666666667 1430 -349 c 128
 1381.28525372 -338.785617715 1267.01581348 -309.835968913 1226 -303 c 0
 1223.02857158 -303 1213.6988712 -301 1211 -301 c 0
 1201.66666667 -301 1192 -305.166666667 1182 -313.5 c 128
 1172 -321.833333333 1158.66666667 -338 1142 -362 c 1
 1123 -348 l 1
 1146.33333333 -316 1158 -292 1158 -276 c 0
 1158 -269.333333333 1155.33333333 -260.666666667 1150 -250 c 1
 1152 -256 l 1
 1148 -248.666666667 1141 -244 1131 -242 c 1
 980 -227 l 1
EndSplineSet
EndChar

StartChar: R
Encoding: 82 82 55
Width: 1140
GlyphClass: 2
Flags: HW
LayerCount: 2
Fore
SplineSet
501 1538 m 2
 478.623485833 1538 458 1490.3369104 458 1470 c 2
 458 1071 l 2
 458 1049.56985433 472.124494957 1032 493 1032 c 0
 499 1032 506 1034 514 1038 c 2
 549 1057 l 1
 553.666666667 1064.33333333 565.666666667 1073.66666667 585 1085 c 128
 618.765851409 1104.79377496 657 1135.29214634 657 1186 c 0
 657 1205.68180002 682 1267.10168124 682 1286 c 2
 682 1384 l 2
 682 1402.3507216 657 1452.0894008 657 1470 c 0
 657 1493.46791202 631.006627802 1518.29163229 616.5 1528.5 c 128
 607.5 1534.83333333 602 1538 600 1538 c 2
 501 1538 l 2
1100 215 m 0
 1100 181.86735725 1151.71364255 123 1183 123 c 0
 1195.66666667 123 1218.33333333 127 1251 135 c 1
 1255 121 l 1
 1200.22573873 106.799265596 1182.26825246 108.35356803 1167 74 c 0
 1164.33333333 68.6666666667 1163 63.6666666667 1163 59 c 0
 1163 45 1176 20 1202 -16 c 1
 1192 -25 l 1
 1172 3.66666666667 1157.33333333 21.8333333333 1148 29.5 c 128
 1138.66666667 37.1666666667 1129.33333333 41 1120 41 c 0
 1116 41 1111.33333333 39.6666666667 1106 37 c 2
 1081 20 l 2
 1048.43605006 -1.70929995916 1040.65171071 -22.7508878143 1016 -70 c 1
 1007 -66 l 1
 1027.66666667 -27.3333333333 1040 0 1044 16 c 1
 1038 31.3333333333 1025.66666667 39 1007 39 c 1
 938 35 l 1
 916.854359998 35 912.489880022 23.7759867902 909 4 c 1
 897 -41 l 1
 878 -41 l 1
 901 57 l 1
 901 95.6666666667 886.666666667 115 858 115 c 0
 843.333333333 115 818.666666667 103.333333333 784 80 c 1
 772 96 l 1
 796 113.333333333 812.166666667 126.833333333 820.5 136.5 c 128
 828.833333333 146.166666667 833 156 833 166 c 0
 833 206.395143601 815.704796839 382.937269564 796 401 c 1
 780 413.666666667 758.833333333 445.333333333 732.5 496 c 128
 684.555911936 588.246852984 605.91792068 731.833776873 532 795 c 1
 526 803 518.666666667 807 510 807 c 0
 469.838871603 807 458 725.876432016 458 682 c 0
 458 619.83508405 480.573359941 413.026041393 483 356 c 0
 483 337.072461195 641.126554278 254 659 254 c 0
 675 254 697.666666667 256.666666667 727 262 c 1
 731 246 l 1
 678.769974182 235.758818467 650.789044277 230.683566415 631 201 c 2
 606 162 l 2
 602 156 600 150.333333333 600 145 c 0
 600 131.666666667 611.666666667 108 635 74 c 1
 622 66 l 1
 606 90.6666666667 593.666666667 107 585 115 c 128
 576.333333333 123 567.666666667 127 559 127 c 0
 552.446799479 127 520.743319617 123 514 123 c 0
 500 123 482.166666667 129.833333333 460.5 143.5 c 128
 438.833333333 157.166666667 425.333333333 164 420 164 c 1
 403.433891217 148.702355569 379.262319276 129.723369728 356 121 c 1
 327.092152129 108.431370491 317 101.944320055 317 63 c 0
 317 48.3333333333 317.666666667 35.6666666667 319 25 c 1
 299 25 l 1
 295.618266796 62.1990652473 293.310278486 102 266 102 c 0
 248 102 221.333333333 87.6666666667 186 59 c 1
 178 72 l 1
 206 93.3333333333 223.833333333 109.166666667 231.5 119.5 c 128
 239.166666667 129.833333333 243 140.666666667 243 152 c 2
 248 213 l 2
 248 224.333333333 243.666666667 234.333333333 235 243 c 128
 226.333333333 251.666666667 208 264.333333333 180 281 c 1
 192 301 l 1
 228.666666667 284.333333333 251.333333333 276 260 276 c 0
 280.332809734 276 323 312.725539476 323 332 c 0
 323 333.44129456 321 340.253786477 321 342 c 0
 247.1555221 620.00274033 241 858.774255176 241 1221 c 1
 231.285643167 1221 193.543256145 1403.45674385 186 1411 c 1
 80 1485 l 1
 65.3333333333 1493 53 1497 43 1497 c 0
 27 1497 3.66666666667 1492.33333333 -27 1483 c 1
 -33 1501 l 1
 16.8810621769 1515.96431865 43.371509752 1520.95531079 57 1556 c 1
 88 1628 l 2
 90.6666666667 1636 92 1642.33333333 92 1647 c 0
 92 1663 79.6666666667 1689.33333333 55 1726 c 1
 71 1739 l 1
 90.3333333333 1709.66666667 105.166666667 1691 115.5 1683 c 128
 125.833333333 1675 137.666666667 1671 151 1671 c 2
 315 1671 l 2
 334.036024829 1671 348 1688.74903584 348 1708 c 0
 348 1725.33333333 341.666666667 1748 329 1776 c 1
 352 1784 l 1
 366.40217716 1746.33276743 375.104503553 1712 418 1712 c 0
 420.150756046 1712 449.333781278 1713 451.5 1713 c 128
 516.422241735 1713 536 1757.21369624 536 1823 c 1
 561 1825 l 1
 561 1775.44217439 573.655254527 1731.75477711 612.5 1726 c 128
 629.908224225 1723.42100382 639.50409959 1724 665 1724 c 0
 731.768003302 1724 764 1749.97620085 764 1819 c 1
 792 1819 l 1
 793.013240192 1778.47039234 802.23298137 1742.88287517 830.5 1736.5 c 128
 870.304251455 1727.51194322 897.167503427 1730.30990406 899 1679 c 0
 899 1672.33333333 901.666666667 1666.33333333 907 1661 c 0
 945 1621 964 1575.33333333 964 1524 c 0
 964 1352.66666667 924.666666667 1199.66666667 846 1065 c 1
 852 1048.33333333 871 1034.66666667 903 1024 c 1
 887 975 l 1
 869.666666667 981.666666667 853 985 837 985 c 0
 791.924079174 985 763.815060527 917.161138152 766 868 c 2
 768 819 l 2
 768 815 769.333333333 810.333333333 772 805 c 1
 812.650639396 767.736913887 870.543276798 658.984695821 900.5 603 c 128
 920.833333333 565 943.666666667 530.833333333 969 500.5 c 128
 994.333333333 470.166666667 1016.66666667 455 1036 455 c 0
 1047.33333333 455 1066.33333333 458.333333333 1093 465 c 1
 1100 444 l 1
 1055.85757419 432.522969291 1024 430.178138072 1024 395 c 1
 1022 360 l 1
 1022 354 l 2
 1022 321.871735381 1048.99421431 258 1079 258 c 0
 1093.66666667 258 1115.66666667 267.666666667 1145 287 c 1
 1155 268 l 1
 1118.33333333 245.333333333 1100 227.666666667 1100 215 c 0
EndSplineSet
EndChar

StartChar: S
Encoding: 83 83 56
Width: 1241
GlyphClass: 2
Flags: HW
LayerCount: 2
Fore
SplineSet
197 129 m 1
 230.78276067 135.063572428 261 139.343759758 261 166 c 1
 257 252 l 1
 255 262 253 268 251 270 c 1
 244 272 l 1
 244 276.666666667 237.333333333 279 224 279 c 128
 210.666666667 279 186.666666667 268.666666667 152 248 c 1
 142 262 l 1
 168.666666667 279.333333333 186 292.833333333 194 302.5 c 128
 202 312.166666667 206.666666667 323.333333333 208 336 c 1
 208 397.236164275 206.911132029 463 146 463 c 128
 131.333333333 463 120.333333333 462.333333333 113 461 c 1
 107 496 l 1
 162.542344185 503.934620598 179 509.323588444 179 563 c 2
 179 582 l 2
 179 606 166.666666667 640 142 684 c 1
 150 688 l 1
 173.333333333 644.666666667 195.333333333 615.333333333 216 600 c 1
 249 580 l 1
 259 575 l 1
 315 569 345 507.666666667 349 391 c 0
 349 386.333333333 354 378 364 366 c 128
 387.562551191 337.72493857 423.110297171 296.705874211 436.5 261 c 128
 439.669631095 252.547650412 446.483546832 233 457 233 c 0
 466.052532742 233 472 252.510303443 472 262 c 0
 472 284 465.666666667 306 453 328 c 1
 470 336 l 1
 487.303346529 295.929092248 494.587407573 268 533 268 c 2
 605 268 l 2
 635 268 669 273.666666667 707 285 c 1
 711 291.666666667 724.833333333 303.333333333 748.5 320 c 128
 772.166666667 336.666666667 785.666666667 354.333333333 789 373 c 1
 797 522 l 1
 797 543.429867537 777.244648164 575.510703673 769 592 c 1
 640 700 l 2
 637.333333333 703.333333333 632.333333333 705 625 705 c 2
 566 705 l 2
 520.868043169 705 512.421471728 681.787845524 492 639 c 1
 472 647 l 1
 486.666666667 677 494 699.666666667 494 715 c 0
 494 750.001390619 457.954412808 772 423 772 c 0
 393.475525135 772 382.527992896 744.330653247 367 715 c 1
 345 727 l 1
 359.666666667 755.666666667 367 775.333333333 367 786 c 0
 367 806.469296612 334.640076013 820.943969595 317 828 c 128
 290.056913731 838.777234508 253.312543181 861.977626138 236 883 c 1
 213.624273558 903.138153797 185.041104461 907 138 907 c 1
 138 924 l 1
 156 924 l 2
 196.666666667 924 223.333333333 931.333333333 236 946 c 2
 255 967 l 1
 257 959.666666667 259.666666667 954.666666667 263 952 c 1
 253.060129157 970.637257831 238.916112672 991 220 991 c 0
 216.666666667 991 197.666666667 985.666666667 163 975 c 1
 152 1001 l 1
 179.679839844 1014.83991992 208 1025.02126086 208 1053 c 128
 208 1062.33333333 205 1073.66666667 199 1087 c 0
 191.666666667 1103 185.666666667 1121.66666667 181 1143 c 1
 143.666666667 1174.33333333 107.333333333 1190 72 1190 c 0
 61.3333333333 1190 53.3333333333 1189.33333333 48 1188 c 1
 23 1307 l 1
 57 1313 85.5 1333.33333333 108.5 1368 c 128
 131.5 1402.66666667 152.333333333 1456.66666667 171 1530 c 1
 130 1618 l 1
 132 1626 137.333333333 1630 146 1630 c 0
 171.286685823 1630 213.836818552 1600.57136335 230 1588 c 2
 249 1573 l 1
 253 1577 255 1581 255 1585 c 0
 274.686881031 1670.3098178 492 1609.58460606 492 1710 c 0
 492 1724 491.333333333 1735 490 1743 c 1
 521 1745 l 1
 526.428015287 1698.86187006 531.059116956 1671 578 1671 c 2
 679 1669 l 2
 711.167132201 1669 717.229840128 1698.50901679 732 1735 c 1
 754 1729 l 1
 746 1709 742 1689.66666667 742 1671 c 0
 742 1648.75782666 785.599785994 1615.4401284 853 1575 c 0
 875 1562.33333333 886 1555 886 1553 c 0
 886 1552.33333333 885 1552 883 1552 c 1
 890.333333333 1552 896.666666667 1555 902 1561 c 2
 1051 1718 l 1
 1068 1706 l 1
 1039 1626 l 2
 1037.66666667 1623.33333333 1037 1620 1037 1616 c 128
 1037 1612 1044.5 1598.16666667 1059.5 1574.5 c 128
 1074.5 1550.83333333 1082 1530.33333333 1082 1513 c 0
 1082 1414.07746773 1038.27455785 1226.24852617 980 1032 c 1
 978.666666667 1032 978 1026.66666667 978 1016 c 128
 978 1005.33333333 982.666666667 980 992 940 c 1
 986 938 l 1
 976.368710181 980.903018283 962.715741492 1032.48377581 935.5 1045.5 c 128
 917.841680988 1053.94528301 888.759498768 1065.24050123 875 1079 c 0
 860.333333333 1092.33333333 844.666666667 1129.83333333 828 1191.5 c 128
 811.333333333 1253.16666667 801 1288 797 1296 c 0
 793 1305.33333333 781.5 1322.5 762.5 1347.5 c 128
 743.5 1372.5 733.333333333 1393 732 1409 c 0
 732 1415.66666667 730 1421 726 1425 c 2
 648 1497 l 1
 642 1505 636 1509 630 1509 c 0
 613.585532089 1509 605 1492.48455436 605 1475 c 0
 605 1458.33333333 608.333333333 1440.33333333 615 1421 c 1
 597 1415 l 1
 584.962836287 1457.59304083 580.50362069 1485 543 1485 c 2
 480 1485 l 2
 473.333333333 1485 468 1483 464 1479 c 2
 404 1427 l 1
 400 1427 398 1420.33333333 398 1407 c 2
 398 1231 l 1
 399.333333333 1218.33333333 402 1212 406 1212 c 1
 430.666666667 1192.66666667 482.833333333 1159 562.5 1111 c 128
 642.166666667 1063 713.166666667 1016.5 775.5 971.5 c 128
 837.833333333 926.5 876 887.333333333 890 854 c 0
 894 844.666666667 900 840 908 840 c 1
 954.666666667 828 978 744.666666667 978 590 c 0
 978 493.939310138 979.841758959 407.921232576 951.5 336.5 c 128
 932.018099412 287.405610519 894.467780238 235.252717963 853 203 c 1
 847.666666667 195 845 188.666666667 845 184 c 1
 841 167.333333333 827.333333333 147 804 123 c 128
 780.666666667 99 767 79 763 63 c 1
 747 53.6666666667 727 49 703 49 c 0
 651 49 594.166666667 53.1666666667 532.5 61.5 c 128
 470.833333333 69.8333333333 425.333333333 74 396 74 c 0
 317.744310751 74 299.3844012 53.3073353327 265 -4 c 1
 240 10 l 1
 260.666666667 45.3333333333 271 74 271 96 c 0
 271 107.333333333 263 113 247 113 c 0
 236.333333333 113 220.333333333 110.666666667 199 106 c 1
 197 129 l 1
EndSplineSet
EndChar

StartChar: T
Encoding: 84 84 57
Width: 1604
GlyphClass: 2
Flags: HW
LayerCount: 2
Fore
SplineSet
780 178 m 2
 693.880732926 178 670.030398357 131.121593428 649 47 c 1
 635 51 l 1
 645.666666667 103 651 129.666666667 651 131 c 0
 651 141 648.333333333 152.666666667 643 166 c 0
 633.666666667 190 625.333333333 229.5 618 284.5 c 128
 610.666666667 339.5 598 385.333333333 580 422 c 1
 574.666666667 430 559 434 533 434 c 1
 534.333333333 435.333333333 535.666666667 436 537 436 c 2
 610 455 l 1
 633 354 l 1
 635 352 l 1
 637.666666667 352 642.333333333 355.333333333 649 362 c 0
 691.666666667 411.333333333 713 467.333333333 713 530 c 0
 713 588.789620395 691.561162209 661.53593227 678 709 c 0
 674.666666667 719 668.166666667 729.5 658.5 740.5 c 128
 648.833333333 751.5 630 767.333333333 602 788 c 1
 610 799 l 1
 647.333333333 771.666666667 674 756 690 752 c 1
 705.333333333 756 713 766 713 782 c 2
 715 842 l 1
 717.491922369 884.362680271 694.339630779 940 653 940 c 0
 646.333333333 940 628 936.666666667 598 930 c 1
 592 954 l 1
 641.712278677 966.925192456 666 970.0580079 666 1016 c 0
 666 1104.84646276 667.040309055 1227 580 1227 c 0
 566 1227 555 1225.66666667 547 1223 c 1
 535 1274 l 1
 579.666666667 1285.33333333 602 1305.66666667 602 1335 c 0
 602 1377.66666667 596 1399 584 1399 c 0
 567.620612723 1399 557 1380.48418457 557 1364 c 0
 557 1352.66666667 561 1333 569 1305 c 1
 547 1298 l 1
 533.989549586 1336.16398788 527.169701053 1368 494 1368 c 0
 446.706559191 1368 339.042663326 1346.43891463 332 1307 c 0
 329.333333333 1291 317.333333333 1270.33333333 296 1245 c 128
 274.666666667 1219.66666667 264 1203.33333333 264 1196 c 0
 262.828309048 1167.87941716 248.065843547 1145.94410148 229 1138 c 128
 213.238832894 1131.43284704 194.967429059 1118.51466894 191 1100 c 0
 186.031659912 1076.40038458 176.51455797 1061.51455797 163 1048 c 128
 139.84423709 1024.84423709 126.907089521 973.796498159 115 928 c 1
 105 930 l 1
 115.666666667 973.333333333 121 1004.66666667 121 1024 c 0
 121 1054.13709543 102 1161.12647656 102 1192 c 0
 102 1234.66666667 109 1275.66666667 123 1315 c 0
 123 1317.00674303 125 1321.39881261 125 1323 c 0
 125 1325.62600631 100 1399.0191133 100 1401 c 2
 102 1761 l 2
 102 1770.33333333 98.8333333333 1780.16666667 92.5 1790.5 c 128
 86.1666666667 1800.83333333 71 1818.33333333 47 1843 c 1
 55 1851 l 1
 79 1826.33333333 96.1666666667 1810.66666667 106.5 1804 c 128
 116.833333333 1797.33333333 126.333333333 1794 135 1794 c 2
 139 1794 l 2
 148.333333333 1794 157 1798 165 1806 c 128
 173 1814 185 1833.33333333 201 1864 c 1
 213 1855 l 1
 193.666666667 1819.66666667 184 1796 184 1784 c 0
 184 1777.33333333 186.333333333 1771.66666667 191 1767 c 1
 225 1716 l 1
 233 1709.33333333 240 1706 246 1706 c 0
 264 1704 287.833333333 1694.33333333 317.5 1677 c 128
 347.166666667 1659.66666667 375.333333333 1651 402 1651 c 0
 422.970517022 1651 446.818862443 1657.45598358 476.5 1661 c 128
 573.165091427 1672.54210047 693.05040997 1679 809 1679 c 0
 850.55786544 1679 990.046753408 1677 1026 1677 c 0
 1054.91643277 1677 1128.30202398 1636 1159 1636 c 0
 1180.9725549 1636 1261.89318341 1691.95422146 1276 1698 c 0
 1304.60736949 1711.35010576 1304.98733862 1736.8385674 1309 1788 c 1
 1325 1786 l 1
 1325 1779.71349583 1323 1759.07253522 1323 1753 c 0
 1323 1717.61114624 1325.42504361 1705.07882267 1346 1694 c 1
 1438 1636 l 1
 1446.66666667 1629.33333333 1455.33333333 1626 1464 1626 c 0
 1480.66666667 1626 1506 1634.33333333 1540 1651 c 1
 1548 1632 l 1
 1504.49288428 1614.02966959 1475.00211198 1605.01337585 1469 1567 c 1
 1453.66666667 1491.66666667 1446 1428.66666667 1446 1378 c 0
 1446 1337.00188172 1452.92966458 1328.9891458 1480.5 1302.5 c 128
 1497.5 1286.16666667 1522.33333333 1271 1555 1257 c 1
 1548 1243 l 1
 1509.33333333 1261 1480.66666667 1270 1462 1270 c 0
 1425.33333333 1270 1407 1257.66666667 1407 1233 c 0
 1407 1222.33333333 1409 1204 1413 1178 c 1
 1403 1178 l 1
 1399.68022085 1207.04806758 1398.9526828 1249.84121953 1380 1253 c 1
 1372 1253 l 2
 1356.17353156 1253 1353.52928939 1247.49163254 1341.5 1234.5 c 128
 1333.16666667 1225.5 1321.66666667 1212 1307 1194 c 1
 1299 1200 l 1
 1327.66666667 1236 1342 1259.33333333 1342 1270 c 0
 1342 1328.55689401 1208.36974729 1368 1149 1368 c 0
 1138.33333333 1368 1128.66666667 1363.83333333 1120 1355.5 c 128
 1111.33333333 1347.16666667 1100 1329.66666667 1086 1303 c 1
 1069 1311 l 1
 1087 1346.33333333 1096 1369.33333333 1096 1380 c 0
 1096 1388.66666667 1092.66666667 1396.33333333 1086 1403 c 1
 1088 1399 l 1
 1082.31146576 1404.68853424 999.495047757 1427 987 1427 c 0
 979 1427 972.333333333 1424.33333333 967 1419 c 2
 899 1352 l 2
 893.666666667 1346.66666667 891 1340.33333333 891 1333 c 2
 891 1087 l 2
 891 1067.25125812 864 1005.12767179 864 985 c 0
 864 970.20133884 893 923.78570184 893 909 c 0
 893 892.981955727 881 837.281520173 881 821 c 0
 881 786.552617388 891 670.815158746 891 637 c 0
 891 553.666666667 884 492.333333333 870 453 c 1
 870 441.666666667 872.333333333 434 877 430 c 2
 932 367 l 1
 938 358.333333333 948.333333333 354 963 354 c 0
 963.666666667 354 986 359.666666667 1030 371 c 1
 1036 350 l 1
 991.68625597 336.151954991 961.049792877 329.44813589 957 293 c 1
 948.333333333 237.666666667 929 196.666666667 899 170 c 1
 893.666666667 162 891 155.333333333 891 150 c 2
 895 90 l 1
 868 92 l 1
 864 147 l 1
 864 174.266805014 837.824207784 178 810.5 178 c 130
 780 178 l 2
EndSplineSet
EndChar

